%TF.GenerationSoftware,KiCad,Pcbnew,(6.0.0)*%
%TF.CreationDate,2023-10-09T13:50:17-07:00*%
%TF.ProjectId,minisb_bowden,6d696e69-7362-45f6-926f-7764656e2e6b,rev?*%
%TF.SameCoordinates,Original*%
%TF.FileFunction,Legend,Top*%
%TF.FilePolarity,Positive*%
%FSLAX46Y46*%
G04 Gerber Fmt 4.6, Leading zero omitted, Abs format (unit mm)*
G04 Created by KiCad (PCBNEW (6.0.0)) date 2023-10-09 13:50:17*
%MOMM*%
%LPD*%
G01*
G04 APERTURE LIST*
%ADD10C,0.039687*%
%ADD11C,0.150000*%
%ADD12C,0.250000*%
%ADD13C,0.120000*%
G04 APERTURE END LIST*
D10*
X127143166Y-75594415D02*
X125826334Y-75594415D01*
X125826334Y-75594415D02*
X127627353Y-72854391D01*
X127627353Y-72854391D02*
X128944184Y-72854391D01*
X128944184Y-72854391D02*
X127143166Y-75594415D01*
X127143166Y-75594415D02*
X127143166Y-75594415D01*
G36*
X127143166Y-75594415D02*
G01*
X125826334Y-75594415D01*
X127627353Y-72854391D01*
X128944184Y-72854391D01*
X127143166Y-75594415D01*
G37*
X127143166Y-75594415D02*
X125826334Y-75594415D01*
X127627353Y-72854391D01*
X128944184Y-72854391D01*
X127143166Y-75594415D01*
X124575384Y-70117540D02*
X125892216Y-70117540D01*
X125892216Y-70117540D02*
X124090800Y-72857565D01*
X124090800Y-72857565D02*
X122773969Y-72857565D01*
X122773969Y-72857565D02*
X124575384Y-70117540D01*
X124575384Y-70117540D02*
X124575384Y-70117540D01*
G36*
X124090800Y-72857565D02*
G01*
X122773969Y-72857565D01*
X124575384Y-70117540D01*
X125892216Y-70117540D01*
X124090800Y-72857565D01*
G37*
X124090800Y-72857565D02*
X122773969Y-72857565D01*
X124575384Y-70117540D01*
X125892216Y-70117540D01*
X124090800Y-72857565D01*
X123399443Y-75594415D02*
X127001878Y-70113573D01*
X127001878Y-70113573D02*
X128318709Y-70113573D01*
X128318709Y-70113573D02*
X124715877Y-75594415D01*
X124715877Y-75594415D02*
X123399443Y-75594415D01*
X123399443Y-75594415D02*
X123399443Y-75594415D01*
G36*
X124715877Y-75594415D02*
G01*
X123399443Y-75594415D01*
X127001878Y-70113573D01*
X128318709Y-70113573D01*
X124715877Y-75594415D01*
G37*
X124715877Y-75594415D02*
X123399443Y-75594415D01*
X127001878Y-70113573D01*
X128318709Y-70113573D01*
X124715877Y-75594415D01*
D11*
X120876190Y-95421904D02*
X120876190Y-94621904D01*
X120876190Y-95002857D02*
X121333333Y-95002857D01*
X121333333Y-95421904D02*
X121333333Y-94621904D01*
X121714285Y-95002857D02*
X121980952Y-95002857D01*
X122095238Y-95421904D02*
X121714285Y-95421904D01*
X121714285Y-94621904D01*
X122095238Y-94621904D01*
X122704761Y-95002857D02*
X122438095Y-95002857D01*
X122438095Y-95421904D02*
X122438095Y-94621904D01*
X122819047Y-94621904D01*
X124114285Y-94621904D02*
X123733333Y-94621904D01*
X123695238Y-95002857D01*
X123733333Y-94964761D01*
X123809523Y-94926666D01*
X124000000Y-94926666D01*
X124076190Y-94964761D01*
X124114285Y-95002857D01*
X124152380Y-95079047D01*
X124152380Y-95269523D01*
X124114285Y-95345714D01*
X124076190Y-95383809D01*
X124000000Y-95421904D01*
X123809523Y-95421904D01*
X123733333Y-95383809D01*
X123695238Y-95345714D01*
X124380952Y-94621904D02*
X124647619Y-95421904D01*
X124914285Y-94621904D01*
X126780952Y-95421904D02*
X126400000Y-95421904D01*
X126400000Y-94621904D01*
X127047619Y-95002857D02*
X127314285Y-95002857D01*
X127428571Y-95421904D02*
X127047619Y-95421904D01*
X127047619Y-94621904D01*
X127428571Y-94621904D01*
X127771428Y-95421904D02*
X127771428Y-94621904D01*
X127961904Y-94621904D01*
X128076190Y-94660000D01*
X128152380Y-94736190D01*
X128190476Y-94812380D01*
X128228571Y-94964761D01*
X128228571Y-95079047D01*
X128190476Y-95231428D01*
X128152380Y-95307619D01*
X128076190Y-95383809D01*
X127961904Y-95421904D01*
X127771428Y-95421904D01*
X129180952Y-95421904D02*
X129180952Y-94621904D01*
X129180952Y-95002857D02*
X129638095Y-95002857D01*
X129638095Y-95421904D02*
X129638095Y-94621904D01*
X130019047Y-95002857D02*
X130285714Y-95002857D01*
X130400000Y-95421904D02*
X130019047Y-95421904D01*
X130019047Y-94621904D01*
X130400000Y-94621904D01*
X130895238Y-94621904D02*
X130971428Y-94621904D01*
X131047619Y-94660000D01*
X131085714Y-94698095D01*
X131123809Y-94774285D01*
X131161904Y-94926666D01*
X131161904Y-95117142D01*
X131123809Y-95269523D01*
X131085714Y-95345714D01*
X131047619Y-95383809D01*
X130971428Y-95421904D01*
X130895238Y-95421904D01*
X130819047Y-95383809D01*
X130780952Y-95345714D01*
X130742857Y-95269523D01*
X130704761Y-95117142D01*
X130704761Y-94926666D01*
X130742857Y-94774285D01*
X130780952Y-94698095D01*
X130819047Y-94660000D01*
X130895238Y-94621904D01*
X120460476Y-87831904D02*
X120917619Y-87831904D01*
X120689047Y-88631904D02*
X120689047Y-87831904D01*
X121184285Y-88631904D02*
X121184285Y-87831904D01*
X121184285Y-88212857D02*
X121641428Y-88212857D01*
X121641428Y-88631904D02*
X121641428Y-87831904D01*
X122174761Y-87831904D02*
X122250952Y-87831904D01*
X122327142Y-87870000D01*
X122365238Y-87908095D01*
X122403333Y-87984285D01*
X122441428Y-88136666D01*
X122441428Y-88327142D01*
X122403333Y-88479523D01*
X122365238Y-88555714D01*
X122327142Y-88593809D01*
X122250952Y-88631904D01*
X122174761Y-88631904D01*
X122098571Y-88593809D01*
X122060476Y-88555714D01*
X122022380Y-88479523D01*
X121984285Y-88327142D01*
X121984285Y-88136666D01*
X122022380Y-87984285D01*
X122060476Y-87908095D01*
X122098571Y-87870000D01*
X122174761Y-87831904D01*
X123812857Y-87870000D02*
X123736666Y-87831904D01*
X123622380Y-87831904D01*
X123508095Y-87870000D01*
X123431904Y-87946190D01*
X123393809Y-88022380D01*
X123355714Y-88174761D01*
X123355714Y-88289047D01*
X123393809Y-88441428D01*
X123431904Y-88517619D01*
X123508095Y-88593809D01*
X123622380Y-88631904D01*
X123698571Y-88631904D01*
X123812857Y-88593809D01*
X123850952Y-88555714D01*
X123850952Y-88289047D01*
X123698571Y-88289047D01*
X124193809Y-88631904D02*
X124193809Y-87831904D01*
X124650952Y-88631904D01*
X124650952Y-87831904D01*
X125031904Y-88631904D02*
X125031904Y-87831904D01*
X125222380Y-87831904D01*
X125336666Y-87870000D01*
X125412857Y-87946190D01*
X125450952Y-88022380D01*
X125489047Y-88174761D01*
X125489047Y-88289047D01*
X125450952Y-88441428D01*
X125412857Y-88517619D01*
X125336666Y-88593809D01*
X125222380Y-88631904D01*
X125031904Y-88631904D01*
X126441428Y-88631904D02*
X126441428Y-87831904D01*
X126746190Y-87831904D01*
X126822380Y-87870000D01*
X126860476Y-87908095D01*
X126898571Y-87984285D01*
X126898571Y-88098571D01*
X126860476Y-88174761D01*
X126822380Y-88212857D01*
X126746190Y-88250952D01*
X126441428Y-88250952D01*
X127698571Y-88555714D02*
X127660476Y-88593809D01*
X127546190Y-88631904D01*
X127470000Y-88631904D01*
X127355714Y-88593809D01*
X127279523Y-88517619D01*
X127241428Y-88441428D01*
X127203333Y-88289047D01*
X127203333Y-88174761D01*
X127241428Y-88022380D01*
X127279523Y-87946190D01*
X127355714Y-87870000D01*
X127470000Y-87831904D01*
X127546190Y-87831904D01*
X127660476Y-87870000D01*
X127698571Y-87908095D01*
X128308095Y-88212857D02*
X128041428Y-88212857D01*
X128041428Y-88631904D02*
X128041428Y-87831904D01*
X128422380Y-87831904D01*
X129298571Y-87908095D02*
X129336666Y-87870000D01*
X129412857Y-87831904D01*
X129603333Y-87831904D01*
X129679523Y-87870000D01*
X129717619Y-87908095D01*
X129755714Y-87984285D01*
X129755714Y-88060476D01*
X129717619Y-88174761D01*
X129260476Y-88631904D01*
X129755714Y-88631904D01*
X130441428Y-88098571D02*
X130441428Y-88631904D01*
X130250952Y-87793809D02*
X130060476Y-88365238D01*
X130555714Y-88365238D01*
X130746190Y-87831904D02*
X131012857Y-88631904D01*
X131279523Y-87831904D01*
%TO.C,HEF*%
X108312380Y-103746666D02*
X107312380Y-103746666D01*
X107788571Y-103746666D02*
X107788571Y-103175238D01*
X108312380Y-103175238D02*
X107312380Y-103175238D01*
X107788571Y-102699047D02*
X107788571Y-102365714D01*
X108312380Y-102222857D02*
X108312380Y-102699047D01*
X107312380Y-102699047D01*
X107312380Y-102222857D01*
X107788571Y-101460952D02*
X107788571Y-101794285D01*
X108312380Y-101794285D02*
X107312380Y-101794285D01*
X107312380Y-101318095D01*
D12*
X100967428Y-103992952D02*
X100967428Y-103231047D01*
X100967428Y-101960952D02*
X100967428Y-101199047D01*
X101348380Y-101580000D02*
X100586476Y-101580000D01*
D13*
X106770000Y-101326000D02*
X106770000Y-99520000D01*
X106770000Y-99520000D02*
X102050000Y-99520000D01*
X102050000Y-99520000D02*
X102050000Y-105640000D01*
X106484000Y-101326000D02*
X106770000Y-101326000D01*
X106484000Y-103612000D02*
X106484000Y-101326000D01*
X106770000Y-103612000D02*
X106484000Y-103612000D01*
X102050000Y-105640000D02*
X106770000Y-105640000D01*
X106770000Y-105640000D02*
X106770000Y-103612000D01*
%TD*%
M02*
