%TF.GenerationSoftware,KiCad,Pcbnew,(6.0.0)*%
%TF.CreationDate,2023-10-09T13:50:17-07:00*%
%TF.ProjectId,minisb_bowden,6d696e69-7362-45f6-926f-7764656e2e6b,rev?*%
%TF.SameCoordinates,Original*%
%TF.FileFunction,Copper,L1,Top*%
%TF.FilePolarity,Positive*%
%FSLAX46Y46*%
G04 Gerber Fmt 4.6, Leading zero omitted, Abs format (unit mm)*
G04 Created by KiCad (PCBNEW (6.0.0)) date 2023-10-09 13:50:17*
%MOMM*%
%LPD*%
G01*
G04 APERTURE LIST*
G04 Aperture macros list*
%AMRoundRect*
0 Rectangle with rounded corners*
0 $1 Rounding radius*
0 $2 $3 $4 $5 $6 $7 $8 $9 X,Y pos of 4 corners*
0 Add a 4 corners polygon primitive as box body*
4,1,4,$2,$3,$4,$5,$6,$7,$8,$9,$2,$3,0*
0 Add four circle primitives for the rounded corners*
1,1,$1+$1,$2,$3*
1,1,$1+$1,$4,$5*
1,1,$1+$1,$6,$7*
1,1,$1+$1,$8,$9*
0 Add four rect primitives between the rounded corners*
20,1,$1+$1,$2,$3,$4,$5,0*
20,1,$1+$1,$4,$5,$6,$7,0*
20,1,$1+$1,$6,$7,$8,$9,0*
20,1,$1+$1,$8,$9,$2,$3,0*%
G04 Aperture macros list end*
%TA.AperFunction,ComponentPad*%
%ADD10RoundRect,0.250000X-0.625000X0.350000X-0.625000X-0.350000X0.625000X-0.350000X0.625000X0.350000X0*%
%TD*%
%TA.AperFunction,ComponentPad*%
%ADD11O,1.750000X1.200000*%
%TD*%
%TA.AperFunction,ComponentPad*%
%ADD12R,2.200000X2.200000*%
%TD*%
%TA.AperFunction,ComponentPad*%
%ADD13C,2.200000*%
%TD*%
%TA.AperFunction,ComponentPad*%
%ADD14RoundRect,0.250000X0.625000X-0.350000X0.625000X0.350000X-0.625000X0.350000X-0.625000X-0.350000X0*%
%TD*%
%TA.AperFunction,ComponentPad*%
%ADD15RoundRect,0.250000X0.500000X0.500000X-0.500000X0.500000X-0.500000X-0.500000X0.500000X-0.500000X0*%
%TD*%
%TA.AperFunction,ComponentPad*%
%ADD16C,1.500000*%
%TD*%
%TA.AperFunction,ComponentPad*%
%ADD17RoundRect,0.250000X0.350000X0.625000X-0.350000X0.625000X-0.350000X-0.625000X0.350000X-0.625000X0*%
%TD*%
%TA.AperFunction,ComponentPad*%
%ADD18O,1.200000X1.750000*%
%TD*%
%TA.AperFunction,ViaPad*%
%ADD19C,0.800000*%
%TD*%
%TA.AperFunction,Conductor*%
%ADD20C,0.500000*%
%TD*%
%TA.AperFunction,Conductor*%
%ADD21C,0.250000*%
%TD*%
G04 APERTURE END LIST*
D10*
%TO.P,HEF,1*%
%TO.N,24v*%
X104960000Y-101580000D03*
D11*
%TO.P,HEF,2*%
%TO.N,HEF*%
X104960000Y-103580000D03*
%TD*%
D12*
%TO.P,HE0,1*%
%TO.N,24v*%
X138310000Y-86320000D03*
D13*
%TO.P,HE0,2*%
%TO.N,HE0*%
X138310000Y-88860000D03*
%TD*%
D14*
%TO.P,TH0,1*%
%TO.N,TH0*%
X116000000Y-88710000D03*
D11*
%TO.P,TH0,2*%
%TO.N,GND*%
X116000000Y-86710000D03*
%TD*%
D15*
%TO.P,MCU,1*%
%TO.N,24v*%
X130352500Y-90000000D03*
D16*
%TO.P,MCU,2*%
%TO.N,PCF*%
X127352500Y-90000000D03*
%TO.P,MCU,3*%
%TO.N,GND*%
X124352500Y-90000000D03*
%TO.P,MCU,4*%
%TO.N,TH0*%
X121352500Y-90000000D03*
%TO.P,MCU,5*%
%TO.N,HE0*%
X130352500Y-93000000D03*
%TO.P,MCU,6*%
%TO.N,LED*%
X127352500Y-93000000D03*
%TO.P,MCU,7*%
%TO.N,5v*%
X124352500Y-93000000D03*
%TO.P,MCU,8*%
%TO.N,HEF*%
X121352500Y-93000000D03*
%TD*%
D17*
%TO.P,PCF,1*%
%TO.N,PCF*%
X147950000Y-97540000D03*
X147950000Y-97540000D03*
D18*
%TO.P,PCF,2*%
%TO.N,24v*%
X145950000Y-97540000D03*
X145950000Y-97540000D03*
%TD*%
D17*
%TO.P,PCF,1*%
%TO.N,PCF*%
X105840000Y-97540000D03*
D18*
%TO.P,PCF,2*%
%TO.N,24v*%
X103840000Y-97540000D03*
%TD*%
D19*
%TO.N,5v*%
X105020000Y-108060000D03*
%TO.N,GND*%
X100650000Y-96230000D03*
X143280000Y-104790000D03*
%TD*%
D20*
%TO.N,24v*%
X145620000Y-97540000D02*
X145950000Y-97540000D01*
D21*
X138540000Y-86350000D02*
X138340000Y-86350000D01*
X138340000Y-86350000D02*
X138310000Y-86320000D01*
D20*
%TO.N,5v*%
X110730000Y-94630000D02*
X122760000Y-94630000D01*
X108190000Y-97170000D02*
X110730000Y-94630000D01*
X105020000Y-108060000D02*
X105590000Y-108060000D01*
X108190000Y-105460000D02*
X108190000Y-97170000D01*
X105590000Y-108060000D02*
X108190000Y-105460000D01*
X122760000Y-94630000D02*
X124390000Y-93000000D01*
%TO.N,PCF*%
X105840000Y-97500000D02*
X111760000Y-91580000D01*
X138880000Y-95350000D02*
X145800000Y-95350000D01*
X125810000Y-91580000D02*
X127390000Y-90000000D01*
X145800000Y-95350000D02*
X147950000Y-97500000D01*
X127390000Y-90000000D02*
X129290000Y-88100000D01*
X129290000Y-88100000D02*
X131630000Y-88100000D01*
X111760000Y-91580000D02*
X125810000Y-91580000D01*
X147950000Y-97500000D02*
X147950000Y-97540000D01*
X131630000Y-88100000D02*
X138880000Y-95350000D01*
%TO.N,TH0*%
X121390000Y-90000000D02*
X117770000Y-90000000D01*
X117770000Y-90000000D02*
X116480000Y-88710000D01*
%TO.N,GND*%
X127100000Y-82910000D02*
X131750000Y-82910000D01*
X104290000Y-91050000D02*
X100650000Y-94690000D01*
X140440000Y-94190000D02*
X148100000Y-94190000D01*
X148100000Y-94190000D02*
X150250000Y-96340000D01*
X135540000Y-89290000D02*
X140440000Y-94190000D01*
X135540000Y-86700000D02*
X135540000Y-89290000D01*
X150250000Y-96340000D02*
X150250000Y-101160000D01*
X121100000Y-86710000D02*
X116480000Y-86710000D01*
X124352500Y-90000000D02*
X125980000Y-88372500D01*
X100650000Y-94690000D02*
X100650000Y-96230000D01*
X116000000Y-86710000D02*
X111250000Y-86710000D01*
X125980000Y-84030000D02*
X127100000Y-82910000D01*
X143290000Y-104800000D02*
X143280000Y-104790000D01*
X125980000Y-88372500D02*
X125980000Y-84030000D01*
X106910000Y-91050000D02*
X104290000Y-91050000D01*
X146610000Y-104800000D02*
X143290000Y-104800000D01*
X124390000Y-90000000D02*
X121100000Y-86710000D01*
X150250000Y-101160000D02*
X146610000Y-104800000D01*
X131750000Y-82910000D02*
X135540000Y-86700000D01*
X111250000Y-86710000D02*
X106910000Y-91050000D01*
%TD*%
%TA.AperFunction,Conductor*%
%TO.N,GND*%
G36*
X125413351Y-66634844D02*
G01*
X130868547Y-66634846D01*
X130887931Y-66636346D01*
X130902733Y-66638651D01*
X130902736Y-66638651D01*
X130911606Y-66640032D01*
X130920508Y-66638868D01*
X130920511Y-66638868D01*
X130920607Y-66638855D01*
X130951046Y-66638584D01*
X131013248Y-66645592D01*
X131040754Y-66651870D01*
X131117945Y-66678879D01*
X131143367Y-66691122D01*
X131158939Y-66700906D01*
X131212611Y-66734630D01*
X131234670Y-66752222D01*
X131292492Y-66810044D01*
X131310085Y-66832104D01*
X131331840Y-66866728D01*
X131353595Y-66901351D01*
X131365836Y-66926771D01*
X131392844Y-67003956D01*
X131399123Y-67031463D01*
X131405391Y-67087091D01*
X131406174Y-67102741D01*
X131406064Y-67111696D01*
X131404683Y-67120568D01*
X131405847Y-67129471D01*
X131405847Y-67129476D01*
X131408805Y-67152100D01*
X131409869Y-67168436D01*
X131409872Y-68440029D01*
X131408371Y-68459417D01*
X131406067Y-68474209D01*
X131406067Y-68474218D01*
X131404686Y-68483086D01*
X131405863Y-68492088D01*
X131406134Y-68522526D01*
X131399124Y-68584733D01*
X131392845Y-68612239D01*
X131365835Y-68689429D01*
X131353593Y-68714850D01*
X131310082Y-68784097D01*
X131292490Y-68806156D01*
X131234665Y-68863981D01*
X131212607Y-68881572D01*
X131177982Y-68903329D01*
X131143358Y-68925084D01*
X131117939Y-68937325D01*
X131040748Y-68964336D01*
X131013242Y-68970614D01*
X130957612Y-68976883D01*
X130941964Y-68977667D01*
X130933009Y-68977558D01*
X130924135Y-68976176D01*
X130895108Y-68979972D01*
X130892615Y-68980298D01*
X130876277Y-68981362D01*
X130812109Y-68981362D01*
X130791206Y-68979616D01*
X130777683Y-68977341D01*
X130776233Y-68977097D01*
X130776232Y-68977097D01*
X130771442Y-68976291D01*
X130765143Y-68976214D01*
X130763762Y-68976197D01*
X130763758Y-68976197D01*
X130758903Y-68976138D01*
X130744181Y-68978247D01*
X130735313Y-68979197D01*
X130557333Y-68991925D01*
X130543743Y-68992897D01*
X130539351Y-68993852D01*
X130539347Y-68993853D01*
X130458385Y-69011465D01*
X130332963Y-69038748D01*
X130130853Y-69114130D01*
X129941529Y-69217508D01*
X129768845Y-69346778D01*
X129616315Y-69499308D01*
X129487045Y-69671992D01*
X129383667Y-69861316D01*
X129308285Y-70063426D01*
X129262434Y-70274206D01*
X129262113Y-70278696D01*
X129249936Y-70448961D01*
X129248512Y-70460871D01*
X129245828Y-70476827D01*
X129245675Y-70489366D01*
X129247470Y-70501896D01*
X129249626Y-70516953D01*
X129250899Y-70534816D01*
X129250899Y-74711121D01*
X129249153Y-74732026D01*
X129245828Y-74751789D01*
X129245675Y-74764328D01*
X129247785Y-74779062D01*
X129248734Y-74787909D01*
X129254877Y-74873810D01*
X129262114Y-74974994D01*
X129262435Y-74979488D01*
X129308287Y-75190267D01*
X129309854Y-75194469D01*
X129309856Y-75194475D01*
X129354332Y-75313719D01*
X129383670Y-75392376D01*
X129487048Y-75581699D01*
X129489749Y-75585307D01*
X129613613Y-75750768D01*
X129616318Y-75754382D01*
X129768848Y-75906911D01*
X129941533Y-76036179D01*
X130130856Y-76139556D01*
X130135062Y-76141125D01*
X130135067Y-76141127D01*
X130310988Y-76206740D01*
X130332965Y-76214937D01*
X130518604Y-76255319D01*
X130539323Y-76259826D01*
X130543745Y-76260788D01*
X130548232Y-76261109D01*
X130548233Y-76261109D01*
X130570425Y-76262696D01*
X130718507Y-76273285D01*
X130730417Y-76274710D01*
X130741564Y-76276586D01*
X130741575Y-76276587D01*
X130746366Y-76277393D01*
X130752721Y-76277471D01*
X130754046Y-76277487D01*
X130754050Y-76277487D01*
X130758905Y-76277546D01*
X130786482Y-76273596D01*
X130804340Y-76272324D01*
X130835123Y-76272326D01*
X130868531Y-76272328D01*
X130887908Y-76273828D01*
X130902723Y-76276135D01*
X130902728Y-76276135D01*
X130911596Y-76277516D01*
X130920499Y-76276352D01*
X130920502Y-76276352D01*
X130920596Y-76276340D01*
X130951040Y-76276068D01*
X131013240Y-76283076D01*
X131040745Y-76289354D01*
X131117944Y-76316368D01*
X131143357Y-76328607D01*
X131212599Y-76372115D01*
X131212604Y-76372118D01*
X131234663Y-76389710D01*
X131292487Y-76447534D01*
X131310077Y-76469589D01*
X131353591Y-76538841D01*
X131365831Y-76564258D01*
X131392844Y-76641454D01*
X131399122Y-76668959D01*
X131405390Y-76724577D01*
X131406174Y-76740226D01*
X131406065Y-76749186D01*
X131404683Y-76758060D01*
X131406324Y-76770605D01*
X131408805Y-76789578D01*
X131409869Y-76805917D01*
X131409868Y-80389156D01*
X131408122Y-80410057D01*
X131404797Y-80429823D01*
X131404644Y-80442362D01*
X131405333Y-80447177D01*
X131405334Y-80447185D01*
X131406141Y-80452820D01*
X131407058Y-80461232D01*
X131407594Y-80468363D01*
X131422635Y-80668433D01*
X131473236Y-80889423D01*
X131474969Y-80893824D01*
X131474971Y-80893830D01*
X131482553Y-80913083D01*
X131556305Y-81100365D01*
X131669976Y-81296519D01*
X131672931Y-81300209D01*
X131672936Y-81300216D01*
X131808735Y-81469781D01*
X131811693Y-81473474D01*
X131978272Y-81627255D01*
X132165969Y-81754405D01*
X132170231Y-81756439D01*
X132170232Y-81756440D01*
X132336640Y-81835872D01*
X132346818Y-81841317D01*
X132358570Y-81848314D01*
X132364030Y-81850510D01*
X132365686Y-81851177D01*
X132365691Y-81851179D01*
X132370204Y-81852994D01*
X132374945Y-81854095D01*
X132374953Y-81854097D01*
X132397357Y-81859298D01*
X132414466Y-81864575D01*
X139120432Y-84468041D01*
X139176696Y-84511341D01*
X139200619Y-84578186D01*
X139184604Y-84647353D01*
X139133738Y-84696882D01*
X139074831Y-84711500D01*
X137161866Y-84711500D01*
X137099684Y-84718255D01*
X136963295Y-84769385D01*
X136846739Y-84856739D01*
X136759385Y-84973295D01*
X136708255Y-85109684D01*
X136701500Y-85171866D01*
X136701500Y-87468134D01*
X136708255Y-87530316D01*
X136759385Y-87666705D01*
X136846739Y-87783261D01*
X136894906Y-87819360D01*
X136917046Y-87835953D01*
X136959560Y-87892813D01*
X136964585Y-87963631D01*
X136948913Y-88002614D01*
X136928421Y-88036054D01*
X136872384Y-88127498D01*
X136870491Y-88132068D01*
X136870489Y-88132072D01*
X136796955Y-88309600D01*
X136775495Y-88361409D01*
X136774340Y-88366221D01*
X136723563Y-88577724D01*
X136716391Y-88607597D01*
X136696526Y-88860000D01*
X136716391Y-89112403D01*
X136717545Y-89117210D01*
X136717546Y-89117216D01*
X136741302Y-89216166D01*
X136775495Y-89358591D01*
X136777388Y-89363162D01*
X136777389Y-89363164D01*
X136870488Y-89587924D01*
X136872384Y-89592502D01*
X137004672Y-89808376D01*
X137169102Y-90000898D01*
X137361624Y-90165328D01*
X137577498Y-90297616D01*
X137582068Y-90299509D01*
X137582072Y-90299511D01*
X137806836Y-90392611D01*
X137811409Y-90394505D01*
X137896032Y-90414821D01*
X138052784Y-90452454D01*
X138052790Y-90452455D01*
X138057597Y-90453609D01*
X138310000Y-90473474D01*
X138562403Y-90453609D01*
X138567210Y-90452455D01*
X138567216Y-90452454D01*
X138723968Y-90414821D01*
X138808591Y-90394505D01*
X138813164Y-90392611D01*
X139037928Y-90299511D01*
X139037932Y-90299509D01*
X139042502Y-90297616D01*
X139258376Y-90165328D01*
X139450898Y-90000898D01*
X139615328Y-89808376D01*
X139747616Y-89592502D01*
X139749511Y-89587928D01*
X139749513Y-89587924D01*
X139779492Y-89515546D01*
X139824040Y-89460264D01*
X139891403Y-89437843D01*
X139960194Y-89455401D01*
X139994097Y-89484811D01*
X140086206Y-89599371D01*
X140086211Y-89599376D01*
X140090071Y-89604177D01*
X140094788Y-89608135D01*
X140094790Y-89608137D01*
X140171937Y-89672871D01*
X140249089Y-89737609D01*
X140254481Y-89740573D01*
X140254485Y-89740576D01*
X140425598Y-89834646D01*
X140430995Y-89837613D01*
X140628861Y-89900379D01*
X140634978Y-89901065D01*
X140634982Y-89901066D01*
X140711598Y-89909659D01*
X140790413Y-89918500D01*
X140902237Y-89918500D01*
X140905293Y-89918200D01*
X140905300Y-89918200D01*
X141050466Y-89903966D01*
X141050469Y-89903965D01*
X141056592Y-89903365D01*
X141215446Y-89855405D01*
X141249407Y-89845152D01*
X141249410Y-89845151D01*
X141255315Y-89843368D01*
X141264467Y-89838502D01*
X141433153Y-89748809D01*
X141433155Y-89748808D01*
X141438599Y-89745913D01*
X141544791Y-89659305D01*
X141594689Y-89618610D01*
X141594692Y-89618607D01*
X141599464Y-89614715D01*
X141617841Y-89592502D01*
X141727855Y-89459518D01*
X141731783Y-89454770D01*
X141734714Y-89449350D01*
X141827584Y-89277590D01*
X141827586Y-89277585D01*
X141830514Y-89272170D01*
X141891898Y-89073871D01*
X141895863Y-89036148D01*
X141912952Y-88873554D01*
X141912952Y-88873552D01*
X141913596Y-88867425D01*
X141903401Y-88755406D01*
X141895341Y-88666836D01*
X141895340Y-88666833D01*
X141894782Y-88660697D01*
X141877738Y-88602784D01*
X141837912Y-88467469D01*
X141836173Y-88461560D01*
X141740001Y-88277600D01*
X141609929Y-88115823D01*
X141597371Y-88105285D01*
X141455629Y-87986350D01*
X141450911Y-87982391D01*
X141445519Y-87979427D01*
X141445515Y-87979424D01*
X141274402Y-87885354D01*
X141269005Y-87882387D01*
X141071139Y-87819621D01*
X141065022Y-87818935D01*
X141065018Y-87818934D01*
X140988402Y-87810341D01*
X140909587Y-87801500D01*
X140797763Y-87801500D01*
X140794707Y-87801800D01*
X140794700Y-87801800D01*
X140649534Y-87816034D01*
X140649531Y-87816035D01*
X140643408Y-87816635D01*
X140511454Y-87856474D01*
X140450593Y-87874848D01*
X140450590Y-87874849D01*
X140444685Y-87876632D01*
X140439240Y-87879527D01*
X140439238Y-87879528D01*
X140266847Y-87971191D01*
X140266845Y-87971192D01*
X140261401Y-87974087D01*
X140201529Y-88022917D01*
X140105311Y-88101390D01*
X140105308Y-88101393D01*
X140100536Y-88105285D01*
X140096608Y-88110033D01*
X140096607Y-88110034D01*
X139992637Y-88235711D01*
X139933803Y-88275449D01*
X139862825Y-88277070D01*
X139802238Y-88240061D01*
X139779144Y-88203613D01*
X139749511Y-88132072D01*
X139749509Y-88132068D01*
X139747616Y-88127498D01*
X139691579Y-88036054D01*
X139671087Y-88002614D01*
X139652549Y-87934080D01*
X139674005Y-87866404D01*
X139702954Y-87835953D01*
X139725094Y-87819360D01*
X139773261Y-87783261D01*
X139860615Y-87666705D01*
X139911745Y-87530316D01*
X139918500Y-87468134D01*
X139918500Y-87190420D01*
X139938502Y-87122299D01*
X139992158Y-87075806D01*
X140062432Y-87065702D01*
X140125491Y-87093898D01*
X140163765Y-87126014D01*
X140249089Y-87197609D01*
X140254481Y-87200573D01*
X140254485Y-87200576D01*
X140298816Y-87224947D01*
X140430995Y-87297613D01*
X140628861Y-87360379D01*
X140634978Y-87361065D01*
X140634982Y-87361066D01*
X140711598Y-87369659D01*
X140790413Y-87378500D01*
X140902237Y-87378500D01*
X140905293Y-87378200D01*
X140905300Y-87378200D01*
X141050466Y-87363966D01*
X141050469Y-87363965D01*
X141056592Y-87363365D01*
X141195265Y-87321498D01*
X141249407Y-87305152D01*
X141249410Y-87305151D01*
X141255315Y-87303368D01*
X141262635Y-87299476D01*
X141433153Y-87208809D01*
X141433155Y-87208808D01*
X141438599Y-87205913D01*
X141512317Y-87145790D01*
X141594689Y-87078610D01*
X141594692Y-87078607D01*
X141599464Y-87074715D01*
X141606230Y-87066537D01*
X141727855Y-86919518D01*
X141731783Y-86914770D01*
X141738472Y-86902400D01*
X141830514Y-86732170D01*
X141831738Y-86732832D01*
X141872122Y-86683249D01*
X141939601Y-86661180D01*
X142008300Y-86679096D01*
X142026689Y-86692538D01*
X142354010Y-86980642D01*
X142368540Y-86995755D01*
X142378130Y-87007555D01*
X142378137Y-87007562D01*
X142381204Y-87011336D01*
X142390517Y-87019734D01*
X142394584Y-87022395D01*
X142418274Y-87037895D01*
X142430210Y-87046752D01*
X142449781Y-87063150D01*
X142508097Y-87107384D01*
X142521570Y-87116609D01*
X142522441Y-87117206D01*
X142536480Y-87128367D01*
X142555451Y-87145790D01*
X142559496Y-87148489D01*
X142561082Y-87149547D01*
X142565882Y-87152750D01*
X142591210Y-87164488D01*
X142606857Y-87173138D01*
X152001013Y-93275569D01*
X152016451Y-93287386D01*
X152034295Y-93303373D01*
X152042397Y-93307247D01*
X152047334Y-93310541D01*
X152067974Y-93323788D01*
X152120539Y-93367626D01*
X152141077Y-93389379D01*
X152192698Y-93459053D01*
X152207525Y-93485033D01*
X152213725Y-93499714D01*
X152241258Y-93564910D01*
X152249544Y-93593660D01*
X152259681Y-93655859D01*
X152261263Y-93672296D01*
X152261471Y-93679142D01*
X152260468Y-93688064D01*
X152264183Y-93709377D01*
X152265927Y-93719380D01*
X152267685Y-93735655D01*
X152488481Y-98923172D01*
X152898778Y-108562939D01*
X152898104Y-108582369D01*
X152896496Y-108596681D01*
X152895428Y-108606181D01*
X152896969Y-108615020D01*
X152897029Y-108617015D01*
X152898452Y-108645493D01*
X152893716Y-108710524D01*
X152888302Y-108738990D01*
X152887163Y-108742632D01*
X152863300Y-108818915D01*
X152863232Y-108819131D01*
X152851461Y-108845604D01*
X152848203Y-108851118D01*
X152808742Y-108917908D01*
X152791236Y-108940990D01*
X152733129Y-109001622D01*
X152710812Y-109020095D01*
X152640391Y-109065850D01*
X152614439Y-109078738D01*
X152535436Y-109107193D01*
X152507228Y-109113812D01*
X152448484Y-109120612D01*
X152432457Y-109121439D01*
X152424462Y-109121341D01*
X152415592Y-109119960D01*
X152406690Y-109121124D01*
X152406687Y-109121124D01*
X152384070Y-109124082D01*
X152367733Y-109125146D01*
X147996893Y-109125151D01*
X142799327Y-109125158D01*
X142779942Y-109123658D01*
X142765141Y-109121353D01*
X142765138Y-109121353D01*
X142756269Y-109119972D01*
X142747367Y-109121136D01*
X142747365Y-109121136D01*
X142747307Y-109121144D01*
X142747268Y-109121149D01*
X142716829Y-109121420D01*
X142654624Y-109114411D01*
X142627118Y-109108133D01*
X142549926Y-109081123D01*
X142524504Y-109068880D01*
X142455257Y-109025369D01*
X142433198Y-109007778D01*
X142375369Y-108949950D01*
X142357776Y-108927889D01*
X142314267Y-108858644D01*
X142302026Y-108833225D01*
X142275015Y-108756034D01*
X142268736Y-108728528D01*
X142262467Y-108672897D01*
X142261684Y-108657249D01*
X142261793Y-108648294D01*
X142263175Y-108639419D01*
X142259053Y-108607900D01*
X142257989Y-108591561D01*
X142257998Y-96435554D01*
X142258000Y-96434784D01*
X142258419Y-96366168D01*
X142258474Y-96357194D01*
X142256008Y-96348565D01*
X142256007Y-96348560D01*
X142250359Y-96328798D01*
X142246781Y-96312037D01*
X142243867Y-96291690D01*
X142243865Y-96291683D01*
X142242593Y-96282801D01*
X142238877Y-96274628D01*
X142237485Y-96269868D01*
X142237561Y-96198871D01*
X142276009Y-96139186D01*
X142340622Y-96109763D01*
X142358419Y-96108500D01*
X145269012Y-96108500D01*
X145337133Y-96128502D01*
X145383626Y-96182158D01*
X145393730Y-96252432D01*
X145364236Y-96317012D01*
X145341912Y-96337270D01*
X145227275Y-96418588D01*
X145222389Y-96422054D01*
X145076119Y-96574850D01*
X144961380Y-96752548D01*
X144882314Y-96948737D01*
X144841772Y-97156337D01*
X144841500Y-97161899D01*
X144841500Y-97867846D01*
X144856548Y-98025566D01*
X144916092Y-98228534D01*
X144918836Y-98233861D01*
X144918836Y-98233862D01*
X144966491Y-98326389D01*
X145012942Y-98416580D01*
X145143604Y-98582920D01*
X145148135Y-98586852D01*
X145148138Y-98586855D01*
X145234058Y-98661412D01*
X145303363Y-98721552D01*
X145308549Y-98724552D01*
X145308553Y-98724555D01*
X145404957Y-98780326D01*
X145486454Y-98827473D01*
X145686271Y-98896861D01*
X145692206Y-98897722D01*
X145692208Y-98897722D01*
X145889664Y-98926352D01*
X145889667Y-98926352D01*
X145895604Y-98927213D01*
X146106899Y-98917433D01*
X146238077Y-98885819D01*
X146306701Y-98869281D01*
X146306703Y-98869280D01*
X146312534Y-98867875D01*
X146317992Y-98865393D01*
X146317996Y-98865392D01*
X146433041Y-98813084D01*
X146505087Y-98780326D01*
X146677611Y-98657946D01*
X146681753Y-98653619D01*
X146681759Y-98653614D01*
X146768806Y-98562683D01*
X146830361Y-98527306D01*
X146901270Y-98530825D01*
X146959021Y-98572121D01*
X146966965Y-98583504D01*
X147001522Y-98639348D01*
X147126697Y-98764305D01*
X147132927Y-98768145D01*
X147132928Y-98768146D01*
X147270090Y-98852694D01*
X147277262Y-98857115D01*
X147302217Y-98865392D01*
X147438611Y-98910632D01*
X147438613Y-98910632D01*
X147445139Y-98912797D01*
X147451975Y-98913497D01*
X147451978Y-98913498D01*
X147490386Y-98917433D01*
X147549600Y-98923500D01*
X148350400Y-98923500D01*
X148353646Y-98923163D01*
X148353650Y-98923163D01*
X148449308Y-98913238D01*
X148449312Y-98913237D01*
X148456166Y-98912526D01*
X148462702Y-98910345D01*
X148462704Y-98910345D01*
X148597443Y-98865392D01*
X148623946Y-98856550D01*
X148774348Y-98763478D01*
X148899305Y-98638303D01*
X148936352Y-98578202D01*
X148988275Y-98493968D01*
X148988276Y-98493966D01*
X148992115Y-98487738D01*
X149047797Y-98319861D01*
X149058500Y-98215400D01*
X149058500Y-96864600D01*
X149047526Y-96758834D01*
X149043749Y-96747511D01*
X148993868Y-96598002D01*
X148991550Y-96591054D01*
X148898478Y-96440652D01*
X148773303Y-96315695D01*
X148734360Y-96291690D01*
X148628968Y-96226725D01*
X148628966Y-96226724D01*
X148622738Y-96222885D01*
X148508837Y-96185106D01*
X148461389Y-96169368D01*
X148461387Y-96169368D01*
X148454861Y-96167203D01*
X148448025Y-96166503D01*
X148448022Y-96166502D01*
X148404969Y-96162091D01*
X148350400Y-96156500D01*
X147731371Y-96156500D01*
X147663250Y-96136498D01*
X147642276Y-96119595D01*
X146383770Y-94861089D01*
X146371384Y-94846677D01*
X146362851Y-94835082D01*
X146362846Y-94835077D01*
X146358508Y-94829182D01*
X146352930Y-94824443D01*
X146352927Y-94824440D01*
X146318232Y-94794965D01*
X146310716Y-94788035D01*
X146305021Y-94782340D01*
X146298880Y-94777482D01*
X146282749Y-94764719D01*
X146279345Y-94761928D01*
X146229297Y-94719409D01*
X146229295Y-94719408D01*
X146223715Y-94714667D01*
X146217199Y-94711339D01*
X146212150Y-94707972D01*
X146207021Y-94704805D01*
X146201284Y-94700266D01*
X146135125Y-94669345D01*
X146131225Y-94667439D01*
X146121498Y-94662472D01*
X146066192Y-94634231D01*
X146059084Y-94632492D01*
X146053441Y-94630393D01*
X146047678Y-94628476D01*
X146041050Y-94625378D01*
X145969583Y-94610513D01*
X145965299Y-94609543D01*
X145894390Y-94592192D01*
X145888788Y-94591844D01*
X145888785Y-94591844D01*
X145883236Y-94591500D01*
X145883238Y-94591464D01*
X145879245Y-94591225D01*
X145875053Y-94590851D01*
X145867885Y-94589360D01*
X145801675Y-94591151D01*
X145790479Y-94591454D01*
X145787072Y-94591500D01*
X139246371Y-94591500D01*
X139178250Y-94571498D01*
X139157276Y-94554595D01*
X132213770Y-87611089D01*
X132201384Y-87596677D01*
X132192851Y-87585082D01*
X132192846Y-87585077D01*
X132188508Y-87579182D01*
X132182930Y-87574443D01*
X132182927Y-87574440D01*
X132148232Y-87544965D01*
X132140716Y-87538035D01*
X132135021Y-87532340D01*
X132120493Y-87520846D01*
X132112749Y-87514719D01*
X132109345Y-87511928D01*
X132059297Y-87469409D01*
X132059295Y-87469408D01*
X132053715Y-87464667D01*
X132047199Y-87461339D01*
X132042150Y-87457972D01*
X132037021Y-87454805D01*
X132031284Y-87450266D01*
X131965125Y-87419345D01*
X131961225Y-87417439D01*
X131896192Y-87384231D01*
X131889084Y-87382492D01*
X131883441Y-87380393D01*
X131877678Y-87378476D01*
X131871050Y-87375378D01*
X131799583Y-87360513D01*
X131795299Y-87359543D01*
X131761011Y-87351153D01*
X131724390Y-87342192D01*
X131718788Y-87341844D01*
X131718785Y-87341844D01*
X131713236Y-87341500D01*
X131713238Y-87341464D01*
X131709245Y-87341225D01*
X131705053Y-87340851D01*
X131697885Y-87339360D01*
X131631675Y-87341151D01*
X131620479Y-87341454D01*
X131617072Y-87341500D01*
X129675178Y-87341500D01*
X129607057Y-87321498D01*
X129560564Y-87267842D01*
X129550460Y-87197568D01*
X129579954Y-87132988D01*
X129587651Y-87124863D01*
X129604855Y-87108249D01*
X129688752Y-87027231D01*
X129861688Y-86805882D01*
X129863884Y-86802078D01*
X129863889Y-86802071D01*
X129999935Y-86566431D01*
X130002136Y-86562619D01*
X130107362Y-86302176D01*
X130109031Y-86295482D01*
X130174253Y-86033893D01*
X130174254Y-86033888D01*
X130175317Y-86029624D01*
X130179734Y-85987603D01*
X130204219Y-85754636D01*
X130204219Y-85754633D01*
X130204678Y-85750267D01*
X130203804Y-85725230D01*
X130195029Y-85473939D01*
X130195028Y-85473933D01*
X130194875Y-85469542D01*
X130189312Y-85437989D01*
X130146860Y-85197236D01*
X130146098Y-85192913D01*
X130059297Y-84925765D01*
X129936160Y-84673298D01*
X129933705Y-84669659D01*
X129933702Y-84669653D01*
X129826919Y-84511341D01*
X129779085Y-84440424D01*
X129591129Y-84231678D01*
X129375950Y-84051121D01*
X129137736Y-83902269D01*
X128881125Y-83788018D01*
X128611110Y-83710593D01*
X128606760Y-83709982D01*
X128606757Y-83709981D01*
X128503810Y-83695513D01*
X128332948Y-83671500D01*
X128122354Y-83671500D01*
X128120168Y-83671653D01*
X128120164Y-83671653D01*
X127916673Y-83685882D01*
X127916668Y-83685883D01*
X127912288Y-83686189D01*
X127637530Y-83744591D01*
X127633401Y-83746094D01*
X127633397Y-83746095D01*
X127377719Y-83839154D01*
X127377715Y-83839156D01*
X127373574Y-83840663D01*
X127125558Y-83972536D01*
X127121999Y-83975122D01*
X127121997Y-83975123D01*
X127012704Y-84054529D01*
X126898308Y-84137642D01*
X126696248Y-84332769D01*
X126523312Y-84554118D01*
X126521116Y-84557922D01*
X126521111Y-84557929D01*
X126434077Y-84708677D01*
X126382864Y-84797381D01*
X126277638Y-85057824D01*
X126276573Y-85062097D01*
X126276572Y-85062099D01*
X126226592Y-85262559D01*
X126209683Y-85330376D01*
X126209224Y-85334744D01*
X126209223Y-85334749D01*
X126180959Y-85603671D01*
X126180322Y-85609733D01*
X126180475Y-85614121D01*
X126180475Y-85614127D01*
X126189257Y-85865593D01*
X126190125Y-85890458D01*
X126190887Y-85894781D01*
X126190888Y-85894788D01*
X126214664Y-86029624D01*
X126238902Y-86167087D01*
X126325703Y-86434235D01*
X126327631Y-86438188D01*
X126327633Y-86438193D01*
X126346074Y-86476002D01*
X126448840Y-86686702D01*
X126451295Y-86690341D01*
X126451298Y-86690347D01*
X126460127Y-86703436D01*
X126605915Y-86919576D01*
X126793871Y-87128322D01*
X126797233Y-87131143D01*
X126797234Y-87131144D01*
X126817905Y-87148489D01*
X127009050Y-87308879D01*
X127247264Y-87457731D01*
X127503875Y-87571982D01*
X127567026Y-87590090D01*
X127698213Y-87627707D01*
X127773890Y-87649407D01*
X127778240Y-87650018D01*
X127778243Y-87650019D01*
X127881190Y-87664487D01*
X128052052Y-87688500D01*
X128262646Y-87688500D01*
X128264829Y-87688347D01*
X128264839Y-87688347D01*
X128320170Y-87684478D01*
X128389520Y-87699680D01*
X128439642Y-87749962D01*
X128454622Y-87819360D01*
X128429706Y-87885841D01*
X128418053Y-87899266D01*
X127603820Y-88713499D01*
X127541508Y-88747525D01*
X127503747Y-88749925D01*
X127352500Y-88736693D01*
X127133129Y-88755885D01*
X126920424Y-88812880D01*
X126829947Y-88855070D01*
X126725834Y-88903618D01*
X126725829Y-88903621D01*
X126720847Y-88905944D01*
X126716340Y-88909100D01*
X126716338Y-88909101D01*
X126544973Y-89029092D01*
X126544970Y-89029094D01*
X126540462Y-89032251D01*
X126384751Y-89187962D01*
X126381594Y-89192470D01*
X126381592Y-89192473D01*
X126265275Y-89358591D01*
X126258444Y-89368347D01*
X126256121Y-89373329D01*
X126256118Y-89373334D01*
X126208915Y-89474562D01*
X126165380Y-89567924D01*
X126108385Y-89780629D01*
X126089193Y-90000000D01*
X126102425Y-90151245D01*
X126088436Y-90220848D01*
X126065999Y-90251320D01*
X125741889Y-90575430D01*
X125679577Y-90609456D01*
X125608762Y-90604391D01*
X125551926Y-90561844D01*
X125527115Y-90495324D01*
X125536813Y-90442741D01*
X125534943Y-90442060D01*
X125540572Y-90426595D01*
X125594696Y-90224599D01*
X125596599Y-90213804D01*
X125614826Y-90005475D01*
X125614826Y-89994525D01*
X125596599Y-89786196D01*
X125594696Y-89775401D01*
X125540572Y-89573405D01*
X125536826Y-89563113D01*
X125448446Y-89373583D01*
X125442966Y-89364093D01*
X125414089Y-89322851D01*
X125403614Y-89314477D01*
X125390167Y-89321545D01*
X124441595Y-90270116D01*
X124379283Y-90304141D01*
X124308467Y-90299076D01*
X124263405Y-90270116D01*
X123314111Y-89320822D01*
X123302338Y-89314394D01*
X123290324Y-89323689D01*
X123262034Y-89364093D01*
X123256554Y-89373583D01*
X123168174Y-89563113D01*
X123164428Y-89573405D01*
X123110304Y-89775401D01*
X123108401Y-89786196D01*
X123090174Y-89994525D01*
X123090174Y-90005475D01*
X123108401Y-90213804D01*
X123110304Y-90224599D01*
X123164428Y-90426595D01*
X123168174Y-90436887D01*
X123256554Y-90626416D01*
X123260063Y-90632493D01*
X123276806Y-90701487D01*
X123253589Y-90768581D01*
X123197785Y-90812471D01*
X123150948Y-90821500D01*
X122554633Y-90821500D01*
X122486512Y-90801498D01*
X122440019Y-90747842D01*
X122429915Y-90677568D01*
X122445074Y-90633770D01*
X122446556Y-90631653D01*
X122539620Y-90432076D01*
X122596615Y-90219371D01*
X122615807Y-90000000D01*
X122596615Y-89780629D01*
X122539620Y-89567924D01*
X122496085Y-89474562D01*
X122448882Y-89373334D01*
X122448879Y-89373329D01*
X122446556Y-89368347D01*
X122439725Y-89358591D01*
X122323408Y-89192473D01*
X122323406Y-89192470D01*
X122320249Y-89187962D01*
X122164538Y-89032251D01*
X122045483Y-88948887D01*
X123666977Y-88948887D01*
X123674045Y-88962334D01*
X124339689Y-89627979D01*
X124353632Y-89635592D01*
X124355466Y-89635461D01*
X124362080Y-89631210D01*
X125031680Y-88961609D01*
X125038107Y-88949839D01*
X125028813Y-88937825D01*
X124988412Y-88909536D01*
X124978916Y-88904053D01*
X124789387Y-88815674D01*
X124779095Y-88811928D01*
X124577099Y-88757804D01*
X124566304Y-88755901D01*
X124357975Y-88737674D01*
X124347025Y-88737674D01*
X124138696Y-88755901D01*
X124127901Y-88757804D01*
X123925905Y-88811928D01*
X123915613Y-88815674D01*
X123726083Y-88904054D01*
X123716593Y-88909534D01*
X123675351Y-88938411D01*
X123666977Y-88948887D01*
X122045483Y-88948887D01*
X121984154Y-88905944D01*
X121784576Y-88812880D01*
X121571871Y-88755885D01*
X121352500Y-88736693D01*
X121133129Y-88755885D01*
X120920424Y-88812880D01*
X120829947Y-88855070D01*
X120725834Y-88903618D01*
X120725829Y-88903621D01*
X120720847Y-88905944D01*
X120716340Y-88909100D01*
X120716338Y-88909101D01*
X120544973Y-89029092D01*
X120544970Y-89029094D01*
X120540462Y-89032251D01*
X120384751Y-89187962D01*
X120381594Y-89192471D01*
X120378216Y-89196496D01*
X120319105Y-89235819D01*
X120281698Y-89241500D01*
X118136371Y-89241500D01*
X118068250Y-89221498D01*
X118047276Y-89204595D01*
X117420405Y-88577724D01*
X117386379Y-88515412D01*
X117383500Y-88488629D01*
X117383500Y-88309600D01*
X117383163Y-88306350D01*
X117373238Y-88210692D01*
X117373237Y-88210688D01*
X117372526Y-88203834D01*
X117316550Y-88036054D01*
X117223478Y-87885652D01*
X117098303Y-87760695D01*
X117092069Y-87756852D01*
X117046310Y-87728645D01*
X116998817Y-87675873D01*
X116987395Y-87605801D01*
X117015669Y-87540677D01*
X117034597Y-87522298D01*
X117037856Y-87519738D01*
X117046506Y-87511501D01*
X117177212Y-87360877D01*
X117184147Y-87351153D01*
X117284010Y-87178533D01*
X117288984Y-87167669D01*
X117354407Y-86979273D01*
X117354648Y-86978284D01*
X117353180Y-86967992D01*
X117339615Y-86964000D01*
X116991104Y-86964000D01*
X116922983Y-86943998D01*
X116876490Y-86890342D01*
X116865794Y-86824829D01*
X116867786Y-86805882D01*
X116877863Y-86710002D01*
X116865794Y-86595170D01*
X116878566Y-86525332D01*
X116927068Y-86473485D01*
X116991104Y-86456000D01*
X117335402Y-86456000D01*
X117348933Y-86452027D01*
X117350288Y-86442601D01*
X117328806Y-86353463D01*
X117324917Y-86342168D01*
X117242371Y-86160618D01*
X117236424Y-86150276D01*
X117121032Y-85987603D01*
X117113239Y-85978575D01*
X116969169Y-85840658D01*
X116959804Y-85833262D01*
X116792259Y-85725079D01*
X116781655Y-85719583D01*
X116596688Y-85645039D01*
X116585230Y-85641645D01*
X116421818Y-85609733D01*
X121480322Y-85609733D01*
X121480475Y-85614121D01*
X121480475Y-85614127D01*
X121489257Y-85865593D01*
X121490125Y-85890458D01*
X121490887Y-85894781D01*
X121490888Y-85894788D01*
X121514664Y-86029624D01*
X121538902Y-86167087D01*
X121625703Y-86434235D01*
X121627631Y-86438188D01*
X121627633Y-86438193D01*
X121646074Y-86476002D01*
X121748840Y-86686702D01*
X121751295Y-86690341D01*
X121751298Y-86690347D01*
X121760127Y-86703436D01*
X121905915Y-86919576D01*
X122093871Y-87128322D01*
X122097233Y-87131143D01*
X122097234Y-87131144D01*
X122117905Y-87148489D01*
X122309050Y-87308879D01*
X122547264Y-87457731D01*
X122803875Y-87571982D01*
X122867026Y-87590090D01*
X122998213Y-87627707D01*
X123073890Y-87649407D01*
X123078240Y-87650018D01*
X123078243Y-87650019D01*
X123181190Y-87664487D01*
X123352052Y-87688500D01*
X123562646Y-87688500D01*
X123564832Y-87688347D01*
X123564836Y-87688347D01*
X123768327Y-87674118D01*
X123768332Y-87674117D01*
X123772712Y-87673811D01*
X124047470Y-87615409D01*
X124051599Y-87613906D01*
X124051603Y-87613905D01*
X124307281Y-87520846D01*
X124307285Y-87520844D01*
X124311426Y-87519337D01*
X124559442Y-87387464D01*
X124563892Y-87384231D01*
X124783129Y-87224947D01*
X124783132Y-87224944D01*
X124786692Y-87222358D01*
X124800723Y-87208809D01*
X124904855Y-87108249D01*
X124988752Y-87027231D01*
X125161688Y-86805882D01*
X125163884Y-86802078D01*
X125163889Y-86802071D01*
X125299935Y-86566431D01*
X125302136Y-86562619D01*
X125407362Y-86302176D01*
X125409031Y-86295482D01*
X125474253Y-86033893D01*
X125474254Y-86033888D01*
X125475317Y-86029624D01*
X125479734Y-85987603D01*
X125504219Y-85754636D01*
X125504219Y-85754633D01*
X125504678Y-85750267D01*
X125503804Y-85725230D01*
X125495029Y-85473939D01*
X125495028Y-85473933D01*
X125494875Y-85469542D01*
X125489312Y-85437989D01*
X125446860Y-85197236D01*
X125446098Y-85192913D01*
X125359297Y-84925765D01*
X125236160Y-84673298D01*
X125233705Y-84669659D01*
X125233702Y-84669653D01*
X125126919Y-84511341D01*
X125079085Y-84440424D01*
X124891129Y-84231678D01*
X124675950Y-84051121D01*
X124437736Y-83902269D01*
X124181125Y-83788018D01*
X123911110Y-83710593D01*
X123906760Y-83709982D01*
X123906757Y-83709981D01*
X123803810Y-83695513D01*
X123632948Y-83671500D01*
X123422354Y-83671500D01*
X123420168Y-83671653D01*
X123420164Y-83671653D01*
X123216673Y-83685882D01*
X123216668Y-83685883D01*
X123212288Y-83686189D01*
X122937530Y-83744591D01*
X122933401Y-83746094D01*
X122933397Y-83746095D01*
X122677719Y-83839154D01*
X122677715Y-83839156D01*
X122673574Y-83840663D01*
X122425558Y-83972536D01*
X122421999Y-83975122D01*
X122421997Y-83975123D01*
X122312704Y-84054529D01*
X122198308Y-84137642D01*
X121996248Y-84332769D01*
X121823312Y-84554118D01*
X121821116Y-84557922D01*
X121821111Y-84557929D01*
X121734077Y-84708677D01*
X121682864Y-84797381D01*
X121577638Y-85057824D01*
X121576573Y-85062097D01*
X121576572Y-85062099D01*
X121526592Y-85262559D01*
X121509683Y-85330376D01*
X121509224Y-85334744D01*
X121509223Y-85334749D01*
X121480959Y-85603671D01*
X121480322Y-85609733D01*
X116421818Y-85609733D01*
X116388072Y-85603143D01*
X116379209Y-85602066D01*
X116376500Y-85602000D01*
X116272115Y-85602000D01*
X116256876Y-85606475D01*
X116255671Y-85607865D01*
X116254000Y-85615548D01*
X116254000Y-85707793D01*
X116233998Y-85775914D01*
X116180342Y-85822407D01*
X116110068Y-85832511D01*
X116101803Y-85831040D01*
X116089263Y-85828374D01*
X116089259Y-85828374D01*
X116082806Y-85827002D01*
X115897192Y-85827002D01*
X115890740Y-85828373D01*
X115885167Y-85828959D01*
X115815329Y-85816185D01*
X115763484Y-85767682D01*
X115746000Y-85703649D01*
X115746000Y-85620115D01*
X115741525Y-85604876D01*
X115740135Y-85603671D01*
X115732452Y-85602000D01*
X115675168Y-85602000D01*
X115669192Y-85602285D01*
X115520506Y-85616471D01*
X115508772Y-85618730D01*
X115317401Y-85674872D01*
X115306325Y-85679302D01*
X115129022Y-85770619D01*
X115118976Y-85777069D01*
X114962143Y-85900262D01*
X114953494Y-85908499D01*
X114822788Y-86059123D01*
X114815853Y-86068847D01*
X114715990Y-86241467D01*
X114711016Y-86252331D01*
X114645593Y-86440727D01*
X114645352Y-86441716D01*
X114646820Y-86452008D01*
X114660385Y-86456000D01*
X114988894Y-86456000D01*
X115057015Y-86476002D01*
X115103508Y-86529658D01*
X115114204Y-86595170D01*
X115102135Y-86710002D01*
X115112213Y-86805882D01*
X115114204Y-86824829D01*
X115101432Y-86894668D01*
X115052930Y-86946514D01*
X114988894Y-86964000D01*
X114664598Y-86964000D01*
X114651067Y-86967973D01*
X114649712Y-86977399D01*
X114671194Y-87066537D01*
X114675083Y-87077832D01*
X114757629Y-87259382D01*
X114763576Y-87269724D01*
X114878968Y-87432397D01*
X114886761Y-87441425D01*
X114977757Y-87528535D01*
X115013133Y-87590090D01*
X115009614Y-87661000D01*
X114968317Y-87718750D01*
X114956947Y-87726685D01*
X114900652Y-87761522D01*
X114775695Y-87886697D01*
X114771855Y-87892927D01*
X114771854Y-87892928D01*
X114746488Y-87934080D01*
X114682885Y-88037262D01*
X114627203Y-88205139D01*
X114626503Y-88211975D01*
X114626502Y-88211978D01*
X114623625Y-88240061D01*
X114616500Y-88309600D01*
X114616500Y-89110400D01*
X114616837Y-89113646D01*
X114616837Y-89113650D01*
X114625016Y-89192473D01*
X114627474Y-89216166D01*
X114629655Y-89222702D01*
X114629655Y-89222704D01*
X114660273Y-89314477D01*
X114683450Y-89383946D01*
X114776522Y-89534348D01*
X114901697Y-89659305D01*
X114907927Y-89663145D01*
X114907928Y-89663146D01*
X115042201Y-89745913D01*
X115052262Y-89752115D01*
X115122220Y-89775319D01*
X115213611Y-89805632D01*
X115213613Y-89805632D01*
X115220139Y-89807797D01*
X115226975Y-89808497D01*
X115226978Y-89808498D01*
X115270031Y-89812909D01*
X115324600Y-89818500D01*
X116463629Y-89818500D01*
X116531750Y-89838502D01*
X116552724Y-89855405D01*
X117186230Y-90488911D01*
X117198616Y-90503323D01*
X117207149Y-90514918D01*
X117207154Y-90514923D01*
X117211492Y-90520818D01*
X117217070Y-90525557D01*
X117217073Y-90525560D01*
X117251768Y-90555035D01*
X117259284Y-90561965D01*
X117264979Y-90567660D01*
X117267861Y-90569940D01*
X117287251Y-90585281D01*
X117290656Y-90588072D01*
X117304079Y-90599476D01*
X117343042Y-90658825D01*
X117343734Y-90729819D01*
X117305934Y-90789916D01*
X117241644Y-90820037D01*
X117222498Y-90821500D01*
X111827069Y-90821500D01*
X111808121Y-90820067D01*
X111800780Y-90818950D01*
X111793883Y-90817901D01*
X111793881Y-90817901D01*
X111786651Y-90816801D01*
X111779359Y-90817394D01*
X111779356Y-90817394D01*
X111733982Y-90821085D01*
X111723767Y-90821500D01*
X111715707Y-90821500D01*
X111705088Y-90822738D01*
X111687493Y-90824789D01*
X111683118Y-90825222D01*
X111617661Y-90830546D01*
X111617658Y-90830547D01*
X111610363Y-90831140D01*
X111603399Y-90833396D01*
X111597440Y-90834587D01*
X111591585Y-90835971D01*
X111584319Y-90836818D01*
X111515673Y-90861735D01*
X111511545Y-90863152D01*
X111449064Y-90883393D01*
X111449062Y-90883394D01*
X111442101Y-90885649D01*
X111435846Y-90889445D01*
X111430372Y-90891951D01*
X111424942Y-90894670D01*
X111418063Y-90897167D01*
X111357016Y-90937191D01*
X111353327Y-90939518D01*
X111333135Y-90951771D01*
X111295693Y-90974491D01*
X111295688Y-90974495D01*
X111290892Y-90977405D01*
X111282516Y-90984803D01*
X111282493Y-90984777D01*
X111279503Y-90987426D01*
X111276264Y-90990134D01*
X111270148Y-90994144D01*
X111265121Y-90999451D01*
X111265117Y-90999454D01*
X111216872Y-91050383D01*
X111214494Y-91052825D01*
X106147724Y-96119595D01*
X106085412Y-96153621D01*
X106058629Y-96156500D01*
X105439600Y-96156500D01*
X105436354Y-96156837D01*
X105436350Y-96156837D01*
X105340692Y-96166762D01*
X105340688Y-96166763D01*
X105333834Y-96167474D01*
X105327298Y-96169655D01*
X105327296Y-96169655D01*
X105239726Y-96198871D01*
X105166054Y-96223450D01*
X105015652Y-96316522D01*
X104890695Y-96441697D01*
X104886855Y-96447927D01*
X104886854Y-96447928D01*
X104858926Y-96493236D01*
X104806154Y-96540729D01*
X104736082Y-96552153D01*
X104670958Y-96523879D01*
X104652582Y-96504955D01*
X104646396Y-96497080D01*
X104641865Y-96493148D01*
X104641862Y-96493145D01*
X104491167Y-96362379D01*
X104486637Y-96358448D01*
X104481451Y-96355448D01*
X104481447Y-96355445D01*
X104308742Y-96255533D01*
X104303546Y-96252527D01*
X104103729Y-96183139D01*
X104097794Y-96182278D01*
X104097792Y-96182278D01*
X103900336Y-96153648D01*
X103900333Y-96153648D01*
X103894396Y-96152787D01*
X103683101Y-96162567D01*
X103551923Y-96194181D01*
X103483299Y-96210719D01*
X103483297Y-96210720D01*
X103477466Y-96212125D01*
X103472008Y-96214607D01*
X103472004Y-96214608D01*
X103356959Y-96266916D01*
X103284913Y-96299674D01*
X103112389Y-96422054D01*
X102966119Y-96574850D01*
X102851380Y-96752548D01*
X102772314Y-96948737D01*
X102731772Y-97156337D01*
X102731500Y-97161899D01*
X102731500Y-97867846D01*
X102746548Y-98025566D01*
X102806092Y-98228534D01*
X102808836Y-98233861D01*
X102808836Y-98233862D01*
X102856491Y-98326389D01*
X102902942Y-98416580D01*
X103033604Y-98582920D01*
X103038135Y-98586852D01*
X103038138Y-98586855D01*
X103124058Y-98661412D01*
X103193363Y-98721552D01*
X103198549Y-98724552D01*
X103198553Y-98724555D01*
X103294957Y-98780326D01*
X103376454Y-98827473D01*
X103576271Y-98896861D01*
X103582206Y-98897722D01*
X103582208Y-98897722D01*
X103779664Y-98926352D01*
X103779667Y-98926352D01*
X103785604Y-98927213D01*
X103996899Y-98917433D01*
X104128077Y-98885819D01*
X104196701Y-98869281D01*
X104196703Y-98869280D01*
X104202534Y-98867875D01*
X104207992Y-98865393D01*
X104207996Y-98865392D01*
X104323041Y-98813084D01*
X104395087Y-98780326D01*
X104567611Y-98657946D01*
X104571753Y-98653619D01*
X104571759Y-98653614D01*
X104658806Y-98562683D01*
X104720361Y-98527306D01*
X104791270Y-98530825D01*
X104849021Y-98572121D01*
X104856965Y-98583504D01*
X104891522Y-98639348D01*
X105016697Y-98764305D01*
X105022927Y-98768145D01*
X105022928Y-98768146D01*
X105160090Y-98852694D01*
X105167262Y-98857115D01*
X105192217Y-98865392D01*
X105328611Y-98910632D01*
X105328613Y-98910632D01*
X105335139Y-98912797D01*
X105341975Y-98913497D01*
X105341978Y-98913498D01*
X105380386Y-98917433D01*
X105439600Y-98923500D01*
X106240400Y-98923500D01*
X106243646Y-98923163D01*
X106243650Y-98923163D01*
X106339308Y-98913238D01*
X106339312Y-98913237D01*
X106346166Y-98912526D01*
X106352702Y-98910345D01*
X106352704Y-98910345D01*
X106487443Y-98865392D01*
X106513946Y-98856550D01*
X106664348Y-98763478D01*
X106789305Y-98638303D01*
X106826352Y-98578202D01*
X106878275Y-98493968D01*
X106878276Y-98493966D01*
X106882115Y-98487738D01*
X106937797Y-98319861D01*
X106948500Y-98215400D01*
X106948500Y-97516371D01*
X106968502Y-97448250D01*
X106985405Y-97427276D01*
X107216405Y-97196276D01*
X107278717Y-97162250D01*
X107349532Y-97167315D01*
X107406368Y-97209862D01*
X107431179Y-97276382D01*
X107431500Y-97285371D01*
X107431500Y-105093629D01*
X107411498Y-105161750D01*
X107394595Y-105182724D01*
X105419607Y-107157712D01*
X105357295Y-107191738D01*
X105302753Y-107189017D01*
X105302288Y-107191206D01*
X105121944Y-107152872D01*
X105121939Y-107152872D01*
X105115487Y-107151500D01*
X104924513Y-107151500D01*
X104918061Y-107152872D01*
X104918056Y-107152872D01*
X104831112Y-107171353D01*
X104737712Y-107191206D01*
X104731682Y-107193891D01*
X104731681Y-107193891D01*
X104569278Y-107266197D01*
X104569276Y-107266198D01*
X104563248Y-107268882D01*
X104408747Y-107381134D01*
X104280960Y-107523056D01*
X104185473Y-107688444D01*
X104126458Y-107870072D01*
X104106496Y-108060000D01*
X104126458Y-108249928D01*
X104185473Y-108431556D01*
X104280960Y-108596944D01*
X104285378Y-108601851D01*
X104285379Y-108601852D01*
X104376286Y-108702814D01*
X104408747Y-108738866D01*
X104461025Y-108776848D01*
X104557063Y-108846624D01*
X104563248Y-108851118D01*
X104569276Y-108853802D01*
X104569278Y-108853803D01*
X104637210Y-108884048D01*
X104691306Y-108930028D01*
X104711955Y-108997955D01*
X104692603Y-109066264D01*
X104639392Y-109113265D01*
X104585962Y-109125155D01*
X99340007Y-109125158D01*
X99320622Y-109123658D01*
X99305821Y-109121353D01*
X99305818Y-109121353D01*
X99296949Y-109119972D01*
X99288045Y-109121136D01*
X99286043Y-109121112D01*
X99257541Y-109121322D01*
X99192778Y-109113826D01*
X99164567Y-109107207D01*
X99085560Y-109078750D01*
X99059610Y-109065862D01*
X98989190Y-109020108D01*
X98966868Y-109001631D01*
X98908769Y-108941006D01*
X98891259Y-108917921D01*
X98890503Y-108916642D01*
X98848540Y-108845619D01*
X98836769Y-108819146D01*
X98811698Y-108738998D01*
X98806285Y-108710534D01*
X98801990Y-108651557D01*
X98801846Y-108635511D01*
X98802284Y-108627523D01*
X98804040Y-108618723D01*
X98802680Y-108603215D01*
X98801262Y-108587048D01*
X98800894Y-108570681D01*
X99011252Y-103628399D01*
X99015627Y-103525604D01*
X103572787Y-103525604D01*
X103582567Y-103736899D01*
X103632125Y-103942534D01*
X103634607Y-103947992D01*
X103634608Y-103947996D01*
X103678053Y-104043546D01*
X103719674Y-104135087D01*
X103842054Y-104307611D01*
X103994850Y-104453881D01*
X104172548Y-104568620D01*
X104178114Y-104570863D01*
X104363168Y-104645442D01*
X104363171Y-104645443D01*
X104368737Y-104647686D01*
X104576337Y-104688228D01*
X104581899Y-104688500D01*
X105287846Y-104688500D01*
X105445566Y-104673452D01*
X105648534Y-104613908D01*
X105732111Y-104570863D01*
X105831249Y-104519804D01*
X105831252Y-104519802D01*
X105836580Y-104517058D01*
X106002920Y-104386396D01*
X106006852Y-104381865D01*
X106006855Y-104381862D01*
X106137621Y-104231167D01*
X106141552Y-104226637D01*
X106144552Y-104221451D01*
X106144555Y-104221447D01*
X106244467Y-104048742D01*
X106247473Y-104043546D01*
X106316861Y-103843729D01*
X106347213Y-103634396D01*
X106337433Y-103423101D01*
X106287875Y-103217466D01*
X106244525Y-103122122D01*
X106202806Y-103030368D01*
X106200326Y-103024913D01*
X106077946Y-102852389D01*
X106073619Y-102848247D01*
X106073614Y-102848241D01*
X105982683Y-102761194D01*
X105947306Y-102699639D01*
X105950825Y-102628730D01*
X105992121Y-102570979D01*
X106003504Y-102563035D01*
X106059348Y-102528478D01*
X106184305Y-102403303D01*
X106277115Y-102252738D01*
X106332797Y-102084861D01*
X106343500Y-101980400D01*
X106343500Y-101179600D01*
X106332526Y-101073834D01*
X106276550Y-100906054D01*
X106183478Y-100755652D01*
X106058303Y-100630695D01*
X106052072Y-100626854D01*
X105913968Y-100541725D01*
X105913966Y-100541724D01*
X105907738Y-100537885D01*
X105747254Y-100484655D01*
X105746389Y-100484368D01*
X105746387Y-100484368D01*
X105739861Y-100482203D01*
X105733025Y-100481503D01*
X105733022Y-100481502D01*
X105689969Y-100477091D01*
X105635400Y-100471500D01*
X104284600Y-100471500D01*
X104281354Y-100471837D01*
X104281350Y-100471837D01*
X104185692Y-100481762D01*
X104185688Y-100481763D01*
X104178834Y-100482474D01*
X104172298Y-100484655D01*
X104172296Y-100484655D01*
X104040194Y-100528728D01*
X104011054Y-100538450D01*
X103860652Y-100631522D01*
X103735695Y-100756697D01*
X103642885Y-100907262D01*
X103587203Y-101075139D01*
X103576500Y-101179600D01*
X103576500Y-101980400D01*
X103587474Y-102086166D01*
X103643450Y-102253946D01*
X103736522Y-102404348D01*
X103861697Y-102529305D01*
X103867927Y-102533145D01*
X103867928Y-102533146D01*
X103913236Y-102561074D01*
X103960729Y-102613846D01*
X103972153Y-102683918D01*
X103943879Y-102749042D01*
X103924955Y-102767418D01*
X103917080Y-102773604D01*
X103913148Y-102778135D01*
X103913145Y-102778138D01*
X103844474Y-102857275D01*
X103778448Y-102933363D01*
X103775448Y-102938549D01*
X103775445Y-102938553D01*
X103728312Y-103020026D01*
X103672527Y-103116454D01*
X103603139Y-103316271D01*
X103572787Y-103525604D01*
X99015627Y-103525604D01*
X99431990Y-93743369D01*
X99434311Y-93724079D01*
X99439001Y-93700579D01*
X99438217Y-93691641D01*
X99438539Y-93685767D01*
X99439449Y-93661196D01*
X99450458Y-93593649D01*
X99458744Y-93564897D01*
X99492477Y-93485021D01*
X99507309Y-93459032D01*
X99558924Y-93389366D01*
X99579466Y-93367609D01*
X99627860Y-93327250D01*
X99641215Y-93317523D01*
X99647003Y-93313863D01*
X99655191Y-93310190D01*
X99679382Y-93289560D01*
X99692501Y-93279770D01*
X99693580Y-93279069D01*
X103087672Y-93279069D01*
X103087896Y-93283735D01*
X103087896Y-93283741D01*
X103088839Y-93303373D01*
X103089391Y-93314857D01*
X103100209Y-93540064D01*
X103117435Y-93626666D01*
X103140650Y-93743374D01*
X103151185Y-93796340D01*
X103152764Y-93800738D01*
X103152766Y-93800745D01*
X103200049Y-93932439D01*
X103239481Y-94042265D01*
X103363158Y-94272439D01*
X103519498Y-94481803D01*
X103522805Y-94485081D01*
X103522810Y-94485087D01*
X103701751Y-94662472D01*
X103705067Y-94665759D01*
X103915787Y-94820266D01*
X103919922Y-94822442D01*
X103919926Y-94822444D01*
X103980560Y-94854345D01*
X104147031Y-94941930D01*
X104393718Y-95028077D01*
X104398311Y-95028949D01*
X104645840Y-95075944D01*
X104645843Y-95075944D01*
X104650429Y-95076815D01*
X104774455Y-95081688D01*
X104906855Y-95086890D01*
X104906860Y-95086890D01*
X104911523Y-95087073D01*
X105013143Y-95075944D01*
X105166613Y-95059137D01*
X105166619Y-95059136D01*
X105171266Y-95058627D01*
X105175790Y-95057436D01*
X105419429Y-94993291D01*
X105419431Y-94993290D01*
X105423952Y-94992100D01*
X105428249Y-94990254D01*
X105659734Y-94890800D01*
X105659736Y-94890799D01*
X105664028Y-94888955D01*
X105886222Y-94751457D01*
X105950348Y-94697171D01*
X106082085Y-94585648D01*
X106082087Y-94585646D01*
X106085652Y-94582628D01*
X106257936Y-94386175D01*
X106331094Y-94272439D01*
X106396763Y-94170344D01*
X106399291Y-94166414D01*
X106506610Y-93928175D01*
X106507880Y-93923672D01*
X106576267Y-93681193D01*
X106576268Y-93681190D01*
X106577537Y-93676689D01*
X106589993Y-93578775D01*
X106610114Y-93420613D01*
X106610114Y-93420607D01*
X106610512Y-93417482D01*
X106612928Y-93325217D01*
X106605172Y-93220848D01*
X106593910Y-93069291D01*
X106593909Y-93069287D01*
X106593564Y-93064639D01*
X106582230Y-93014548D01*
X106536927Y-92814343D01*
X106535896Y-92809786D01*
X106534203Y-92805432D01*
X106442886Y-92570609D01*
X106442885Y-92570606D01*
X106441193Y-92566256D01*
X106417536Y-92524864D01*
X106368647Y-92439328D01*
X106311533Y-92339399D01*
X106149766Y-92134199D01*
X105959446Y-91955163D01*
X105757698Y-91815205D01*
X105748595Y-91808890D01*
X105748592Y-91808888D01*
X105744753Y-91806225D01*
X105740563Y-91804159D01*
X105740560Y-91804157D01*
X105514591Y-91692722D01*
X105514588Y-91692721D01*
X105510403Y-91690657D01*
X105261546Y-91610997D01*
X105256939Y-91610247D01*
X105256936Y-91610246D01*
X105008258Y-91569746D01*
X105008259Y-91569746D01*
X105003647Y-91568995D01*
X104876859Y-91567335D01*
X104747051Y-91565636D01*
X104747048Y-91565636D01*
X104742374Y-91565575D01*
X104483464Y-91600811D01*
X104232607Y-91673929D01*
X104228372Y-91675881D01*
X104228365Y-91675884D01*
X104051741Y-91757310D01*
X103995313Y-91783324D01*
X103984784Y-91790227D01*
X103780707Y-91924025D01*
X103780702Y-91924029D01*
X103776794Y-91926591D01*
X103581852Y-92100583D01*
X103414769Y-92301478D01*
X103279216Y-92524864D01*
X103277407Y-92529178D01*
X103277406Y-92529180D01*
X103188787Y-92740513D01*
X103178170Y-92765831D01*
X103177019Y-92770363D01*
X103177018Y-92770366D01*
X103167007Y-92809786D01*
X103113851Y-93019087D01*
X103087672Y-93279069D01*
X99693580Y-93279069D01*
X100023677Y-93064639D01*
X102804071Y-91258500D01*
X109086625Y-87177364D01*
X109105091Y-87167448D01*
X109123507Y-87159454D01*
X109134105Y-87152750D01*
X109159086Y-87130908D01*
X109170821Y-87121812D01*
X109190627Y-87108249D01*
X109190637Y-87108242D01*
X109191894Y-87107381D01*
X109250213Y-87063145D01*
X109263539Y-87051979D01*
X109278071Y-87041468D01*
X109295833Y-87030456D01*
X109299966Y-87027894D01*
X109309480Y-87019725D01*
X109327607Y-86998501D01*
X109340153Y-86985768D01*
X111798976Y-84821556D01*
X111814505Y-84809883D01*
X111834726Y-84796998D01*
X111846350Y-84783717D01*
X111863592Y-84767410D01*
X111875565Y-84758056D01*
X111887700Y-84749672D01*
X111924284Y-84727439D01*
X111937331Y-84720522D01*
X111939572Y-84719497D01*
X111944545Y-84717224D01*
X111969937Y-84708743D01*
X111970240Y-84708677D01*
X111970244Y-84708676D01*
X111979007Y-84706754D01*
X112006906Y-84691500D01*
X112021748Y-84684597D01*
X119278293Y-81867381D01*
X119298411Y-81861444D01*
X119313269Y-81858376D01*
X119313275Y-81858374D01*
X119318036Y-81857391D01*
X119322592Y-81855686D01*
X119322596Y-81855685D01*
X119325225Y-81854701D01*
X119325227Y-81854700D01*
X119329781Y-81852996D01*
X119338968Y-81847826D01*
X119346479Y-81843926D01*
X119351938Y-81841320D01*
X119534018Y-81754406D01*
X119537925Y-81751759D01*
X119537929Y-81751757D01*
X119600353Y-81709469D01*
X119721716Y-81627255D01*
X119888296Y-81473473D01*
X120027051Y-81300216D01*
X120027053Y-81300214D01*
X120027056Y-81300209D01*
X120030014Y-81296516D01*
X120143685Y-81100361D01*
X120217435Y-80913083D01*
X120225023Y-80893813D01*
X120225023Y-80893811D01*
X120226754Y-80889417D01*
X120254812Y-80766875D01*
X120276300Y-80673030D01*
X120276301Y-80673025D01*
X120277354Y-80668425D01*
X120291531Y-80479820D01*
X120292923Y-80468363D01*
X120294384Y-80459681D01*
X120295190Y-80454891D01*
X120295343Y-80442352D01*
X120291392Y-80414764D01*
X120290119Y-80396902D01*
X120290125Y-76813663D01*
X120291625Y-76794277D01*
X120293930Y-76779477D01*
X120293930Y-76779474D01*
X120295311Y-76770605D01*
X120294134Y-76761604D01*
X120293863Y-76731165D01*
X120300872Y-76668959D01*
X120307151Y-76641451D01*
X120334162Y-76564260D01*
X120346403Y-76538842D01*
X120389911Y-76469597D01*
X120407504Y-76447536D01*
X120465334Y-76389706D01*
X120487391Y-76372115D01*
X120556636Y-76328604D01*
X120582058Y-76316361D01*
X120659254Y-76289348D01*
X120686760Y-76283070D01*
X120712410Y-76280179D01*
X120742381Y-76276802D01*
X120758025Y-76276018D01*
X120766991Y-76276127D01*
X120775861Y-76277508D01*
X120784761Y-76276344D01*
X120784763Y-76276344D01*
X120807378Y-76273386D01*
X120823718Y-76272322D01*
X120866248Y-76272322D01*
X120887149Y-76274068D01*
X120906915Y-76277393D01*
X120913270Y-76277471D01*
X120914595Y-76277487D01*
X120914599Y-76277487D01*
X120919454Y-76277546D01*
X120934182Y-76275437D01*
X120943041Y-76274487D01*
X121052492Y-76266658D01*
X121134611Y-76260784D01*
X121253112Y-76235005D01*
X121340982Y-76215890D01*
X121340986Y-76215889D01*
X121345389Y-76214931D01*
X121349608Y-76213357D01*
X121349616Y-76213355D01*
X121543276Y-76141122D01*
X121543280Y-76141120D01*
X121547495Y-76139548D01*
X121736817Y-76036169D01*
X121909499Y-75906900D01*
X122062027Y-75754372D01*
X122191296Y-75581690D01*
X122294675Y-75392368D01*
X122324009Y-75313722D01*
X122368482Y-75194489D01*
X122368484Y-75194481D01*
X122370058Y-75190262D01*
X122379039Y-75148981D01*
X122414953Y-74983886D01*
X122415911Y-74979484D01*
X122423470Y-74873810D01*
X122428411Y-74804730D01*
X122429836Y-74792815D01*
X122430765Y-74787294D01*
X122432520Y-74776866D01*
X122432673Y-74764327D01*
X122428721Y-74736729D01*
X122427449Y-74718868D01*
X122427449Y-70542563D01*
X122429195Y-70521659D01*
X122431713Y-70506690D01*
X122432520Y-70501896D01*
X122432673Y-70489357D01*
X122430564Y-70474629D01*
X122429614Y-70465770D01*
X122421785Y-70356319D01*
X122415911Y-70274200D01*
X122390132Y-70155699D01*
X122371017Y-70067829D01*
X122371014Y-70067818D01*
X122370058Y-70063422D01*
X122368484Y-70059203D01*
X122368482Y-70059195D01*
X122296249Y-69865535D01*
X122296246Y-69865528D01*
X122294675Y-69861316D01*
X122191296Y-69671994D01*
X122062027Y-69499312D01*
X121909499Y-69346784D01*
X121736817Y-69217515D01*
X121547495Y-69114136D01*
X121543280Y-69112564D01*
X121543276Y-69112562D01*
X121349616Y-69040329D01*
X121349608Y-69040327D01*
X121345389Y-69038753D01*
X121340986Y-69037795D01*
X121340982Y-69037794D01*
X121253112Y-69018679D01*
X121134611Y-68992900D01*
X121061540Y-68987673D01*
X120959857Y-68980400D01*
X120947951Y-68978976D01*
X120931993Y-68976291D01*
X120925630Y-68976213D01*
X120924318Y-68976197D01*
X120924313Y-68976197D01*
X120919454Y-68976138D01*
X120904734Y-68978246D01*
X120891856Y-68980090D01*
X120873995Y-68981362D01*
X120831459Y-68981362D01*
X120812072Y-68979862D01*
X120797272Y-68977557D01*
X120797269Y-68977557D01*
X120788401Y-68976176D01*
X120779399Y-68977353D01*
X120748961Y-68977624D01*
X120686754Y-68970614D01*
X120659247Y-68964335D01*
X120582056Y-68937324D01*
X120556637Y-68925083D01*
X120527592Y-68906833D01*
X120487390Y-68881572D01*
X120465332Y-68863982D01*
X120407502Y-68806153D01*
X120389910Y-68784094D01*
X120346398Y-68714845D01*
X120334157Y-68689427D01*
X120307144Y-68612231D01*
X120300866Y-68584725D01*
X120294598Y-68529106D01*
X120293814Y-68513458D01*
X120293923Y-68504497D01*
X120295305Y-68495623D01*
X120291183Y-68464106D01*
X120290119Y-68447765D01*
X120290125Y-67176175D01*
X120291625Y-67156792D01*
X120293930Y-67141991D01*
X120293930Y-67141987D01*
X120295311Y-67133118D01*
X120294134Y-67124117D01*
X120293863Y-67093679D01*
X120300872Y-67031472D01*
X120307151Y-67003964D01*
X120334160Y-66926777D01*
X120346399Y-66901360D01*
X120389917Y-66832102D01*
X120407505Y-66810049D01*
X120465331Y-66752223D01*
X120487383Y-66734636D01*
X120556637Y-66691120D01*
X120582052Y-66678880D01*
X120659249Y-66651867D01*
X120686755Y-66645589D01*
X120701094Y-66643973D01*
X120742377Y-66639321D01*
X120758022Y-66638537D01*
X120766982Y-66638646D01*
X120775856Y-66640028D01*
X120807375Y-66635906D01*
X120823713Y-66634842D01*
X125413351Y-66634844D01*
G37*
%TD.AperFunction*%
%TD*%
M02*
