M48
; DRILL file {KiCad (6.0.0)} date Mon Oct  9 13:49:56 2023
; FORMAT={-:-/ absolute / inch / decimal}
; #@! TF.CreationDate,2023-10-09T13:49:56-07:00
; #@! TF.GenerationSoftware,Kicad,Pcbnew,(6.0.0)
; #@! TF.FileFunction,Plated,1,2,PTH
FMAT,2
INCH
; #@! TA.AperFunction,Plated,PTH,ViaDrill
T1C0.0157
; #@! TA.AperFunction,Plated,PTH,ComponentDrill
T2C0.0295
; #@! TA.AperFunction,Plated,PTH,ComponentDrill
T3C0.0402
; #@! TA.AperFunction,Plated,PTH,ComponentDrill
T4C0.0433
%
G90
G05
T1
X3.9626Y-3.7886
X4.1346Y-4.2543
X5.6409Y-4.1256
T2
X4.0882Y-3.8402
X4.1323Y-3.9992
X4.1323Y-4.078
X4.1669Y-3.8402
X4.5669Y-3.4138
X4.5669Y-3.4925
X5.7461Y-3.8402
X5.7461Y-3.8402
X5.8248Y-3.8402
X5.8248Y-3.8402
T3
X4.7777Y-3.5433
X4.7777Y-3.6614
X4.8958Y-3.5433
X4.8958Y-3.6614
X5.0139Y-3.5433
X5.0139Y-3.6614
X5.132Y-3.5433
X5.132Y-3.6614
T4
X5.4453Y-3.3984
X5.4453Y-3.4984
T0
M30
