%TF.GenerationSoftware,KiCad,Pcbnew,(6.0.0)*%
%TF.CreationDate,2023-10-09T13:50:17-07:00*%
%TF.ProjectId,minisb_bowden,6d696e69-7362-45f6-926f-7764656e2e6b,rev?*%
%TF.SameCoordinates,Original*%
%TF.FileFunction,Copper,L2,Bot*%
%TF.FilePolarity,Positive*%
%FSLAX46Y46*%
G04 Gerber Fmt 4.6, Leading zero omitted, Abs format (unit mm)*
G04 Created by KiCad (PCBNEW (6.0.0)) date 2023-10-09 13:50:17*
%MOMM*%
%LPD*%
G01*
G04 APERTURE LIST*
G04 Aperture macros list*
%AMRoundRect*
0 Rectangle with rounded corners*
0 $1 Rounding radius*
0 $2 $3 $4 $5 $6 $7 $8 $9 X,Y pos of 4 corners*
0 Add a 4 corners polygon primitive as box body*
4,1,4,$2,$3,$4,$5,$6,$7,$8,$9,$2,$3,0*
0 Add four circle primitives for the rounded corners*
1,1,$1+$1,$2,$3*
1,1,$1+$1,$4,$5*
1,1,$1+$1,$6,$7*
1,1,$1+$1,$8,$9*
0 Add four rect primitives between the rounded corners*
20,1,$1+$1,$2,$3,$4,$5,0*
20,1,$1+$1,$4,$5,$6,$7,0*
20,1,$1+$1,$6,$7,$8,$9,0*
20,1,$1+$1,$8,$9,$2,$3,0*%
G04 Aperture macros list end*
%TA.AperFunction,ComponentPad*%
%ADD10RoundRect,0.250000X-0.625000X0.350000X-0.625000X-0.350000X0.625000X-0.350000X0.625000X0.350000X0*%
%TD*%
%TA.AperFunction,ComponentPad*%
%ADD11O,1.750000X1.200000*%
%TD*%
%TA.AperFunction,SMDPad,CuDef*%
%ADD12RoundRect,0.250000X0.250000X0.750000X-0.250000X0.750000X-0.250000X-0.750000X0.250000X-0.750000X0*%
%TD*%
%TA.AperFunction,ComponentPad*%
%ADD13R,2.200000X2.200000*%
%TD*%
%TA.AperFunction,ComponentPad*%
%ADD14C,2.200000*%
%TD*%
%TA.AperFunction,ComponentPad*%
%ADD15RoundRect,0.250000X0.625000X-0.350000X0.625000X0.350000X-0.625000X0.350000X-0.625000X-0.350000X0*%
%TD*%
%TA.AperFunction,ComponentPad*%
%ADD16RoundRect,0.250000X0.500000X0.500000X-0.500000X0.500000X-0.500000X-0.500000X0.500000X-0.500000X0*%
%TD*%
%TA.AperFunction,ComponentPad*%
%ADD17C,1.500000*%
%TD*%
%TA.AperFunction,ComponentPad*%
%ADD18RoundRect,0.250000X0.350000X0.625000X-0.350000X0.625000X-0.350000X-0.625000X0.350000X-0.625000X0*%
%TD*%
%TA.AperFunction,ComponentPad*%
%ADD19O,1.200000X1.750000*%
%TD*%
%TA.AperFunction,ViaPad*%
%ADD20C,0.800000*%
%TD*%
%TA.AperFunction,Conductor*%
%ADD21C,0.500000*%
%TD*%
%TA.AperFunction,Conductor*%
%ADD22C,2.000000*%
%TD*%
G04 APERTURE END LIST*
D10*
%TO.P,HEF,1*%
%TO.N,24v*%
X104960000Y-101580000D03*
D11*
%TO.P,HEF,2*%
%TO.N,HEF*%
X104960000Y-103580000D03*
%TD*%
D12*
%TO.P,G,1*%
%TO.N,GND*%
X148000000Y-108000000D03*
%TD*%
%TO.P,S,1*%
%TO.N,LED*%
X150000000Y-108000000D03*
%TD*%
D13*
%TO.P,HE0,1*%
%TO.N,24v*%
X138310000Y-86320000D03*
D14*
%TO.P,HE0,2*%
%TO.N,HE0*%
X138310000Y-88860000D03*
%TD*%
D12*
%TO.P,G,1*%
%TO.N,GND*%
X99470000Y-107960000D03*
%TD*%
D15*
%TO.P,TH0,1*%
%TO.N,TH0*%
X116000000Y-88710000D03*
D11*
%TO.P,TH0,2*%
%TO.N,GND*%
X116000000Y-86710000D03*
%TD*%
D16*
%TO.P,MCU,1*%
%TO.N,24v*%
X130352500Y-90000000D03*
D17*
%TO.P,MCU,2*%
%TO.N,PCF*%
X127352500Y-90000000D03*
%TO.P,MCU,3*%
%TO.N,GND*%
X124352500Y-90000000D03*
%TO.P,MCU,4*%
%TO.N,TH0*%
X121352500Y-90000000D03*
%TO.P,MCU,5*%
%TO.N,HE0*%
X130352500Y-93000000D03*
%TO.P,MCU,6*%
%TO.N,LED*%
X127352500Y-93000000D03*
%TO.P,MCU,7*%
%TO.N,5v*%
X124352500Y-93000000D03*
%TO.P,MCU,8*%
%TO.N,HEF*%
X121352500Y-93000000D03*
%TD*%
D12*
%TO.P,5v,1*%
%TO.N,5v*%
X103560000Y-108000000D03*
%TD*%
D18*
%TO.P,PCF,1*%
%TO.N,PCF*%
X147950000Y-97540000D03*
X147950000Y-97540000D03*
D19*
%TO.P,PCF,2*%
%TO.N,24v*%
X145950000Y-97540000D03*
X145950000Y-97540000D03*
%TD*%
D12*
%TO.P,5v,1*%
%TO.N,5v*%
X152000000Y-108000000D03*
%TD*%
%TO.P,S,1*%
%TO.N,LED*%
X101570000Y-108000000D03*
%TD*%
D18*
%TO.P,PCF,1*%
%TO.N,PCF*%
X105840000Y-97540000D03*
D19*
%TO.P,PCF,2*%
%TO.N,24v*%
X103840000Y-97540000D03*
%TD*%
D20*
%TO.N,5v*%
X105020000Y-108060000D03*
%TO.N,GND*%
X100650000Y-96230000D03*
X143280000Y-104790000D03*
%TD*%
D21*
%TO.N,GND*%
X99470000Y-107960000D02*
X100650000Y-106780000D01*
X100650000Y-106780000D02*
X100650000Y-96230000D01*
%TO.N,LED*%
X126220000Y-95830000D02*
X127390000Y-94660000D01*
X108939520Y-96820480D02*
X109930000Y-95830000D01*
X108939520Y-103680480D02*
X108939520Y-96820480D01*
X109930000Y-95830000D02*
X126220000Y-95830000D01*
X103110000Y-106010000D02*
X106610000Y-106010000D01*
X101570000Y-108000000D02*
X101570000Y-107550000D01*
X101570000Y-107550000D02*
X103110000Y-106010000D01*
X106610000Y-106010000D02*
X108939520Y-103680480D01*
%TO.N,5v*%
X104960000Y-108000000D02*
X105020000Y-108060000D01*
X103560000Y-108000000D02*
X104960000Y-108000000D01*
%TO.N,24v*%
X122570000Y-82870000D02*
X131930000Y-82870000D01*
X113460000Y-87630000D02*
X113460000Y-85270000D01*
X103840000Y-97500000D02*
X103840000Y-96090000D01*
X113460000Y-85270000D02*
X114290000Y-84440000D01*
D22*
X130390000Y-90000000D02*
X134070000Y-86320000D01*
D21*
X142950000Y-88650000D02*
X142950000Y-92910000D01*
X139560000Y-87570000D02*
X141870000Y-87570000D01*
D22*
X134070000Y-86320000D02*
X138310000Y-86320000D01*
D21*
X104910000Y-101530000D02*
X104820000Y-101530000D01*
X114290000Y-84440000D02*
X121000000Y-84440000D01*
X145620000Y-95580000D02*
X145620000Y-97540000D01*
X104820000Y-101530000D02*
X103840000Y-100550000D01*
X104960000Y-101580000D02*
X104910000Y-101530000D01*
X141870000Y-87570000D02*
X142950000Y-88650000D01*
X131930000Y-82870000D02*
X135380000Y-86320000D01*
X142950000Y-92910000D02*
X145620000Y-95580000D01*
X138310000Y-86320000D02*
X139560000Y-87570000D01*
X105470000Y-95620000D02*
X113460000Y-87630000D01*
X121000000Y-84440000D02*
X122570000Y-82870000D01*
X103840000Y-100550000D02*
X103840000Y-97500000D01*
X104310000Y-95620000D02*
X105470000Y-95620000D01*
X135380000Y-86320000D02*
X138310000Y-86320000D01*
X103840000Y-96090000D02*
X104310000Y-95620000D01*
%TO.N,5v*%
X128940480Y-93600410D02*
X130070550Y-94730480D01*
X128940480Y-92670480D02*
X128940480Y-93600410D01*
X152000000Y-106670000D02*
X152000000Y-108000000D01*
X143140480Y-94730480D02*
X143790480Y-95380480D01*
X143790480Y-98460480D02*
X152000000Y-106670000D01*
X127670000Y-91400000D02*
X128940480Y-92670480D01*
X124390000Y-93000000D02*
X125990000Y-91400000D01*
X143790480Y-95380480D02*
X143790480Y-98460480D01*
X130070550Y-94730480D02*
X143140480Y-94730480D01*
X125990000Y-91400000D02*
X127670000Y-91400000D01*
%TO.N,HEF*%
X107140000Y-102640000D02*
X106200000Y-103580000D01*
X106200000Y-103580000D02*
X104960000Y-103580000D01*
X121390000Y-93000000D02*
X121380000Y-92990000D01*
X109320000Y-92990000D02*
X107140000Y-95170000D01*
X121380000Y-92990000D02*
X109320000Y-92990000D01*
X107140000Y-95170000D02*
X107140000Y-102640000D01*
D22*
%TO.N,HE0*%
X135590000Y-88860000D02*
X138310000Y-88860000D01*
X131450000Y-93000000D02*
X135590000Y-88860000D01*
X130390000Y-93000000D02*
X131450000Y-93000000D01*
D21*
%TO.N,LED*%
X142610000Y-99690000D02*
X150000000Y-107080000D01*
X142470000Y-95860000D02*
X142610000Y-96000000D01*
X127390000Y-94640000D02*
X128610000Y-95860000D01*
X127390000Y-94660000D02*
X127390000Y-94640000D01*
X127390000Y-94660000D02*
X127352500Y-94622500D01*
X142610000Y-96000000D02*
X142610000Y-99690000D01*
X127352500Y-94622500D02*
X127352500Y-93000000D01*
X128610000Y-95860000D02*
X142470000Y-95860000D01*
X150000000Y-107080000D02*
X150000000Y-108000000D01*
%TO.N,GND*%
X144700000Y-108000000D02*
X148000000Y-108000000D01*
X143270000Y-104800000D02*
X143270000Y-106570000D01*
X143280000Y-104790000D02*
X143270000Y-104800000D01*
X143270000Y-106570000D02*
X144700000Y-108000000D01*
%TD*%
%TA.AperFunction,Conductor*%
%TO.N,GND*%
G36*
X142466508Y-100619642D02*
G01*
X142473090Y-100625771D01*
X148223014Y-106375695D01*
X148257040Y-106438007D01*
X148257040Y-106491572D01*
X148254000Y-106505547D01*
X148254000Y-108128000D01*
X148233998Y-108196121D01*
X148180342Y-108242614D01*
X148128000Y-108254000D01*
X147010116Y-108254000D01*
X146994877Y-108258475D01*
X146993672Y-108259865D01*
X146992001Y-108267548D01*
X146992001Y-108797095D01*
X146992338Y-108803614D01*
X147002257Y-108899206D01*
X147005150Y-108912603D01*
X147020721Y-108959278D01*
X147023305Y-109030228D01*
X146987121Y-109091311D01*
X146923656Y-109123135D01*
X146901199Y-109125153D01*
X142799327Y-109125158D01*
X142779942Y-109123658D01*
X142765141Y-109121353D01*
X142765138Y-109121353D01*
X142756269Y-109119972D01*
X142747367Y-109121136D01*
X142747365Y-109121136D01*
X142747307Y-109121144D01*
X142747268Y-109121149D01*
X142716829Y-109121420D01*
X142654624Y-109114411D01*
X142627118Y-109108133D01*
X142549926Y-109081123D01*
X142524504Y-109068880D01*
X142455257Y-109025369D01*
X142433198Y-109007778D01*
X142375369Y-108949950D01*
X142357776Y-108927889D01*
X142348172Y-108912603D01*
X142329469Y-108882838D01*
X142314267Y-108858644D01*
X142302026Y-108833225D01*
X142275015Y-108756034D01*
X142268736Y-108728528D01*
X142262467Y-108672897D01*
X142261684Y-108657249D01*
X142261793Y-108648294D01*
X142263175Y-108639419D01*
X142259053Y-108607900D01*
X142257989Y-108591561D01*
X142257990Y-107727885D01*
X146992000Y-107727885D01*
X146996475Y-107743124D01*
X146997865Y-107744329D01*
X147005548Y-107746000D01*
X147727885Y-107746000D01*
X147743124Y-107741525D01*
X147744329Y-107740135D01*
X147746000Y-107732452D01*
X147746000Y-106510116D01*
X147741525Y-106494877D01*
X147740135Y-106493672D01*
X147732452Y-106492001D01*
X147702905Y-106492001D01*
X147696386Y-106492338D01*
X147600794Y-106502257D01*
X147587400Y-106505149D01*
X147433216Y-106556588D01*
X147420038Y-106562761D01*
X147282193Y-106648063D01*
X147270792Y-106657099D01*
X147156261Y-106771829D01*
X147147249Y-106783240D01*
X147062184Y-106921243D01*
X147056037Y-106934424D01*
X147004862Y-107088710D01*
X147001995Y-107102086D01*
X146992328Y-107196438D01*
X146992000Y-107202855D01*
X146992000Y-107727885D01*
X142257990Y-107727885D01*
X142257995Y-100714866D01*
X142277997Y-100646745D01*
X142331653Y-100600252D01*
X142401927Y-100590149D01*
X142466508Y-100619642D01*
G37*
%TD.AperFunction*%
%TA.AperFunction,Conductor*%
G36*
X127335358Y-83648502D02*
G01*
X127381851Y-83702158D01*
X127391955Y-83772432D01*
X127362461Y-83837012D01*
X127326392Y-83865750D01*
X127125558Y-83972536D01*
X127121999Y-83975122D01*
X127121997Y-83975123D01*
X126976125Y-84081105D01*
X126898308Y-84137642D01*
X126696248Y-84332769D01*
X126523312Y-84554118D01*
X126521116Y-84557922D01*
X126521111Y-84557929D01*
X126434959Y-84707149D01*
X126382864Y-84797381D01*
X126277638Y-85057824D01*
X126276573Y-85062097D01*
X126276572Y-85062099D01*
X126210747Y-85326107D01*
X126210746Y-85326112D01*
X126209683Y-85330376D01*
X126209224Y-85334744D01*
X126209223Y-85334749D01*
X126180959Y-85603671D01*
X126180322Y-85609733D01*
X126180475Y-85614121D01*
X126180475Y-85614127D01*
X126189257Y-85865593D01*
X126190125Y-85890458D01*
X126190887Y-85894781D01*
X126190888Y-85894788D01*
X126214664Y-86029624D01*
X126238902Y-86167087D01*
X126325703Y-86434235D01*
X126327631Y-86438188D01*
X126327633Y-86438193D01*
X126346074Y-86476002D01*
X126448840Y-86686702D01*
X126451295Y-86690341D01*
X126451298Y-86690347D01*
X126460127Y-86703436D01*
X126605915Y-86919576D01*
X126608860Y-86922847D01*
X126608861Y-86922848D01*
X126619503Y-86934667D01*
X126793871Y-87128322D01*
X126797233Y-87131143D01*
X126797234Y-87131144D01*
X126819166Y-87149547D01*
X127009050Y-87308879D01*
X127247264Y-87457731D01*
X127503875Y-87571982D01*
X127773890Y-87649407D01*
X127778240Y-87650018D01*
X127778243Y-87650019D01*
X127881190Y-87664487D01*
X128052052Y-87688500D01*
X128262646Y-87688500D01*
X128264832Y-87688347D01*
X128264836Y-87688347D01*
X128468327Y-87674118D01*
X128468332Y-87674117D01*
X128472712Y-87673811D01*
X128747470Y-87615409D01*
X128751599Y-87613906D01*
X128751603Y-87613905D01*
X129007281Y-87520846D01*
X129007285Y-87520844D01*
X129011426Y-87519337D01*
X129259442Y-87387464D01*
X129263003Y-87384877D01*
X129483129Y-87224947D01*
X129483132Y-87224944D01*
X129486692Y-87222358D01*
X129688752Y-87027231D01*
X129861688Y-86805882D01*
X129863884Y-86802078D01*
X129863889Y-86802071D01*
X129999935Y-86566431D01*
X130002136Y-86562619D01*
X130107362Y-86302176D01*
X130109031Y-86295482D01*
X130174253Y-86033893D01*
X130174254Y-86033888D01*
X130175317Y-86029624D01*
X130179734Y-85987603D01*
X130204219Y-85754636D01*
X130204219Y-85754633D01*
X130204678Y-85750267D01*
X130203804Y-85725230D01*
X130195029Y-85473939D01*
X130195028Y-85473933D01*
X130194875Y-85469542D01*
X130189312Y-85437989D01*
X130153590Y-85235405D01*
X130146098Y-85192913D01*
X130059297Y-84925765D01*
X130034704Y-84875341D01*
X129982062Y-84767410D01*
X129936160Y-84673298D01*
X129933705Y-84669659D01*
X129933702Y-84669653D01*
X129822114Y-84504218D01*
X129779085Y-84440424D01*
X129591129Y-84231678D01*
X129375950Y-84051121D01*
X129137736Y-83902269D01*
X129064376Y-83869607D01*
X129010280Y-83823627D01*
X128989631Y-83755699D01*
X129008983Y-83687391D01*
X129062194Y-83640390D01*
X129115625Y-83628500D01*
X131563629Y-83628500D01*
X131631750Y-83648502D01*
X131652724Y-83665405D01*
X133032445Y-85045126D01*
X133066471Y-85107438D01*
X133061406Y-85178253D01*
X133026675Y-85228735D01*
X133019109Y-85235405D01*
X132988986Y-85261962D01*
X132981345Y-85268698D01*
X132978135Y-85272606D01*
X132978134Y-85272607D01*
X132954821Y-85300989D01*
X132946551Y-85310108D01*
X129280195Y-88976464D01*
X129278569Y-88978374D01*
X129278563Y-88978381D01*
X129165808Y-89110868D01*
X129162530Y-89114720D01*
X129036779Y-89322358D01*
X128945845Y-89547429D01*
X128944725Y-89552359D01*
X128920428Y-89659305D01*
X128892065Y-89784144D01*
X128891747Y-89789191D01*
X128891747Y-89789194D01*
X128878139Y-90005475D01*
X128876822Y-90026413D01*
X128900511Y-90268002D01*
X128962519Y-90502696D01*
X129061254Y-90724456D01*
X129194174Y-90927578D01*
X129245095Y-90983344D01*
X129343306Y-91090899D01*
X129357858Y-91106836D01*
X129444416Y-91175441D01*
X129544129Y-91254473D01*
X129544135Y-91254477D01*
X129548098Y-91257618D01*
X129759998Y-91376045D01*
X129779749Y-91383234D01*
X129836920Y-91425326D01*
X129862259Y-91491647D01*
X129847720Y-91561139D01*
X129797919Y-91611739D01*
X129785888Y-91617618D01*
X129693513Y-91656829D01*
X129693502Y-91656835D01*
X129688844Y-91658812D01*
X129640535Y-91689234D01*
X129487712Y-91785472D01*
X129487709Y-91785474D01*
X129483433Y-91788167D01*
X129384802Y-91875122D01*
X129320478Y-91905166D01*
X129250120Y-91895665D01*
X129212383Y-91869702D01*
X128326025Y-90983344D01*
X128291999Y-90921032D01*
X128297064Y-90850217D01*
X128318002Y-90814285D01*
X128320249Y-90812038D01*
X128439952Y-90641085D01*
X128443399Y-90636162D01*
X128443400Y-90636160D01*
X128446556Y-90631653D01*
X128448879Y-90626671D01*
X128448882Y-90626666D01*
X128529579Y-90453609D01*
X128539620Y-90432076D01*
X128596615Y-90219371D01*
X128615807Y-90000000D01*
X128596615Y-89780629D01*
X128539620Y-89567924D01*
X128496085Y-89474562D01*
X128448882Y-89373334D01*
X128448879Y-89373329D01*
X128446556Y-89368347D01*
X128415286Y-89323689D01*
X128323408Y-89192473D01*
X128323406Y-89192470D01*
X128320249Y-89187962D01*
X128164538Y-89032251D01*
X128141860Y-89016371D01*
X128070241Y-88966223D01*
X127984154Y-88905944D01*
X127784576Y-88812880D01*
X127571871Y-88755885D01*
X127352500Y-88736693D01*
X127133129Y-88755885D01*
X126920424Y-88812880D01*
X126827062Y-88856415D01*
X126725834Y-88903618D01*
X126725829Y-88903621D01*
X126720847Y-88905944D01*
X126716340Y-88909100D01*
X126716338Y-88909101D01*
X126544973Y-89029092D01*
X126544970Y-89029094D01*
X126540462Y-89032251D01*
X126384751Y-89187962D01*
X126381594Y-89192470D01*
X126381592Y-89192473D01*
X126289714Y-89323689D01*
X126258444Y-89368347D01*
X126256121Y-89373329D01*
X126256118Y-89373334D01*
X126208915Y-89474562D01*
X126165380Y-89567924D01*
X126108385Y-89780629D01*
X126089193Y-90000000D01*
X126108385Y-90219371D01*
X126165380Y-90432076D01*
X126167703Y-90437058D01*
X126167706Y-90437066D01*
X126179450Y-90462251D01*
X126190111Y-90532443D01*
X126161130Y-90597255D01*
X126101710Y-90636111D01*
X126065255Y-90641500D01*
X126057070Y-90641500D01*
X126038120Y-90640067D01*
X126023885Y-90637901D01*
X126023881Y-90637901D01*
X126016651Y-90636801D01*
X126009359Y-90637394D01*
X126009356Y-90637394D01*
X125963982Y-90641085D01*
X125953767Y-90641500D01*
X125945707Y-90641500D01*
X125942073Y-90641924D01*
X125942067Y-90641924D01*
X125929042Y-90643443D01*
X125917480Y-90644791D01*
X125913132Y-90645221D01*
X125840364Y-90651140D01*
X125833403Y-90653395D01*
X125827463Y-90654582D01*
X125821588Y-90655971D01*
X125814319Y-90656818D01*
X125745670Y-90681736D01*
X125741542Y-90683153D01*
X125679064Y-90703393D01*
X125679062Y-90703394D01*
X125672101Y-90705649D01*
X125665846Y-90709445D01*
X125660385Y-90711945D01*
X125655378Y-90714453D01*
X125653065Y-90714871D01*
X125648928Y-90716853D01*
X125648063Y-90717167D01*
X125648061Y-90717168D01*
X125648056Y-90717170D01*
X125647581Y-90715861D01*
X125585512Y-90727073D01*
X125519914Y-90699917D01*
X125479411Y-90641607D01*
X125476863Y-90570656D01*
X125484760Y-90548542D01*
X125536826Y-90436887D01*
X125540572Y-90426595D01*
X125594696Y-90224599D01*
X125596599Y-90213804D01*
X125614826Y-90005475D01*
X125614826Y-89994525D01*
X125596599Y-89786196D01*
X125594696Y-89775401D01*
X125540572Y-89573405D01*
X125536826Y-89563113D01*
X125448446Y-89373583D01*
X125442966Y-89364093D01*
X125414089Y-89322851D01*
X125403614Y-89314477D01*
X125390165Y-89321546D01*
X124352500Y-90359210D01*
X123673322Y-91038389D01*
X123666894Y-91050161D01*
X123676190Y-91062176D01*
X123716588Y-91090464D01*
X123726084Y-91095947D01*
X123915613Y-91184326D01*
X123925905Y-91188072D01*
X124127901Y-91242196D01*
X124138696Y-91244099D01*
X124347025Y-91262326D01*
X124357975Y-91262326D01*
X124566304Y-91244099D01*
X124577099Y-91242196D01*
X124779095Y-91188072D01*
X124794560Y-91182443D01*
X124795349Y-91184612D01*
X124855798Y-91175441D01*
X124920606Y-91204432D01*
X124959452Y-91263858D01*
X124960003Y-91334853D01*
X124927930Y-91389389D01*
X124603820Y-91713499D01*
X124541508Y-91747525D01*
X124503747Y-91749925D01*
X124352500Y-91736693D01*
X124133129Y-91755885D01*
X123920424Y-91812880D01*
X123827062Y-91856415D01*
X123725834Y-91903618D01*
X123725829Y-91903621D01*
X123720847Y-91905944D01*
X123716340Y-91909100D01*
X123716338Y-91909101D01*
X123544973Y-92029092D01*
X123544970Y-92029094D01*
X123540462Y-92032251D01*
X123384751Y-92187962D01*
X123381594Y-92192470D01*
X123381592Y-92192473D01*
X123275872Y-92343457D01*
X123258444Y-92368347D01*
X123256121Y-92373329D01*
X123256118Y-92373334D01*
X123229436Y-92430554D01*
X123165380Y-92567924D01*
X123108385Y-92780629D01*
X123089193Y-93000000D01*
X123108385Y-93219371D01*
X123165380Y-93432076D01*
X123187488Y-93479487D01*
X123256118Y-93626666D01*
X123256121Y-93626671D01*
X123258444Y-93631653D01*
X123261600Y-93636160D01*
X123261601Y-93636162D01*
X123377885Y-93802232D01*
X123384751Y-93812038D01*
X123540462Y-93967749D01*
X123544971Y-93970906D01*
X123544973Y-93970908D01*
X123594000Y-94005237D01*
X123720846Y-94094056D01*
X123920424Y-94187120D01*
X124133129Y-94244115D01*
X124352500Y-94263307D01*
X124571871Y-94244115D01*
X124784576Y-94187120D01*
X124984154Y-94094056D01*
X125111000Y-94005237D01*
X125160027Y-93970908D01*
X125160029Y-93970906D01*
X125164538Y-93967749D01*
X125320249Y-93812038D01*
X125327116Y-93802232D01*
X125443399Y-93636162D01*
X125443400Y-93636160D01*
X125446556Y-93631653D01*
X125448879Y-93626671D01*
X125448882Y-93626666D01*
X125517512Y-93479487D01*
X125539620Y-93432076D01*
X125596615Y-93219371D01*
X125615807Y-93000000D01*
X125610656Y-92941120D01*
X125608609Y-92917722D01*
X125622599Y-92848117D01*
X125645035Y-92817646D01*
X125931926Y-92530755D01*
X125994238Y-92496729D01*
X126065053Y-92501794D01*
X126121889Y-92544341D01*
X126146700Y-92610861D01*
X126142727Y-92652462D01*
X126109810Y-92775308D01*
X126109809Y-92775317D01*
X126108385Y-92780629D01*
X126089193Y-93000000D01*
X126108385Y-93219371D01*
X126165380Y-93432076D01*
X126187488Y-93479487D01*
X126256118Y-93626666D01*
X126256121Y-93626671D01*
X126258444Y-93631653D01*
X126261600Y-93636160D01*
X126261601Y-93636162D01*
X126377885Y-93802232D01*
X126384751Y-93812038D01*
X126540462Y-93967749D01*
X126544971Y-93970906D01*
X126548996Y-93974284D01*
X126588319Y-94033395D01*
X126594000Y-94070802D01*
X126594000Y-94331129D01*
X126573998Y-94399250D01*
X126557095Y-94420224D01*
X125942724Y-95034595D01*
X125880412Y-95068621D01*
X125853629Y-95071500D01*
X109997069Y-95071500D01*
X109978121Y-95070067D01*
X109970780Y-95068950D01*
X109963883Y-95067901D01*
X109963881Y-95067901D01*
X109956651Y-95066801D01*
X109949359Y-95067394D01*
X109949356Y-95067394D01*
X109903982Y-95071085D01*
X109893767Y-95071500D01*
X109885707Y-95071500D01*
X109872417Y-95073049D01*
X109857493Y-95074789D01*
X109853118Y-95075222D01*
X109787661Y-95080546D01*
X109787658Y-95080547D01*
X109780363Y-95081140D01*
X109773399Y-95083396D01*
X109767440Y-95084587D01*
X109761585Y-95085971D01*
X109754319Y-95086818D01*
X109685673Y-95111735D01*
X109681545Y-95113152D01*
X109619064Y-95133393D01*
X109619062Y-95133394D01*
X109612101Y-95135649D01*
X109605846Y-95139445D01*
X109600372Y-95141951D01*
X109594942Y-95144670D01*
X109588063Y-95147167D01*
X109527016Y-95187191D01*
X109523327Y-95189518D01*
X109503135Y-95201771D01*
X109465693Y-95224491D01*
X109465688Y-95224495D01*
X109460892Y-95227405D01*
X109452516Y-95234803D01*
X109452493Y-95234777D01*
X109449503Y-95237426D01*
X109446264Y-95240134D01*
X109440148Y-95244144D01*
X109435121Y-95249451D01*
X109435117Y-95249454D01*
X109386872Y-95300383D01*
X109384494Y-95302825D01*
X108450609Y-96236710D01*
X108436197Y-96249096D01*
X108424602Y-96257629D01*
X108424597Y-96257634D01*
X108418702Y-96261972D01*
X108413963Y-96267550D01*
X108413960Y-96267553D01*
X108384485Y-96302248D01*
X108377555Y-96309764D01*
X108371860Y-96315459D01*
X108369580Y-96318341D01*
X108354239Y-96337731D01*
X108351448Y-96341135D01*
X108333400Y-96362379D01*
X108304187Y-96396765D01*
X108300859Y-96403281D01*
X108297492Y-96408330D01*
X108294325Y-96413459D01*
X108289786Y-96419196D01*
X108258865Y-96485355D01*
X108256962Y-96489249D01*
X108223751Y-96554288D01*
X108222012Y-96561396D01*
X108219913Y-96567039D01*
X108217996Y-96572802D01*
X108214898Y-96579430D01*
X108213408Y-96586592D01*
X108213408Y-96586593D01*
X108200034Y-96650892D01*
X108199064Y-96655176D01*
X108181712Y-96726090D01*
X108181020Y-96737244D01*
X108180984Y-96737242D01*
X108180745Y-96741235D01*
X108180371Y-96745427D01*
X108178880Y-96752595D01*
X108179078Y-96759912D01*
X108180974Y-96830001D01*
X108181020Y-96833408D01*
X108181020Y-103314109D01*
X108161018Y-103382230D01*
X108144115Y-103403204D01*
X106332724Y-105214595D01*
X106270412Y-105248621D01*
X106243629Y-105251500D01*
X103177070Y-105251500D01*
X103158120Y-105250067D01*
X103143885Y-105247901D01*
X103143881Y-105247901D01*
X103136651Y-105246801D01*
X103129359Y-105247394D01*
X103129356Y-105247394D01*
X103083982Y-105251085D01*
X103073767Y-105251500D01*
X103065707Y-105251500D01*
X103062073Y-105251924D01*
X103062067Y-105251924D01*
X103049042Y-105253443D01*
X103037480Y-105254791D01*
X103033132Y-105255221D01*
X102960364Y-105261140D01*
X102953403Y-105263395D01*
X102947463Y-105264582D01*
X102941588Y-105265971D01*
X102934319Y-105266818D01*
X102865670Y-105291736D01*
X102861542Y-105293153D01*
X102799064Y-105313393D01*
X102799062Y-105313394D01*
X102792101Y-105315649D01*
X102785846Y-105319445D01*
X102780372Y-105321951D01*
X102774942Y-105324670D01*
X102768063Y-105327167D01*
X102761943Y-105331180D01*
X102761942Y-105331180D01*
X102707024Y-105367186D01*
X102703320Y-105369523D01*
X102640893Y-105407405D01*
X102632516Y-105414803D01*
X102632492Y-105414776D01*
X102629500Y-105417429D01*
X102626267Y-105420132D01*
X102620148Y-105424144D01*
X102615116Y-105429456D01*
X102566872Y-105480383D01*
X102564494Y-105482825D01*
X101592724Y-106454595D01*
X101530412Y-106488621D01*
X101503629Y-106491500D01*
X101269600Y-106491500D01*
X101266354Y-106491837D01*
X101266350Y-106491837D01*
X101170692Y-106501762D01*
X101170688Y-106501763D01*
X101163834Y-106502474D01*
X101157298Y-106504655D01*
X101157296Y-106504655D01*
X101110211Y-106520364D01*
X100996054Y-106558450D01*
X100845652Y-106651522D01*
X100720695Y-106776697D01*
X100716855Y-106782927D01*
X100716854Y-106782928D01*
X100637490Y-106911680D01*
X100584718Y-106959173D01*
X100514646Y-106970597D01*
X100449522Y-106942323D01*
X100416129Y-106899015D01*
X100407240Y-106880041D01*
X100321937Y-106742193D01*
X100312901Y-106730792D01*
X100198171Y-106616261D01*
X100186760Y-106607249D01*
X100048757Y-106522184D01*
X100035576Y-106516037D01*
X99881290Y-106464862D01*
X99867914Y-106461995D01*
X99773562Y-106452328D01*
X99767145Y-106452000D01*
X99742115Y-106452000D01*
X99726876Y-106456475D01*
X99725671Y-106457865D01*
X99724000Y-106465548D01*
X99724000Y-108088000D01*
X99703998Y-108156121D01*
X99650342Y-108202614D01*
X99598000Y-108214000D01*
X99342000Y-108214000D01*
X99273879Y-108193998D01*
X99227386Y-108140342D01*
X99216000Y-108088000D01*
X99216000Y-106470116D01*
X99211525Y-106454877D01*
X99210135Y-106453672D01*
X99202452Y-106452001D01*
X99172905Y-106452001D01*
X99166386Y-106452338D01*
X99070794Y-106462257D01*
X99050657Y-106466605D01*
X99050128Y-106464154D01*
X98990683Y-106466311D01*
X98929604Y-106430119D01*
X98897788Y-106366651D01*
X98895887Y-106338849D01*
X98896347Y-106328063D01*
X99431990Y-93743369D01*
X99434311Y-93724079D01*
X99439001Y-93700579D01*
X99438217Y-93691641D01*
X99438539Y-93685767D01*
X99439449Y-93661196D01*
X99450458Y-93593649D01*
X99458744Y-93564897D01*
X99492477Y-93485021D01*
X99507309Y-93459032D01*
X99558924Y-93389366D01*
X99579466Y-93367609D01*
X99627860Y-93327250D01*
X99641215Y-93317523D01*
X99647003Y-93313863D01*
X99655191Y-93310190D01*
X99679382Y-93289560D01*
X99692501Y-93279770D01*
X99735348Y-93251937D01*
X102464277Y-91479229D01*
X109086625Y-87177364D01*
X109105091Y-87167448D01*
X109123507Y-87159454D01*
X109134105Y-87152750D01*
X109159086Y-87130908D01*
X109170821Y-87121812D01*
X109190627Y-87108249D01*
X109190637Y-87108242D01*
X109191894Y-87107381D01*
X109250213Y-87063145D01*
X109263539Y-87051979D01*
X109278071Y-87041468D01*
X109295833Y-87030456D01*
X109299966Y-87027894D01*
X109309480Y-87019725D01*
X109327607Y-86998501D01*
X109340153Y-86985768D01*
X111798976Y-84821556D01*
X111814505Y-84809883D01*
X111834726Y-84796998D01*
X111846350Y-84783717D01*
X111863592Y-84767410D01*
X111875565Y-84758056D01*
X111887700Y-84749672D01*
X111924284Y-84727439D01*
X111937331Y-84720522D01*
X111939572Y-84719497D01*
X111944545Y-84717224D01*
X111969937Y-84708743D01*
X111970240Y-84708677D01*
X111970244Y-84708676D01*
X111979007Y-84706754D01*
X112006906Y-84691500D01*
X112021748Y-84684597D01*
X113018405Y-84297664D01*
X113089147Y-84291657D01*
X113151907Y-84324849D01*
X113186759Y-84386702D01*
X113182638Y-84457579D01*
X113153101Y-84504218D01*
X112971089Y-84686230D01*
X112956677Y-84698616D01*
X112945082Y-84707149D01*
X112945077Y-84707154D01*
X112939182Y-84711492D01*
X112934443Y-84717070D01*
X112934440Y-84717073D01*
X112904965Y-84751768D01*
X112898035Y-84759284D01*
X112892340Y-84764979D01*
X112890060Y-84767861D01*
X112874719Y-84787251D01*
X112871928Y-84790655D01*
X112845674Y-84821558D01*
X112824667Y-84846285D01*
X112821339Y-84852801D01*
X112817972Y-84857850D01*
X112814805Y-84862979D01*
X112810266Y-84868716D01*
X112779345Y-84934875D01*
X112777442Y-84938769D01*
X112744231Y-85003808D01*
X112742492Y-85010916D01*
X112740393Y-85016559D01*
X112738476Y-85022322D01*
X112735378Y-85028950D01*
X112733888Y-85036112D01*
X112733888Y-85036113D01*
X112720514Y-85100412D01*
X112719544Y-85104696D01*
X112702192Y-85175610D01*
X112701500Y-85186764D01*
X112701464Y-85186762D01*
X112701225Y-85190755D01*
X112700851Y-85194947D01*
X112699360Y-85202115D01*
X112699558Y-85209432D01*
X112701454Y-85279521D01*
X112701500Y-85282928D01*
X112701500Y-87263629D01*
X112681498Y-87331750D01*
X112664595Y-87352724D01*
X106812782Y-93204537D01*
X106750470Y-93238563D01*
X106679655Y-93233498D01*
X106622819Y-93190951D01*
X106598033Y-93124779D01*
X106593910Y-93069292D01*
X106593910Y-93069289D01*
X106593564Y-93064639D01*
X106592433Y-93059637D01*
X106545552Y-92852460D01*
X106535896Y-92809786D01*
X106534203Y-92805432D01*
X106442886Y-92570609D01*
X106442885Y-92570606D01*
X106441193Y-92566256D01*
X106428668Y-92544341D01*
X106368647Y-92439328D01*
X106311533Y-92339399D01*
X106149766Y-92134199D01*
X105959446Y-91955163D01*
X105757698Y-91815205D01*
X105748595Y-91808890D01*
X105748592Y-91808888D01*
X105744753Y-91806225D01*
X105740563Y-91804159D01*
X105740560Y-91804157D01*
X105514591Y-91692722D01*
X105514588Y-91692721D01*
X105510403Y-91690657D01*
X105261546Y-91610997D01*
X105256939Y-91610247D01*
X105256936Y-91610246D01*
X105008258Y-91569746D01*
X105008259Y-91569746D01*
X105003647Y-91568995D01*
X104876859Y-91567335D01*
X104747051Y-91565636D01*
X104747048Y-91565636D01*
X104742374Y-91565575D01*
X104483464Y-91600811D01*
X104478978Y-91602119D01*
X104478976Y-91602119D01*
X104443628Y-91612422D01*
X104232607Y-91673929D01*
X104228372Y-91675881D01*
X104228365Y-91675884D01*
X104022361Y-91770855D01*
X103995313Y-91783324D01*
X103991404Y-91785887D01*
X103780707Y-91924025D01*
X103780702Y-91924029D01*
X103776794Y-91926591D01*
X103581852Y-92100583D01*
X103414769Y-92301478D01*
X103279216Y-92524864D01*
X103277407Y-92529178D01*
X103277406Y-92529180D01*
X103188787Y-92740513D01*
X103178170Y-92765831D01*
X103177019Y-92770363D01*
X103177018Y-92770366D01*
X103158589Y-92842930D01*
X103113851Y-93019087D01*
X103087672Y-93279069D01*
X103087896Y-93283735D01*
X103087896Y-93283741D01*
X103088839Y-93303373D01*
X103089391Y-93314857D01*
X103100209Y-93540064D01*
X103117435Y-93626666D01*
X103145648Y-93768502D01*
X103151185Y-93796340D01*
X103152764Y-93800738D01*
X103152766Y-93800745D01*
X103211328Y-93963852D01*
X103239481Y-94042265D01*
X103363158Y-94272439D01*
X103365953Y-94276182D01*
X103365955Y-94276185D01*
X103516705Y-94478063D01*
X103519498Y-94481803D01*
X103522805Y-94485081D01*
X103522810Y-94485087D01*
X103701751Y-94662472D01*
X103705067Y-94665759D01*
X103708834Y-94668521D01*
X103708835Y-94668522D01*
X103876913Y-94791762D01*
X103920021Y-94848173D01*
X103925788Y-94918935D01*
X103892382Y-94981582D01*
X103867776Y-95001091D01*
X103840892Y-95017405D01*
X103832516Y-95024803D01*
X103832493Y-95024777D01*
X103829503Y-95027426D01*
X103826264Y-95030134D01*
X103820148Y-95034144D01*
X103815121Y-95039451D01*
X103815117Y-95039454D01*
X103766872Y-95090383D01*
X103764494Y-95092825D01*
X103351089Y-95506230D01*
X103336677Y-95518616D01*
X103325082Y-95527149D01*
X103325077Y-95527154D01*
X103319182Y-95531492D01*
X103314443Y-95537070D01*
X103314440Y-95537073D01*
X103284965Y-95571768D01*
X103278035Y-95579284D01*
X103272340Y-95584979D01*
X103270060Y-95587861D01*
X103254719Y-95607251D01*
X103251928Y-95610655D01*
X103220992Y-95647069D01*
X103204667Y-95666285D01*
X103201339Y-95672801D01*
X103197972Y-95677850D01*
X103194805Y-95682979D01*
X103190266Y-95688716D01*
X103159345Y-95754875D01*
X103157442Y-95758769D01*
X103124231Y-95823808D01*
X103122492Y-95830916D01*
X103120393Y-95836559D01*
X103118476Y-95842322D01*
X103115378Y-95848950D01*
X103113888Y-95856112D01*
X103113888Y-95856113D01*
X103100514Y-95920412D01*
X103099544Y-95924696D01*
X103082192Y-95995610D01*
X103081500Y-96006764D01*
X103081464Y-96006762D01*
X103081225Y-96010755D01*
X103080851Y-96014947D01*
X103079360Y-96022115D01*
X103079558Y-96029432D01*
X103081454Y-96099521D01*
X103081500Y-96102928D01*
X103081500Y-96403734D01*
X103061498Y-96471855D01*
X103046523Y-96490858D01*
X102966119Y-96574850D01*
X102962867Y-96579887D01*
X102962865Y-96579889D01*
X102955656Y-96591054D01*
X102851380Y-96752548D01*
X102772314Y-96948737D01*
X102731772Y-97156337D01*
X102731500Y-97161899D01*
X102731500Y-97867846D01*
X102746548Y-98025566D01*
X102806092Y-98228534D01*
X102808836Y-98233861D01*
X102808836Y-98233862D01*
X102856491Y-98326389D01*
X102902942Y-98416580D01*
X103033604Y-98582920D01*
X103038135Y-98586852D01*
X103042270Y-98591194D01*
X103041418Y-98592006D01*
X103076421Y-98646557D01*
X103081500Y-98681970D01*
X103081500Y-100482930D01*
X103080067Y-100501880D01*
X103076801Y-100523349D01*
X103077394Y-100530641D01*
X103077394Y-100530644D01*
X103081085Y-100576018D01*
X103081500Y-100586233D01*
X103081500Y-100594293D01*
X103081925Y-100597937D01*
X103084789Y-100622507D01*
X103085222Y-100626882D01*
X103091140Y-100699637D01*
X103093396Y-100706601D01*
X103094587Y-100712560D01*
X103095971Y-100718415D01*
X103096818Y-100725681D01*
X103121735Y-100794327D01*
X103123152Y-100798455D01*
X103145649Y-100867899D01*
X103149445Y-100874154D01*
X103151951Y-100879628D01*
X103154670Y-100885058D01*
X103157167Y-100891937D01*
X103161180Y-100898057D01*
X103161180Y-100898058D01*
X103197186Y-100952976D01*
X103199523Y-100956680D01*
X103237405Y-101019107D01*
X103241121Y-101023315D01*
X103241122Y-101023316D01*
X103244803Y-101027484D01*
X103244776Y-101027508D01*
X103247429Y-101030500D01*
X103250132Y-101033733D01*
X103254144Y-101039852D01*
X103259456Y-101044884D01*
X103310383Y-101093128D01*
X103312825Y-101095506D01*
X103539595Y-101322276D01*
X103573621Y-101384588D01*
X103576500Y-101411371D01*
X103576500Y-101980400D01*
X103587474Y-102086166D01*
X103643450Y-102253946D01*
X103736522Y-102404348D01*
X103861697Y-102529305D01*
X103867927Y-102533145D01*
X103867928Y-102533146D01*
X103913236Y-102561074D01*
X103960729Y-102613846D01*
X103972153Y-102683918D01*
X103943879Y-102749042D01*
X103924955Y-102767418D01*
X103917080Y-102773604D01*
X103913148Y-102778135D01*
X103913145Y-102778138D01*
X103889591Y-102805282D01*
X103778448Y-102933363D01*
X103775448Y-102938549D01*
X103775445Y-102938553D01*
X103681661Y-103100665D01*
X103672527Y-103116454D01*
X103603139Y-103316271D01*
X103572787Y-103525604D01*
X103582567Y-103736899D01*
X103632125Y-103942534D01*
X103719674Y-104135087D01*
X103842054Y-104307611D01*
X103994850Y-104453881D01*
X104172548Y-104568620D01*
X104178114Y-104570863D01*
X104363168Y-104645442D01*
X104363171Y-104645443D01*
X104368737Y-104647686D01*
X104576337Y-104688228D01*
X104581899Y-104688500D01*
X105287846Y-104688500D01*
X105445566Y-104673452D01*
X105648534Y-104613908D01*
X105732111Y-104570863D01*
X105831249Y-104519804D01*
X105831252Y-104519802D01*
X105836580Y-104517058D01*
X106002920Y-104386396D01*
X106006852Y-104381865D01*
X106011194Y-104377730D01*
X106012006Y-104378582D01*
X106066557Y-104343579D01*
X106101970Y-104338500D01*
X106132930Y-104338500D01*
X106151880Y-104339933D01*
X106166115Y-104342099D01*
X106166119Y-104342099D01*
X106173349Y-104343199D01*
X106180641Y-104342606D01*
X106180644Y-104342606D01*
X106226018Y-104338915D01*
X106236233Y-104338500D01*
X106244293Y-104338500D01*
X106257583Y-104336951D01*
X106272507Y-104335211D01*
X106276882Y-104334778D01*
X106342339Y-104329454D01*
X106342342Y-104329453D01*
X106349637Y-104328860D01*
X106356601Y-104326604D01*
X106362560Y-104325413D01*
X106368415Y-104324029D01*
X106375681Y-104323182D01*
X106444327Y-104298265D01*
X106448455Y-104296848D01*
X106510936Y-104276607D01*
X106510938Y-104276606D01*
X106517899Y-104274351D01*
X106524154Y-104270555D01*
X106529628Y-104268049D01*
X106535058Y-104265330D01*
X106541937Y-104262833D01*
X106602976Y-104222814D01*
X106606680Y-104220477D01*
X106669107Y-104182595D01*
X106677484Y-104175197D01*
X106677508Y-104175224D01*
X106680500Y-104172571D01*
X106683733Y-104169868D01*
X106689852Y-104165856D01*
X106743128Y-104109617D01*
X106745506Y-104107175D01*
X107628911Y-103223770D01*
X107643323Y-103211384D01*
X107654918Y-103202851D01*
X107654923Y-103202846D01*
X107660818Y-103198508D01*
X107665557Y-103192930D01*
X107665560Y-103192927D01*
X107695035Y-103158232D01*
X107701965Y-103150716D01*
X107707661Y-103145020D01*
X107709924Y-103142159D01*
X107709929Y-103142154D01*
X107725293Y-103122734D01*
X107728082Y-103119333D01*
X107734942Y-103111258D01*
X107775333Y-103063715D01*
X107778659Y-103057202D01*
X107782020Y-103052163D01*
X107785196Y-103047021D01*
X107789734Y-103041284D01*
X107820655Y-102975125D01*
X107822561Y-102971225D01*
X107839244Y-102938553D01*
X107855769Y-102906192D01*
X107857508Y-102899083D01*
X107859604Y-102893449D01*
X107861523Y-102887679D01*
X107864622Y-102881050D01*
X107879491Y-102809565D01*
X107880461Y-102805282D01*
X107887103Y-102778138D01*
X107897808Y-102734390D01*
X107898500Y-102723236D01*
X107898535Y-102723238D01*
X107898775Y-102719266D01*
X107899152Y-102715045D01*
X107900641Y-102707885D01*
X107898546Y-102630458D01*
X107898500Y-102627050D01*
X107898500Y-95536371D01*
X107918502Y-95468250D01*
X107935405Y-95447276D01*
X109597276Y-93785405D01*
X109659588Y-93751379D01*
X109686371Y-93748500D01*
X120274670Y-93748500D01*
X120342791Y-93768502D01*
X120377884Y-93802231D01*
X120384751Y-93812038D01*
X120540462Y-93967749D01*
X120544971Y-93970906D01*
X120544973Y-93970908D01*
X120594000Y-94005237D01*
X120720846Y-94094056D01*
X120920424Y-94187120D01*
X121133129Y-94244115D01*
X121352500Y-94263307D01*
X121571871Y-94244115D01*
X121784576Y-94187120D01*
X121984154Y-94094056D01*
X122111000Y-94005237D01*
X122160027Y-93970908D01*
X122160029Y-93970906D01*
X122164538Y-93967749D01*
X122320249Y-93812038D01*
X122327116Y-93802232D01*
X122443399Y-93636162D01*
X122443400Y-93636160D01*
X122446556Y-93631653D01*
X122448879Y-93626671D01*
X122448882Y-93626666D01*
X122517512Y-93479487D01*
X122539620Y-93432076D01*
X122596615Y-93219371D01*
X122615807Y-93000000D01*
X122596615Y-92780629D01*
X122539620Y-92567924D01*
X122475564Y-92430554D01*
X122448882Y-92373334D01*
X122448879Y-92373329D01*
X122446556Y-92368347D01*
X122429128Y-92343457D01*
X122323408Y-92192473D01*
X122323406Y-92192470D01*
X122320249Y-92187962D01*
X122164538Y-92032251D01*
X122151310Y-92022988D01*
X122059024Y-91958369D01*
X121984154Y-91905944D01*
X121784576Y-91812880D01*
X121571871Y-91755885D01*
X121352500Y-91736693D01*
X121133129Y-91755885D01*
X120920424Y-91812880D01*
X120827062Y-91856415D01*
X120725834Y-91903618D01*
X120725829Y-91903621D01*
X120720847Y-91905944D01*
X120716340Y-91909100D01*
X120716338Y-91909101D01*
X120544973Y-92029092D01*
X120544970Y-92029094D01*
X120540462Y-92032251D01*
X120384751Y-92187962D01*
X120384612Y-92187823D01*
X120327499Y-92225819D01*
X120290090Y-92231500D01*
X110235371Y-92231500D01*
X110167250Y-92211498D01*
X110120757Y-92157842D01*
X110110653Y-92087568D01*
X110140147Y-92022988D01*
X110146276Y-92016405D01*
X112162681Y-90000000D01*
X120089193Y-90000000D01*
X120108385Y-90219371D01*
X120165380Y-90432076D01*
X120175421Y-90453609D01*
X120256118Y-90626666D01*
X120256121Y-90626671D01*
X120258444Y-90631653D01*
X120261600Y-90636160D01*
X120261601Y-90636162D01*
X120318324Y-90717170D01*
X120384751Y-90812038D01*
X120540462Y-90967749D01*
X120544971Y-90970906D01*
X120544973Y-90970908D01*
X120619741Y-91023261D01*
X120720846Y-91094056D01*
X120920424Y-91187120D01*
X121133129Y-91244115D01*
X121352500Y-91263307D01*
X121571871Y-91244115D01*
X121784576Y-91187120D01*
X121984154Y-91094056D01*
X122085259Y-91023261D01*
X122160027Y-90970908D01*
X122160029Y-90970906D01*
X122164538Y-90967749D01*
X122320249Y-90812038D01*
X122386677Y-90717170D01*
X122443399Y-90636162D01*
X122443400Y-90636160D01*
X122446556Y-90631653D01*
X122448879Y-90626671D01*
X122448882Y-90626666D01*
X122529579Y-90453609D01*
X122539620Y-90432076D01*
X122596615Y-90219371D01*
X122615328Y-90005475D01*
X123090174Y-90005475D01*
X123108401Y-90213804D01*
X123110304Y-90224599D01*
X123164428Y-90426595D01*
X123168174Y-90436887D01*
X123256554Y-90626417D01*
X123262034Y-90635907D01*
X123290911Y-90677149D01*
X123301387Y-90685523D01*
X123314834Y-90678455D01*
X123980479Y-90012811D01*
X123988092Y-89998868D01*
X123987961Y-89997034D01*
X123983710Y-89990420D01*
X123314109Y-89320820D01*
X123302339Y-89314393D01*
X123290324Y-89323689D01*
X123262034Y-89364093D01*
X123256554Y-89373583D01*
X123168174Y-89563113D01*
X123164428Y-89573405D01*
X123110304Y-89775401D01*
X123108401Y-89786196D01*
X123090174Y-89994525D01*
X123090174Y-90005475D01*
X122615328Y-90005475D01*
X122615807Y-90000000D01*
X122596615Y-89780629D01*
X122539620Y-89567924D01*
X122496085Y-89474562D01*
X122448882Y-89373334D01*
X122448879Y-89373329D01*
X122446556Y-89368347D01*
X122415286Y-89323689D01*
X122323408Y-89192473D01*
X122323406Y-89192470D01*
X122320249Y-89187962D01*
X122164538Y-89032251D01*
X122141860Y-89016371D01*
X122070241Y-88966223D01*
X122045483Y-88948887D01*
X123666977Y-88948887D01*
X123674045Y-88962334D01*
X124339689Y-89627979D01*
X124353632Y-89635592D01*
X124355466Y-89635461D01*
X124362080Y-89631210D01*
X125031680Y-88961609D01*
X125038107Y-88949839D01*
X125028813Y-88937825D01*
X124988412Y-88909536D01*
X124978916Y-88904053D01*
X124789387Y-88815674D01*
X124779095Y-88811928D01*
X124577099Y-88757804D01*
X124566304Y-88755901D01*
X124357975Y-88737674D01*
X124347025Y-88737674D01*
X124138696Y-88755901D01*
X124127901Y-88757804D01*
X123925905Y-88811928D01*
X123915613Y-88815674D01*
X123726083Y-88904054D01*
X123716593Y-88909534D01*
X123675351Y-88938411D01*
X123666977Y-88948887D01*
X122045483Y-88948887D01*
X121984154Y-88905944D01*
X121784576Y-88812880D01*
X121571871Y-88755885D01*
X121352500Y-88736693D01*
X121133129Y-88755885D01*
X120920424Y-88812880D01*
X120827062Y-88856415D01*
X120725834Y-88903618D01*
X120725829Y-88903621D01*
X120720847Y-88905944D01*
X120716340Y-88909100D01*
X120716338Y-88909101D01*
X120544973Y-89029092D01*
X120544970Y-89029094D01*
X120540462Y-89032251D01*
X120384751Y-89187962D01*
X120381594Y-89192470D01*
X120381592Y-89192473D01*
X120289714Y-89323689D01*
X120258444Y-89368347D01*
X120256121Y-89373329D01*
X120256118Y-89373334D01*
X120208915Y-89474562D01*
X120165380Y-89567924D01*
X120108385Y-89780629D01*
X120089193Y-90000000D01*
X112162681Y-90000000D01*
X113052281Y-89110400D01*
X114616500Y-89110400D01*
X114616837Y-89113646D01*
X114616837Y-89113650D01*
X114625016Y-89192473D01*
X114627474Y-89216166D01*
X114629655Y-89222702D01*
X114629655Y-89222704D01*
X114663067Y-89322851D01*
X114683450Y-89383946D01*
X114776522Y-89534348D01*
X114901697Y-89659305D01*
X114907927Y-89663145D01*
X114907928Y-89663146D01*
X115045090Y-89747694D01*
X115052262Y-89752115D01*
X115122220Y-89775319D01*
X115213611Y-89805632D01*
X115213613Y-89805632D01*
X115220139Y-89807797D01*
X115226975Y-89808497D01*
X115226978Y-89808498D01*
X115270031Y-89812909D01*
X115324600Y-89818500D01*
X116675400Y-89818500D01*
X116678646Y-89818163D01*
X116678650Y-89818163D01*
X116774308Y-89808238D01*
X116774312Y-89808237D01*
X116781166Y-89807526D01*
X116787702Y-89805345D01*
X116787704Y-89805345D01*
X116919806Y-89761272D01*
X116948946Y-89751550D01*
X117099348Y-89658478D01*
X117224305Y-89533303D01*
X117317115Y-89382738D01*
X117355741Y-89266283D01*
X117370632Y-89221389D01*
X117370632Y-89221387D01*
X117372797Y-89214861D01*
X117383500Y-89110400D01*
X117383500Y-88309600D01*
X117372526Y-88203834D01*
X117366472Y-88185686D01*
X117326272Y-88065194D01*
X117316550Y-88036054D01*
X117223478Y-87885652D01*
X117098303Y-87760695D01*
X117092069Y-87756852D01*
X117046310Y-87728645D01*
X116998817Y-87675873D01*
X116987395Y-87605801D01*
X117015669Y-87540677D01*
X117034597Y-87522298D01*
X117037856Y-87519738D01*
X117046506Y-87511501D01*
X117177212Y-87360877D01*
X117184147Y-87351153D01*
X117284010Y-87178533D01*
X117288984Y-87167669D01*
X117354407Y-86979273D01*
X117354648Y-86978284D01*
X117353180Y-86967992D01*
X117339615Y-86964000D01*
X116991104Y-86964000D01*
X116922983Y-86943998D01*
X116876490Y-86890342D01*
X116865794Y-86824829D01*
X116867786Y-86805882D01*
X116877863Y-86710002D01*
X116865794Y-86595170D01*
X116878566Y-86525332D01*
X116927068Y-86473485D01*
X116991104Y-86456000D01*
X117335402Y-86456000D01*
X117348933Y-86452027D01*
X117350288Y-86442601D01*
X117328806Y-86353463D01*
X117324917Y-86342168D01*
X117242371Y-86160618D01*
X117236424Y-86150276D01*
X117121032Y-85987603D01*
X117113239Y-85978575D01*
X116969169Y-85840658D01*
X116959804Y-85833262D01*
X116792259Y-85725079D01*
X116781655Y-85719583D01*
X116596688Y-85645039D01*
X116585230Y-85641645D01*
X116388072Y-85603143D01*
X116379209Y-85602066D01*
X116376500Y-85602000D01*
X116272115Y-85602000D01*
X116256876Y-85606475D01*
X116255671Y-85607865D01*
X116254000Y-85615548D01*
X116254000Y-85707793D01*
X116233998Y-85775914D01*
X116180342Y-85822407D01*
X116110068Y-85832511D01*
X116101803Y-85831040D01*
X116089263Y-85828374D01*
X116089259Y-85828374D01*
X116082806Y-85827002D01*
X115897192Y-85827002D01*
X115890740Y-85828373D01*
X115885167Y-85828959D01*
X115815329Y-85816185D01*
X115763484Y-85767682D01*
X115746000Y-85703649D01*
X115746000Y-85620115D01*
X115741525Y-85604876D01*
X115740135Y-85603671D01*
X115732452Y-85602000D01*
X115675168Y-85602000D01*
X115669192Y-85602285D01*
X115520506Y-85616471D01*
X115508772Y-85618730D01*
X115317401Y-85674872D01*
X115306325Y-85679302D01*
X115129022Y-85770619D01*
X115118976Y-85777069D01*
X114962143Y-85900262D01*
X114953494Y-85908499D01*
X114822788Y-86059123D01*
X114815853Y-86068847D01*
X114715990Y-86241467D01*
X114711016Y-86252331D01*
X114645593Y-86440727D01*
X114645352Y-86441716D01*
X114646820Y-86452008D01*
X114660385Y-86456000D01*
X114988894Y-86456000D01*
X115057015Y-86476002D01*
X115103508Y-86529658D01*
X115114204Y-86595170D01*
X115102135Y-86710002D01*
X115112213Y-86805882D01*
X115114204Y-86824829D01*
X115101432Y-86894668D01*
X115052930Y-86946514D01*
X114988894Y-86964000D01*
X114664598Y-86964000D01*
X114651067Y-86967973D01*
X114649712Y-86977399D01*
X114671194Y-87066537D01*
X114675083Y-87077832D01*
X114757629Y-87259382D01*
X114763576Y-87269724D01*
X114878968Y-87432397D01*
X114886761Y-87441425D01*
X114977757Y-87528535D01*
X115013133Y-87590090D01*
X115009614Y-87661000D01*
X114968317Y-87718750D01*
X114956947Y-87726685D01*
X114900652Y-87761522D01*
X114775695Y-87886697D01*
X114771855Y-87892927D01*
X114771854Y-87892928D01*
X114690654Y-88024659D01*
X114682885Y-88037262D01*
X114660585Y-88104494D01*
X114638024Y-88172516D01*
X114627203Y-88205139D01*
X114626503Y-88211975D01*
X114626502Y-88211978D01*
X114623290Y-88243327D01*
X114616500Y-88309600D01*
X114616500Y-89110400D01*
X113052281Y-89110400D01*
X113948911Y-88213770D01*
X113963323Y-88201384D01*
X113974918Y-88192851D01*
X113974923Y-88192846D01*
X113980818Y-88188508D01*
X113985557Y-88182930D01*
X113985560Y-88182927D01*
X114015035Y-88148232D01*
X114021965Y-88140716D01*
X114027660Y-88135021D01*
X114045281Y-88112749D01*
X114048072Y-88109345D01*
X114090591Y-88059297D01*
X114090592Y-88059295D01*
X114095333Y-88053715D01*
X114098661Y-88047199D01*
X114102028Y-88042150D01*
X114105195Y-88037021D01*
X114109734Y-88031284D01*
X114140655Y-87965125D01*
X114142561Y-87961225D01*
X114169630Y-87908214D01*
X114175769Y-87896192D01*
X114177508Y-87889084D01*
X114179607Y-87883441D01*
X114181524Y-87877678D01*
X114184622Y-87871050D01*
X114199487Y-87799583D01*
X114200457Y-87795299D01*
X114216473Y-87729845D01*
X114217808Y-87724390D01*
X114218500Y-87713236D01*
X114218536Y-87713238D01*
X114218775Y-87709245D01*
X114219149Y-87705053D01*
X114220640Y-87697885D01*
X114218546Y-87620479D01*
X114218500Y-87617072D01*
X114218500Y-85636371D01*
X114238502Y-85568250D01*
X114255405Y-85547276D01*
X114567276Y-85235405D01*
X114629588Y-85201379D01*
X114656371Y-85198500D01*
X120932930Y-85198500D01*
X120951880Y-85199933D01*
X120966115Y-85202099D01*
X120966119Y-85202099D01*
X120973349Y-85203199D01*
X120980641Y-85202606D01*
X120980644Y-85202606D01*
X121026018Y-85198915D01*
X121036233Y-85198500D01*
X121044293Y-85198500D01*
X121057583Y-85196951D01*
X121072507Y-85195211D01*
X121076882Y-85194778D01*
X121142339Y-85189454D01*
X121142342Y-85189453D01*
X121149637Y-85188860D01*
X121156601Y-85186604D01*
X121162560Y-85185413D01*
X121168415Y-85184029D01*
X121175681Y-85183182D01*
X121244327Y-85158265D01*
X121248455Y-85156848D01*
X121310936Y-85136607D01*
X121310938Y-85136606D01*
X121317899Y-85134351D01*
X121324159Y-85130552D01*
X121329628Y-85128048D01*
X121335053Y-85125332D01*
X121341937Y-85122833D01*
X121348057Y-85118820D01*
X121348068Y-85118815D01*
X121417935Y-85106199D01*
X121483531Y-85133359D01*
X121524030Y-85191671D01*
X121526741Y-85261960D01*
X121509683Y-85330376D01*
X121509224Y-85334744D01*
X121509223Y-85334749D01*
X121480959Y-85603671D01*
X121480322Y-85609733D01*
X121480475Y-85614121D01*
X121480475Y-85614127D01*
X121489257Y-85865593D01*
X121490125Y-85890458D01*
X121490887Y-85894781D01*
X121490888Y-85894788D01*
X121514664Y-86029624D01*
X121538902Y-86167087D01*
X121625703Y-86434235D01*
X121627631Y-86438188D01*
X121627633Y-86438193D01*
X121646074Y-86476002D01*
X121748840Y-86686702D01*
X121751295Y-86690341D01*
X121751298Y-86690347D01*
X121760127Y-86703436D01*
X121905915Y-86919576D01*
X121908860Y-86922847D01*
X121908861Y-86922848D01*
X121919503Y-86934667D01*
X122093871Y-87128322D01*
X122097233Y-87131143D01*
X122097234Y-87131144D01*
X122119166Y-87149547D01*
X122309050Y-87308879D01*
X122547264Y-87457731D01*
X122803875Y-87571982D01*
X123073890Y-87649407D01*
X123078240Y-87650018D01*
X123078243Y-87650019D01*
X123181190Y-87664487D01*
X123352052Y-87688500D01*
X123562646Y-87688500D01*
X123564832Y-87688347D01*
X123564836Y-87688347D01*
X123768327Y-87674118D01*
X123768332Y-87674117D01*
X123772712Y-87673811D01*
X124047470Y-87615409D01*
X124051599Y-87613906D01*
X124051603Y-87613905D01*
X124307281Y-87520846D01*
X124307285Y-87520844D01*
X124311426Y-87519337D01*
X124559442Y-87387464D01*
X124563003Y-87384877D01*
X124783129Y-87224947D01*
X124783132Y-87224944D01*
X124786692Y-87222358D01*
X124988752Y-87027231D01*
X125161688Y-86805882D01*
X125163884Y-86802078D01*
X125163889Y-86802071D01*
X125299935Y-86566431D01*
X125302136Y-86562619D01*
X125407362Y-86302176D01*
X125409031Y-86295482D01*
X125474253Y-86033893D01*
X125474254Y-86033888D01*
X125475317Y-86029624D01*
X125479734Y-85987603D01*
X125504219Y-85754636D01*
X125504219Y-85754633D01*
X125504678Y-85750267D01*
X125503804Y-85725230D01*
X125495029Y-85473939D01*
X125495028Y-85473933D01*
X125494875Y-85469542D01*
X125489312Y-85437989D01*
X125453590Y-85235405D01*
X125446098Y-85192913D01*
X125359297Y-84925765D01*
X125334704Y-84875341D01*
X125282062Y-84767410D01*
X125236160Y-84673298D01*
X125233705Y-84669659D01*
X125233702Y-84669653D01*
X125122114Y-84504218D01*
X125079085Y-84440424D01*
X124891129Y-84231678D01*
X124675950Y-84051121D01*
X124437736Y-83902269D01*
X124364376Y-83869607D01*
X124310280Y-83823627D01*
X124289631Y-83755699D01*
X124308983Y-83687391D01*
X124362194Y-83640390D01*
X124415625Y-83628500D01*
X127267237Y-83628500D01*
X127335358Y-83648502D01*
G37*
%TD.AperFunction*%
%TD*%
M02*
