%TF.GenerationSoftware,KiCad,Pcbnew,(6.0.0)*%
%TF.CreationDate,2024-07-10T16:52:07-07:00*%
%TF.ProjectId,pre_cursed_dc_inlet,7072655f-6375-4727-9365-645f64635f69,rev?*%
%TF.SameCoordinates,Original*%
%TF.FileFunction,Legend,Bot*%
%TF.FilePolarity,Positive*%
%FSLAX46Y46*%
G04 Gerber Fmt 4.6, Leading zero omitted, Abs format (unit mm)*
G04 Created by KiCad (PCBNEW (6.0.0)) date 2024-07-10 16:52:07*
%MOMM*%
%LPD*%
G01*
G04 APERTURE LIST*
%ADD10C,0.200000*%
G04 APERTURE END LIST*
D10*
X160619047Y-88678571D02*
X160476190Y-88726190D01*
X160428571Y-88773809D01*
X160380952Y-88869047D01*
X160380952Y-89011904D01*
X160428571Y-89107142D01*
X160476190Y-89154761D01*
X160571428Y-89202380D01*
X160952380Y-89202380D01*
X160952380Y-88202380D01*
X160619047Y-88202380D01*
X160523809Y-88250000D01*
X160476190Y-88297619D01*
X160428571Y-88392857D01*
X160428571Y-88488095D01*
X160476190Y-88583333D01*
X160523809Y-88630952D01*
X160619047Y-88678571D01*
X160952380Y-88678571D01*
X159571428Y-89154761D02*
X159666666Y-89202380D01*
X159857142Y-89202380D01*
X159952380Y-89154761D01*
X160000000Y-89059523D01*
X160000000Y-88678571D01*
X159952380Y-88583333D01*
X159857142Y-88535714D01*
X159666666Y-88535714D01*
X159571428Y-88583333D01*
X159523809Y-88678571D01*
X159523809Y-88773809D01*
X160000000Y-88869047D01*
X157904761Y-89202380D02*
X157904761Y-88678571D01*
X157952380Y-88583333D01*
X158047619Y-88535714D01*
X158238095Y-88535714D01*
X158333333Y-88583333D01*
X157904761Y-89154761D02*
X158000000Y-89202380D01*
X158238095Y-89202380D01*
X158333333Y-89154761D01*
X158380952Y-89059523D01*
X158380952Y-88964285D01*
X158333333Y-88869047D01*
X158238095Y-88821428D01*
X158000000Y-88821428D01*
X157904761Y-88773809D01*
X156238095Y-89154761D02*
X156333333Y-89202380D01*
X156523809Y-89202380D01*
X156619047Y-89154761D01*
X156666666Y-89107142D01*
X156714285Y-89011904D01*
X156714285Y-88726190D01*
X156666666Y-88630952D01*
X156619047Y-88583333D01*
X156523809Y-88535714D01*
X156333333Y-88535714D01*
X156238095Y-88583333D01*
X155809523Y-88202380D02*
X155809523Y-89011904D01*
X155761904Y-89107142D01*
X155714285Y-89154761D01*
X155619047Y-89202380D01*
X155428571Y-89202380D01*
X155333333Y-89154761D01*
X155285714Y-89107142D01*
X155238095Y-89011904D01*
X155238095Y-88202380D01*
X154809523Y-89154761D02*
X154714285Y-89202380D01*
X154523809Y-89202380D01*
X154428571Y-89154761D01*
X154380952Y-89059523D01*
X154380952Y-89011904D01*
X154428571Y-88916666D01*
X154523809Y-88869047D01*
X154666666Y-88869047D01*
X154761904Y-88821428D01*
X154809523Y-88726190D01*
X154809523Y-88678571D01*
X154761904Y-88583333D01*
X154666666Y-88535714D01*
X154523809Y-88535714D01*
X154428571Y-88583333D01*
X154095238Y-88535714D02*
X153714285Y-88535714D01*
X153952380Y-88202380D02*
X153952380Y-89059523D01*
X153904761Y-89154761D01*
X153809523Y-89202380D01*
X153714285Y-89202380D01*
X153238095Y-89202380D02*
X153333333Y-89154761D01*
X153380952Y-89107142D01*
X153428571Y-89011904D01*
X153428571Y-88726190D01*
X153380952Y-88630952D01*
X153333333Y-88583333D01*
X153238095Y-88535714D01*
X153095238Y-88535714D01*
X153000000Y-88583333D01*
X152952380Y-88630952D01*
X152904761Y-88726190D01*
X152904761Y-89011904D01*
X152952380Y-89107142D01*
X153000000Y-89154761D01*
X153095238Y-89202380D01*
X153238095Y-89202380D01*
X152476190Y-89202380D02*
X152476190Y-88535714D01*
X152476190Y-88630952D02*
X152428571Y-88583333D01*
X152333333Y-88535714D01*
X152190476Y-88535714D01*
X152095238Y-88583333D01*
X152047619Y-88678571D01*
X152047619Y-89202380D01*
X152047619Y-88678571D02*
X152000000Y-88583333D01*
X151904761Y-88535714D01*
X151761904Y-88535714D01*
X151666666Y-88583333D01*
X151619047Y-88678571D01*
X151619047Y-89202380D01*
X150380952Y-88535714D02*
X150380952Y-89535714D01*
X150380952Y-88583333D02*
X150285714Y-88535714D01*
X150095238Y-88535714D01*
X150000000Y-88583333D01*
X149952380Y-88630952D01*
X149904761Y-88726190D01*
X149904761Y-89011904D01*
X149952380Y-89107142D01*
X150000000Y-89154761D01*
X150095238Y-89202380D01*
X150285714Y-89202380D01*
X150380952Y-89154761D01*
X148904761Y-89107142D02*
X148952380Y-89154761D01*
X149095238Y-89202380D01*
X149190476Y-89202380D01*
X149333333Y-89154761D01*
X149428571Y-89059523D01*
X149476190Y-88964285D01*
X149523809Y-88773809D01*
X149523809Y-88630952D01*
X149476190Y-88440476D01*
X149428571Y-88345238D01*
X149333333Y-88250000D01*
X149190476Y-88202380D01*
X149095238Y-88202380D01*
X148952380Y-88250000D01*
X148904761Y-88297619D01*
X148476190Y-89202380D02*
X148476190Y-88202380D01*
X148476190Y-88583333D02*
X148380952Y-88535714D01*
X148190476Y-88535714D01*
X148095238Y-88583333D01*
X148047619Y-88630952D01*
X148000000Y-88726190D01*
X148000000Y-89011904D01*
X148047619Y-89107142D01*
X148095238Y-89154761D01*
X148190476Y-89202380D01*
X148380952Y-89202380D01*
X148476190Y-89154761D01*
X165690476Y-86977380D02*
X165690476Y-85977380D01*
X165119047Y-86977380D01*
X165119047Y-85977380D01*
X164500000Y-86977380D02*
X164595238Y-86929761D01*
X164642857Y-86882142D01*
X164690476Y-86786904D01*
X164690476Y-86501190D01*
X164642857Y-86405952D01*
X164595238Y-86358333D01*
X164500000Y-86310714D01*
X164357142Y-86310714D01*
X164261904Y-86358333D01*
X164214285Y-86405952D01*
X164166666Y-86501190D01*
X164166666Y-86786904D01*
X164214285Y-86882142D01*
X164261904Y-86929761D01*
X164357142Y-86977380D01*
X164500000Y-86977380D01*
X163880952Y-86310714D02*
X163500000Y-86310714D01*
X163738095Y-85977380D02*
X163738095Y-86834523D01*
X163690476Y-86929761D01*
X163595238Y-86977380D01*
X163500000Y-86977380D01*
X162023809Y-86929761D02*
X162119047Y-86977380D01*
X162309523Y-86977380D01*
X162404761Y-86929761D01*
X162452380Y-86834523D01*
X162452380Y-86453571D01*
X162404761Y-86358333D01*
X162309523Y-86310714D01*
X162119047Y-86310714D01*
X162023809Y-86358333D01*
X161976190Y-86453571D01*
X161976190Y-86548809D01*
X162452380Y-86644047D01*
X161690476Y-85977380D02*
X161357142Y-86977380D01*
X161023809Y-85977380D01*
X160690476Y-86453571D02*
X160357142Y-86453571D01*
X160214285Y-86977380D02*
X160690476Y-86977380D01*
X160690476Y-85977380D01*
X160214285Y-85977380D01*
X159785714Y-86977380D02*
X159785714Y-86310714D01*
X159785714Y-86501190D02*
X159738095Y-86405952D01*
X159690476Y-86358333D01*
X159595238Y-86310714D01*
X159500000Y-86310714D01*
X159261904Y-86310714D02*
X159023809Y-86977380D01*
X158785714Y-86310714D02*
X159023809Y-86977380D01*
X159119047Y-87215476D01*
X159166666Y-87263095D01*
X159261904Y-87310714D01*
X158547619Y-85977380D02*
X157976190Y-85977380D01*
X158261904Y-86977380D02*
X158261904Y-85977380D01*
X157642857Y-86977380D02*
X157642857Y-85977380D01*
X157214285Y-86977380D02*
X157214285Y-86453571D01*
X157261904Y-86358333D01*
X157357142Y-86310714D01*
X157500000Y-86310714D01*
X157595238Y-86358333D01*
X157642857Y-86405952D01*
X156738095Y-86977380D02*
X156738095Y-86310714D01*
X156738095Y-85977380D02*
X156785714Y-86025000D01*
X156738095Y-86072619D01*
X156690476Y-86025000D01*
X156738095Y-85977380D01*
X156738095Y-86072619D01*
X156261904Y-86977380D02*
X156261904Y-85977380D01*
X155690476Y-86977380D01*
X155690476Y-85977380D01*
X154785714Y-86310714D02*
X154785714Y-87120238D01*
X154833333Y-87215476D01*
X154880952Y-87263095D01*
X154976190Y-87310714D01*
X155119047Y-87310714D01*
X155214285Y-87263095D01*
X154785714Y-86929761D02*
X154880952Y-86977380D01*
X155071428Y-86977380D01*
X155166666Y-86929761D01*
X155214285Y-86882142D01*
X155261904Y-86786904D01*
X155261904Y-86501190D01*
X155214285Y-86405952D01*
X155166666Y-86358333D01*
X155071428Y-86310714D01*
X154880952Y-86310714D01*
X154785714Y-86358333D01*
X153547619Y-86310714D02*
X153547619Y-86977380D01*
X153547619Y-86405952D02*
X153500000Y-86358333D01*
X153404761Y-86310714D01*
X153261904Y-86310714D01*
X153166666Y-86358333D01*
X153119047Y-86453571D01*
X153119047Y-86977380D01*
X152642857Y-86453571D02*
X152309523Y-86453571D01*
X152166666Y-86977380D02*
X152642857Y-86977380D01*
X152642857Y-85977380D01*
X152166666Y-85977380D01*
X151357142Y-86929761D02*
X151452380Y-86977380D01*
X151642857Y-86977380D01*
X151738095Y-86929761D01*
X151785714Y-86834523D01*
X151785714Y-86453571D01*
X151738095Y-86358333D01*
X151642857Y-86310714D01*
X151452380Y-86310714D01*
X151357142Y-86358333D01*
X151309523Y-86453571D01*
X151309523Y-86548809D01*
X151785714Y-86644047D01*
X150452380Y-86977380D02*
X150452380Y-85977380D01*
X150452380Y-86929761D02*
X150547619Y-86977380D01*
X150738095Y-86977380D01*
X150833333Y-86929761D01*
X150880952Y-86882142D01*
X150928571Y-86786904D01*
X150928571Y-86501190D01*
X150880952Y-86405952D01*
X150833333Y-86358333D01*
X150738095Y-86310714D01*
X150547619Y-86310714D01*
X150452380Y-86358333D01*
X150023809Y-86929761D02*
X149880952Y-86977380D01*
X149642857Y-86977380D01*
X149547619Y-86929761D01*
X149500000Y-86882142D01*
X149452380Y-86786904D01*
X149452380Y-86691666D01*
X149500000Y-86596428D01*
X149547619Y-86548809D01*
X149642857Y-86501190D01*
X149833333Y-86453571D01*
X149928571Y-86405952D01*
X149976190Y-86358333D01*
X150023809Y-86263095D01*
X150023809Y-86167857D01*
X149976190Y-86072619D01*
X149928571Y-86025000D01*
X149833333Y-85977380D01*
X149595238Y-85977380D01*
X149452380Y-86025000D01*
X148404761Y-85977380D02*
X147833333Y-85977380D01*
X148119047Y-86977380D02*
X148119047Y-85977380D01*
X147357142Y-86977380D02*
X147452380Y-86929761D01*
X147500000Y-86882142D01*
X147547619Y-86786904D01*
X147547619Y-86501190D01*
X147500000Y-86405952D01*
X147452380Y-86358333D01*
X147357142Y-86310714D01*
X147214285Y-86310714D01*
X147119047Y-86358333D01*
X147071428Y-86405952D01*
X147023809Y-86501190D01*
X147023809Y-86786904D01*
X147071428Y-86882142D01*
X147119047Y-86929761D01*
X147214285Y-86977380D01*
X147357142Y-86977380D01*
M02*
