%TF.GenerationSoftware,KiCad,Pcbnew,(6.0.0)*%
%TF.CreationDate,2024-07-10T16:52:07-07:00*%
%TF.ProjectId,pre_cursed_dc_inlet,7072655f-6375-4727-9365-645f64635f69,rev?*%
%TF.SameCoordinates,Original*%
%TF.FileFunction,Copper,L2,Bot*%
%TF.FilePolarity,Positive*%
%FSLAX46Y46*%
G04 Gerber Fmt 4.6, Leading zero omitted, Abs format (unit mm)*
G04 Created by KiCad (PCBNEW (6.0.0)) date 2024-07-10 16:52:07*
%MOMM*%
%LPD*%
G01*
G04 APERTURE LIST*
%TA.AperFunction,ComponentPad*%
%ADD10C,1.700000*%
%TD*%
%TA.AperFunction,ComponentPad*%
%ADD11C,6.400000*%
%TD*%
%TA.AperFunction,ComponentPad*%
%ADD12C,3.420000*%
%TD*%
%TA.AperFunction,ComponentPad*%
%ADD13C,3.360000*%
%TD*%
G04 APERTURE END LIST*
D10*
%TO.P,V-,1*%
%TO.N,V-*%
X155760000Y-92080000D03*
X148140000Y-102240000D03*
X155760000Y-94620000D03*
X155760000Y-97160000D03*
X148140000Y-97160000D03*
X155760000Y-102240000D03*
X155760000Y-99700000D03*
X148140000Y-92080000D03*
X148140000Y-94620000D03*
X148140000Y-99700000D03*
%TD*%
D11*
%TO.P,REF\u002A\u002A,1*%
%TO.N,V-*%
X159223204Y-108510366D03*
%TD*%
%TO.P,REF\u002A\u002A,1*%
%TO.N,V-*%
X138252832Y-108510366D03*
%TD*%
D10*
%TO.P,V+,1*%
%TO.N,V+*%
X167610000Y-92080000D03*
X159990000Y-102240000D03*
X167610000Y-94620000D03*
X167610000Y-97160000D03*
X159990000Y-97160000D03*
X167610000Y-102240000D03*
X167610000Y-99700000D03*
X159990000Y-92080000D03*
X159990000Y-94620000D03*
X159990000Y-99700000D03*
%TD*%
D12*
%TO.P,Vin,1*%
%TO.N,V+*%
X138180000Y-95390000D03*
%TO.P,Vin,2*%
%TO.N,V-*%
X138180000Y-89390000D03*
D13*
%TO.P,Vin,MH1*%
X142930000Y-93590000D03*
%TO.P,Vin,MH2*%
X142930000Y-88890000D03*
%TO.P,Vin,MH3*%
X133430000Y-93590000D03*
%TO.P,Vin,MH4*%
X133430000Y-88890000D03*
%TD*%
%TA.AperFunction,Conductor*%
%TO.N,V+*%
G36*
X137225433Y-85028002D02*
G01*
X137271926Y-85081658D01*
X137282030Y-85151932D01*
X137252536Y-85216512D01*
X137246407Y-85223095D01*
X137173802Y-85295700D01*
X137042477Y-85483251D01*
X137040154Y-85488233D01*
X137040151Y-85488238D01*
X136948039Y-85685775D01*
X136945716Y-85690757D01*
X136886457Y-85911913D01*
X136866502Y-86140000D01*
X136886457Y-86368087D01*
X136945716Y-86589243D01*
X136948039Y-86594224D01*
X136948039Y-86594225D01*
X137040151Y-86791762D01*
X137040154Y-86791767D01*
X137042477Y-86796749D01*
X137115902Y-86901611D01*
X137146992Y-86946011D01*
X137173802Y-86984300D01*
X137335700Y-87146198D01*
X137333992Y-87147906D01*
X137367632Y-87198514D01*
X137368728Y-87269503D01*
X137331271Y-87329814D01*
X137303026Y-87348881D01*
X137072074Y-87462773D01*
X137072069Y-87462776D01*
X137068370Y-87464600D01*
X137064937Y-87466894D01*
X136829996Y-87623876D01*
X136829991Y-87623880D01*
X136826565Y-87626169D01*
X136823471Y-87628883D01*
X136823465Y-87628887D01*
X136685199Y-87750144D01*
X136607918Y-87817918D01*
X136605209Y-87821007D01*
X136418887Y-88033465D01*
X136418883Y-88033471D01*
X136416169Y-88036565D01*
X136413880Y-88039991D01*
X136413876Y-88039996D01*
X136338776Y-88152392D01*
X136254600Y-88278370D01*
X136252776Y-88282069D01*
X136252773Y-88282074D01*
X136209213Y-88370406D01*
X136125976Y-88539195D01*
X136032496Y-88814578D01*
X136031692Y-88818622D01*
X136031690Y-88818628D01*
X136022063Y-88867029D01*
X135975760Y-89099806D01*
X135956740Y-89390000D01*
X135975760Y-89680194D01*
X135976562Y-89684227D01*
X135976563Y-89684233D01*
X136031690Y-89961372D01*
X136032496Y-89965422D01*
X136033823Y-89969331D01*
X136033824Y-89969335D01*
X136065154Y-90061629D01*
X136125976Y-90240805D01*
X136156367Y-90302432D01*
X136241967Y-90476012D01*
X136254600Y-90501630D01*
X136256894Y-90505063D01*
X136402402Y-90722831D01*
X136416169Y-90743435D01*
X136418883Y-90746529D01*
X136418887Y-90746535D01*
X136511977Y-90852683D01*
X136607918Y-90962082D01*
X136611007Y-90964791D01*
X136823465Y-91151113D01*
X136823471Y-91151117D01*
X136826565Y-91153831D01*
X136829991Y-91156120D01*
X136829996Y-91156124D01*
X137011196Y-91277197D01*
X137068370Y-91315400D01*
X137072069Y-91317224D01*
X137072074Y-91317227D01*
X137205680Y-91383113D01*
X137329195Y-91444024D01*
X137333100Y-91445349D01*
X137333101Y-91445350D01*
X137600665Y-91536176D01*
X137600669Y-91536177D01*
X137604578Y-91537504D01*
X137608622Y-91538308D01*
X137608628Y-91538310D01*
X137885767Y-91593437D01*
X137885773Y-91593438D01*
X137889806Y-91594240D01*
X137893911Y-91594509D01*
X137893918Y-91594510D01*
X138175881Y-91612990D01*
X138180000Y-91613260D01*
X138184119Y-91612990D01*
X138466082Y-91594510D01*
X138466089Y-91594509D01*
X138470194Y-91594240D01*
X138474227Y-91593438D01*
X138474233Y-91593437D01*
X138751372Y-91538310D01*
X138751378Y-91538308D01*
X138755422Y-91537504D01*
X138759331Y-91536177D01*
X138759335Y-91536176D01*
X139026899Y-91445350D01*
X139026900Y-91445349D01*
X139030805Y-91444024D01*
X139154320Y-91383113D01*
X139287926Y-91317227D01*
X139287931Y-91317224D01*
X139291630Y-91315400D01*
X139348804Y-91277197D01*
X139530004Y-91156124D01*
X139530009Y-91156120D01*
X139533435Y-91153831D01*
X139536529Y-91151117D01*
X139536535Y-91151113D01*
X139748993Y-90964791D01*
X139752082Y-90962082D01*
X139848023Y-90852683D01*
X139941113Y-90746535D01*
X139941117Y-90746529D01*
X139943831Y-90743435D01*
X139957599Y-90722831D01*
X140103106Y-90505063D01*
X140105400Y-90501630D01*
X140118034Y-90476012D01*
X140203633Y-90302432D01*
X140234024Y-90240805D01*
X140294846Y-90061629D01*
X140326176Y-89969335D01*
X140326177Y-89969331D01*
X140327504Y-89965422D01*
X140328310Y-89961372D01*
X140383437Y-89684233D01*
X140383438Y-89684227D01*
X140384240Y-89680194D01*
X140403260Y-89390000D01*
X140384240Y-89099806D01*
X140337938Y-88867029D01*
X140736506Y-88867029D01*
X140753683Y-89164933D01*
X140754508Y-89169140D01*
X140754509Y-89169145D01*
X140767068Y-89233157D01*
X140811132Y-89457749D01*
X140812519Y-89461800D01*
X140885884Y-89676082D01*
X140907788Y-89740060D01*
X140909714Y-89743889D01*
X141023102Y-89969335D01*
X141041864Y-90006640D01*
X141044290Y-90010169D01*
X141044293Y-90010175D01*
X141084621Y-90068852D01*
X141210879Y-90252558D01*
X141411705Y-90473263D01*
X141449737Y-90505063D01*
X141637334Y-90661919D01*
X141637339Y-90661923D01*
X141640626Y-90664671D01*
X141760717Y-90740004D01*
X141889766Y-90820957D01*
X141889770Y-90820959D01*
X141893406Y-90823240D01*
X141897316Y-90825005D01*
X141897317Y-90825006D01*
X142161455Y-90944269D01*
X142161459Y-90944271D01*
X142165367Y-90946035D01*
X142219541Y-90962082D01*
X142447365Y-91029567D01*
X142447369Y-91029568D01*
X142451478Y-91030785D01*
X142455712Y-91031433D01*
X142455717Y-91031434D01*
X142715150Y-91071132D01*
X142746443Y-91075921D01*
X142898363Y-91078308D01*
X143040514Y-91080541D01*
X143040520Y-91080541D01*
X143044805Y-91080608D01*
X143341042Y-91044759D01*
X143629674Y-90969038D01*
X143633634Y-90967398D01*
X143633639Y-90967396D01*
X143782362Y-90905793D01*
X143905358Y-90854846D01*
X143936518Y-90836638D01*
X144159296Y-90706457D01*
X144159297Y-90706457D01*
X144162994Y-90704296D01*
X144213530Y-90664671D01*
X144394442Y-90522817D01*
X144397814Y-90520173D01*
X144415784Y-90501630D01*
X144602491Y-90308963D01*
X144605474Y-90305885D01*
X144608007Y-90302437D01*
X144608011Y-90302432D01*
X144779592Y-90068852D01*
X144782130Y-90065397D01*
X144814032Y-90006640D01*
X144922463Y-89806935D01*
X144922464Y-89806933D01*
X144924513Y-89803159D01*
X145029989Y-89524024D01*
X145096607Y-89233157D01*
X145123133Y-88935940D01*
X145123614Y-88890000D01*
X145118472Y-88814578D01*
X145103610Y-88596569D01*
X145103609Y-88596563D01*
X145103318Y-88592292D01*
X145098609Y-88569550D01*
X145072195Y-88442003D01*
X145042807Y-88300094D01*
X144943199Y-88018811D01*
X144806339Y-87753649D01*
X144790123Y-87730575D01*
X144637221Y-87513019D01*
X144634758Y-87509514D01*
X144467771Y-87329814D01*
X144434553Y-87294067D01*
X144434550Y-87294064D01*
X144431632Y-87290924D01*
X144200719Y-87101924D01*
X144147803Y-87069497D01*
X143949943Y-86948247D01*
X143949935Y-86948243D01*
X143946293Y-86946011D01*
X143942376Y-86944292D01*
X143942373Y-86944290D01*
X143821453Y-86891210D01*
X143673060Y-86826071D01*
X143668932Y-86824895D01*
X143668929Y-86824894D01*
X143552617Y-86791762D01*
X143386078Y-86744322D01*
X143381836Y-86743718D01*
X143381830Y-86743717D01*
X143094907Y-86702882D01*
X143090656Y-86702277D01*
X142934109Y-86701458D01*
X142796549Y-86700737D01*
X142796543Y-86700737D01*
X142792262Y-86700715D01*
X142788018Y-86701274D01*
X142788014Y-86701274D01*
X142658290Y-86718352D01*
X142496416Y-86739663D01*
X142492276Y-86740796D01*
X142492274Y-86740796D01*
X142475083Y-86745499D01*
X142208594Y-86818403D01*
X142141889Y-86846855D01*
X141938062Y-86933794D01*
X141938055Y-86933798D01*
X141934120Y-86935476D01*
X141678075Y-87088716D01*
X141674724Y-87091400D01*
X141674722Y-87091402D01*
X141658198Y-87104640D01*
X141445195Y-87275287D01*
X141239791Y-87491738D01*
X141065663Y-87734062D01*
X140926034Y-87997777D01*
X140924562Y-88001800D01*
X140924560Y-88001804D01*
X140832438Y-88253538D01*
X140823486Y-88278001D01*
X140759918Y-88569550D01*
X140736506Y-88867029D01*
X140337938Y-88867029D01*
X140328310Y-88818628D01*
X140328308Y-88818622D01*
X140327504Y-88814578D01*
X140234024Y-88539195D01*
X140150787Y-88370406D01*
X140107227Y-88282074D01*
X140107224Y-88282069D01*
X140105400Y-88278370D01*
X140021224Y-88152392D01*
X139946124Y-88039996D01*
X139946120Y-88039991D01*
X139943831Y-88036565D01*
X139941117Y-88033471D01*
X139941113Y-88033465D01*
X139754791Y-87821007D01*
X139752082Y-87817918D01*
X139674801Y-87750144D01*
X139536535Y-87628887D01*
X139536529Y-87628883D01*
X139533435Y-87626169D01*
X139530009Y-87623880D01*
X139530004Y-87623876D01*
X139295063Y-87466894D01*
X139291630Y-87464600D01*
X139287931Y-87462776D01*
X139287926Y-87462773D01*
X139056974Y-87348881D01*
X139004725Y-87300813D01*
X138986758Y-87232127D01*
X139008777Y-87164632D01*
X139024926Y-87146824D01*
X139024300Y-87146198D01*
X139186198Y-86984300D01*
X139213009Y-86946011D01*
X139244098Y-86901611D01*
X139317523Y-86796749D01*
X139319846Y-86791767D01*
X139319849Y-86791762D01*
X139411961Y-86594225D01*
X139411961Y-86594224D01*
X139414284Y-86589243D01*
X139473543Y-86368087D01*
X139493498Y-86140000D01*
X139473543Y-85911913D01*
X139414284Y-85690757D01*
X139411961Y-85685775D01*
X139319849Y-85488238D01*
X139319846Y-85488233D01*
X139317523Y-85483251D01*
X139186198Y-85295700D01*
X139113593Y-85223095D01*
X139079567Y-85160783D01*
X139084632Y-85089968D01*
X139127179Y-85033132D01*
X139193699Y-85008321D01*
X139202688Y-85008000D01*
X166079106Y-85008000D01*
X166147227Y-85028002D01*
X166168201Y-85044905D01*
X169796811Y-88673515D01*
X169830837Y-88735827D01*
X169833716Y-88762610D01*
X169833716Y-105987385D01*
X169813714Y-106055506D01*
X169796811Y-106076480D01*
X163418201Y-112455091D01*
X163355889Y-112489117D01*
X163329106Y-112491996D01*
X134146930Y-112491996D01*
X134078809Y-112471994D01*
X134057835Y-112455091D01*
X130113109Y-108510366D01*
X134539243Y-108510366D01*
X134559586Y-108898542D01*
X134620394Y-109282465D01*
X134720999Y-109657928D01*
X134860300Y-110020819D01*
X135036770Y-110367160D01*
X135248475Y-110693159D01*
X135493098Y-110995242D01*
X135767956Y-111270100D01*
X136070039Y-111514723D01*
X136396037Y-111726428D01*
X136398971Y-111727923D01*
X136398978Y-111727927D01*
X136739439Y-111901400D01*
X136742379Y-111902898D01*
X137105270Y-112042199D01*
X137480733Y-112142804D01*
X137684625Y-112175098D01*
X137861408Y-112203098D01*
X137861416Y-112203099D01*
X137864656Y-112203612D01*
X138252832Y-112223955D01*
X138641008Y-112203612D01*
X138644248Y-112203099D01*
X138644256Y-112203098D01*
X138821039Y-112175098D01*
X139024931Y-112142804D01*
X139400394Y-112042199D01*
X139763285Y-111902898D01*
X139766225Y-111901400D01*
X140106686Y-111727927D01*
X140106693Y-111727923D01*
X140109627Y-111726428D01*
X140435625Y-111514723D01*
X140737708Y-111270100D01*
X141012566Y-110995242D01*
X141257189Y-110693159D01*
X141468894Y-110367160D01*
X141645364Y-110020819D01*
X141784665Y-109657928D01*
X141885270Y-109282465D01*
X141946078Y-108898542D01*
X141966421Y-108510366D01*
X155509615Y-108510366D01*
X155529958Y-108898542D01*
X155590766Y-109282465D01*
X155691371Y-109657928D01*
X155830672Y-110020819D01*
X156007142Y-110367160D01*
X156218847Y-110693159D01*
X156463470Y-110995242D01*
X156738328Y-111270100D01*
X157040411Y-111514723D01*
X157366409Y-111726428D01*
X157369343Y-111727923D01*
X157369350Y-111727927D01*
X157709811Y-111901400D01*
X157712751Y-111902898D01*
X158075642Y-112042199D01*
X158451105Y-112142804D01*
X158654997Y-112175098D01*
X158831780Y-112203098D01*
X158831788Y-112203099D01*
X158835028Y-112203612D01*
X159223204Y-112223955D01*
X159611380Y-112203612D01*
X159614620Y-112203099D01*
X159614628Y-112203098D01*
X159791411Y-112175098D01*
X159995303Y-112142804D01*
X160370766Y-112042199D01*
X160733657Y-111902898D01*
X160736597Y-111901400D01*
X161077058Y-111727927D01*
X161077065Y-111727923D01*
X161079999Y-111726428D01*
X161405997Y-111514723D01*
X161708080Y-111270100D01*
X161982938Y-110995242D01*
X162227561Y-110693159D01*
X162439266Y-110367160D01*
X162615736Y-110020819D01*
X162755037Y-109657928D01*
X162855642Y-109282465D01*
X162916450Y-108898542D01*
X162936793Y-108510366D01*
X162916450Y-108122190D01*
X162855642Y-107738267D01*
X162755037Y-107362804D01*
X162615736Y-106999913D01*
X162439266Y-106653572D01*
X162393705Y-106583413D01*
X162229356Y-106330337D01*
X162229356Y-106330336D01*
X162227561Y-106327573D01*
X161982938Y-106025490D01*
X161708080Y-105750632D01*
X161405997Y-105506009D01*
X161079999Y-105294304D01*
X161077065Y-105292809D01*
X161077058Y-105292805D01*
X160736597Y-105119332D01*
X160733657Y-105117834D01*
X160370766Y-104978533D01*
X159995303Y-104877928D01*
X159791411Y-104845634D01*
X159614628Y-104817634D01*
X159614620Y-104817633D01*
X159611380Y-104817120D01*
X159223204Y-104796777D01*
X158835028Y-104817120D01*
X158831788Y-104817633D01*
X158831780Y-104817634D01*
X158654997Y-104845634D01*
X158451105Y-104877928D01*
X158075642Y-104978533D01*
X157712751Y-105117834D01*
X157709811Y-105119332D01*
X157369351Y-105292805D01*
X157369344Y-105292809D01*
X157366410Y-105294304D01*
X157040411Y-105506009D01*
X156738328Y-105750632D01*
X156463470Y-106025490D01*
X156218847Y-106327573D01*
X156217052Y-106330336D01*
X156217052Y-106330337D01*
X156052704Y-106583413D01*
X156007142Y-106653572D01*
X155830672Y-106999913D01*
X155691371Y-107362804D01*
X155590766Y-107738267D01*
X155529958Y-108122190D01*
X155509615Y-108510366D01*
X141966421Y-108510366D01*
X141946078Y-108122190D01*
X141885270Y-107738267D01*
X141784665Y-107362804D01*
X141645364Y-106999913D01*
X141468894Y-106653572D01*
X141423333Y-106583413D01*
X141258984Y-106330337D01*
X141258984Y-106330336D01*
X141257189Y-106327573D01*
X141012566Y-106025490D01*
X140737708Y-105750632D01*
X140435625Y-105506009D01*
X140109627Y-105294304D01*
X140106693Y-105292809D01*
X140106686Y-105292805D01*
X139766225Y-105119332D01*
X139763285Y-105117834D01*
X139400394Y-104978533D01*
X139024931Y-104877928D01*
X138821039Y-104845634D01*
X138644256Y-104817634D01*
X138644248Y-104817633D01*
X138641008Y-104817120D01*
X138252832Y-104796777D01*
X137864656Y-104817120D01*
X137861416Y-104817633D01*
X137861408Y-104817634D01*
X137684625Y-104845634D01*
X137480733Y-104877928D01*
X137105270Y-104978533D01*
X136742379Y-105117834D01*
X136739439Y-105119332D01*
X136398979Y-105292805D01*
X136398972Y-105292809D01*
X136396038Y-105294304D01*
X136070039Y-105506009D01*
X135767956Y-105750632D01*
X135493098Y-106025490D01*
X135248475Y-106327573D01*
X135246680Y-106330336D01*
X135246680Y-106330337D01*
X135082332Y-106583413D01*
X135036770Y-106653572D01*
X134860300Y-106999913D01*
X134720999Y-107362804D01*
X134620394Y-107738267D01*
X134559586Y-108122190D01*
X134539243Y-108510366D01*
X130113109Y-108510366D01*
X127679224Y-106076481D01*
X127645198Y-106014169D01*
X127642319Y-105987386D01*
X127642319Y-102206695D01*
X146777251Y-102206695D01*
X146777548Y-102211848D01*
X146777548Y-102211851D01*
X146783011Y-102306590D01*
X146790110Y-102429715D01*
X146791247Y-102434761D01*
X146791248Y-102434767D01*
X146811119Y-102522939D01*
X146839222Y-102647639D01*
X146923266Y-102854616D01*
X147039987Y-103045088D01*
X147186250Y-103213938D01*
X147358126Y-103356632D01*
X147551000Y-103469338D01*
X147759692Y-103549030D01*
X147764760Y-103550061D01*
X147764763Y-103550062D01*
X147872017Y-103571883D01*
X147978597Y-103593567D01*
X147983772Y-103593757D01*
X147983774Y-103593757D01*
X148196673Y-103601564D01*
X148196677Y-103601564D01*
X148201837Y-103601753D01*
X148206957Y-103601097D01*
X148206959Y-103601097D01*
X148418288Y-103574025D01*
X148418289Y-103574025D01*
X148423416Y-103573368D01*
X148428366Y-103571883D01*
X148632429Y-103510661D01*
X148632434Y-103510659D01*
X148637384Y-103509174D01*
X148837994Y-103410896D01*
X149019860Y-103281173D01*
X149178096Y-103123489D01*
X149237594Y-103040689D01*
X149305435Y-102946277D01*
X149308453Y-102942077D01*
X149407430Y-102741811D01*
X149472370Y-102528069D01*
X149501529Y-102306590D01*
X149503156Y-102240000D01*
X149500418Y-102206695D01*
X154397251Y-102206695D01*
X154397548Y-102211848D01*
X154397548Y-102211851D01*
X154403011Y-102306590D01*
X154410110Y-102429715D01*
X154411247Y-102434761D01*
X154411248Y-102434767D01*
X154431119Y-102522939D01*
X154459222Y-102647639D01*
X154543266Y-102854616D01*
X154659987Y-103045088D01*
X154806250Y-103213938D01*
X154978126Y-103356632D01*
X155171000Y-103469338D01*
X155379692Y-103549030D01*
X155384760Y-103550061D01*
X155384763Y-103550062D01*
X155492017Y-103571883D01*
X155598597Y-103593567D01*
X155603772Y-103593757D01*
X155603774Y-103593757D01*
X155816673Y-103601564D01*
X155816677Y-103601564D01*
X155821837Y-103601753D01*
X155826957Y-103601097D01*
X155826959Y-103601097D01*
X156038288Y-103574025D01*
X156038289Y-103574025D01*
X156043416Y-103573368D01*
X156048366Y-103571883D01*
X156252429Y-103510661D01*
X156252434Y-103510659D01*
X156257384Y-103509174D01*
X156457994Y-103410896D01*
X156639860Y-103281173D01*
X156798096Y-103123489D01*
X156857594Y-103040689D01*
X156925435Y-102946277D01*
X156928453Y-102942077D01*
X157027430Y-102741811D01*
X157092370Y-102528069D01*
X157121529Y-102306590D01*
X157123156Y-102240000D01*
X157104852Y-102017361D01*
X157050431Y-101800702D01*
X156961354Y-101595840D01*
X156840014Y-101408277D01*
X156689670Y-101243051D01*
X156685619Y-101239852D01*
X156685615Y-101239848D01*
X156518414Y-101107800D01*
X156518410Y-101107798D01*
X156514359Y-101104598D01*
X156473053Y-101081796D01*
X156423084Y-101031364D01*
X156408312Y-100961921D01*
X156433428Y-100895516D01*
X156460780Y-100868909D01*
X156504603Y-100837650D01*
X156639860Y-100741173D01*
X156798096Y-100583489D01*
X156857594Y-100500689D01*
X156925435Y-100406277D01*
X156928453Y-100402077D01*
X157027430Y-100201811D01*
X157092370Y-99988069D01*
X157121529Y-99766590D01*
X157123156Y-99700000D01*
X157104852Y-99477361D01*
X157050431Y-99260702D01*
X156961354Y-99055840D01*
X156840014Y-98868277D01*
X156689670Y-98703051D01*
X156685619Y-98699852D01*
X156685615Y-98699848D01*
X156518414Y-98567800D01*
X156518410Y-98567798D01*
X156514359Y-98564598D01*
X156473053Y-98541796D01*
X156423084Y-98491364D01*
X156408312Y-98421921D01*
X156433428Y-98355516D01*
X156460780Y-98328909D01*
X156504603Y-98297650D01*
X156639860Y-98201173D01*
X156798096Y-98043489D01*
X156857594Y-97960689D01*
X156925435Y-97866277D01*
X156928453Y-97862077D01*
X157027430Y-97661811D01*
X157092370Y-97448069D01*
X157121529Y-97226590D01*
X157123156Y-97160000D01*
X157104852Y-96937361D01*
X157050431Y-96720702D01*
X156961354Y-96515840D01*
X156840014Y-96328277D01*
X156689670Y-96163051D01*
X156685619Y-96159852D01*
X156685615Y-96159848D01*
X156518414Y-96027800D01*
X156518410Y-96027798D01*
X156514359Y-96024598D01*
X156473053Y-96001796D01*
X156423084Y-95951364D01*
X156408312Y-95881921D01*
X156433428Y-95815516D01*
X156460780Y-95788909D01*
X156524203Y-95743670D01*
X156639860Y-95661173D01*
X156798096Y-95503489D01*
X156857594Y-95420689D01*
X156925435Y-95326277D01*
X156928453Y-95322077D01*
X157000643Y-95176012D01*
X157025136Y-95126453D01*
X157025137Y-95126451D01*
X157027430Y-95121811D01*
X157092370Y-94908069D01*
X157121529Y-94686590D01*
X157123156Y-94620000D01*
X157104852Y-94397361D01*
X157050431Y-94180702D01*
X156961354Y-93975840D01*
X156840014Y-93788277D01*
X156689670Y-93623051D01*
X156685619Y-93619852D01*
X156685615Y-93619848D01*
X156518414Y-93487800D01*
X156518410Y-93487798D01*
X156514359Y-93484598D01*
X156473053Y-93461796D01*
X156423084Y-93411364D01*
X156408312Y-93341921D01*
X156433428Y-93275516D01*
X156460780Y-93248909D01*
X156504603Y-93217650D01*
X156639860Y-93121173D01*
X156798096Y-92963489D01*
X156857594Y-92880689D01*
X156925435Y-92786277D01*
X156928453Y-92782077D01*
X156961604Y-92715002D01*
X157025136Y-92586453D01*
X157025137Y-92586451D01*
X157027430Y-92581811D01*
X157092370Y-92368069D01*
X157121529Y-92146590D01*
X157123156Y-92080000D01*
X157104852Y-91857361D01*
X157050431Y-91640702D01*
X156961354Y-91435840D01*
X156840014Y-91248277D01*
X156689670Y-91083051D01*
X156685619Y-91079852D01*
X156685615Y-91079848D01*
X156518414Y-90947800D01*
X156518410Y-90947798D01*
X156514359Y-90944598D01*
X156318789Y-90836638D01*
X156313920Y-90834914D01*
X156313916Y-90834912D01*
X156113087Y-90763795D01*
X156113083Y-90763794D01*
X156108212Y-90762069D01*
X156103119Y-90761162D01*
X156103116Y-90761161D01*
X155893373Y-90723800D01*
X155893367Y-90723799D01*
X155888284Y-90722894D01*
X155814452Y-90721992D01*
X155670081Y-90720228D01*
X155670079Y-90720228D01*
X155664911Y-90720165D01*
X155444091Y-90753955D01*
X155231756Y-90823357D01*
X155033607Y-90926507D01*
X155029474Y-90929610D01*
X155029471Y-90929612D01*
X154859100Y-91057530D01*
X154854965Y-91060635D01*
X154835942Y-91080541D01*
X154763714Y-91156124D01*
X154700629Y-91222138D01*
X154574743Y-91406680D01*
X154559693Y-91439103D01*
X154487556Y-91594510D01*
X154480688Y-91609305D01*
X154420989Y-91824570D01*
X154397251Y-92046695D01*
X154397548Y-92051848D01*
X154397548Y-92051851D01*
X154403011Y-92146590D01*
X154410110Y-92269715D01*
X154411247Y-92274761D01*
X154411248Y-92274767D01*
X154431119Y-92362939D01*
X154459222Y-92487639D01*
X154543266Y-92694616D01*
X154659987Y-92885088D01*
X154806250Y-93053938D01*
X154978126Y-93196632D01*
X155048595Y-93237811D01*
X155051445Y-93239476D01*
X155100169Y-93291114D01*
X155113240Y-93360897D01*
X155086509Y-93426669D01*
X155046055Y-93460027D01*
X155033607Y-93466507D01*
X155029474Y-93469610D01*
X155029471Y-93469612D01*
X154859100Y-93597530D01*
X154854965Y-93600635D01*
X154700629Y-93762138D01*
X154574743Y-93946680D01*
X154480688Y-94149305D01*
X154420989Y-94364570D01*
X154397251Y-94586695D01*
X154397548Y-94591848D01*
X154397548Y-94591851D01*
X154403011Y-94686590D01*
X154410110Y-94809715D01*
X154411247Y-94814761D01*
X154411248Y-94814767D01*
X154431119Y-94902939D01*
X154459222Y-95027639D01*
X154543266Y-95234616D01*
X154545965Y-95239020D01*
X154647246Y-95404296D01*
X154659987Y-95425088D01*
X154806250Y-95593938D01*
X154978126Y-95736632D01*
X154992034Y-95744759D01*
X155051445Y-95779476D01*
X155100169Y-95831114D01*
X155113240Y-95900897D01*
X155086509Y-95966669D01*
X155046055Y-96000027D01*
X155033607Y-96006507D01*
X155029474Y-96009610D01*
X155029471Y-96009612D01*
X155005247Y-96027800D01*
X154854965Y-96140635D01*
X154700629Y-96302138D01*
X154574743Y-96486680D01*
X154480688Y-96689305D01*
X154420989Y-96904570D01*
X154397251Y-97126695D01*
X154397548Y-97131848D01*
X154397548Y-97131851D01*
X154403011Y-97226590D01*
X154410110Y-97349715D01*
X154411247Y-97354761D01*
X154411248Y-97354767D01*
X154431119Y-97442939D01*
X154459222Y-97567639D01*
X154543266Y-97774616D01*
X154659987Y-97965088D01*
X154806250Y-98133938D01*
X154978126Y-98276632D01*
X155048595Y-98317811D01*
X155051445Y-98319476D01*
X155100169Y-98371114D01*
X155113240Y-98440897D01*
X155086509Y-98506669D01*
X155046055Y-98540027D01*
X155033607Y-98546507D01*
X155029474Y-98549610D01*
X155029471Y-98549612D01*
X155005247Y-98567800D01*
X154854965Y-98680635D01*
X154700629Y-98842138D01*
X154574743Y-99026680D01*
X154480688Y-99229305D01*
X154420989Y-99444570D01*
X154397251Y-99666695D01*
X154397548Y-99671848D01*
X154397548Y-99671851D01*
X154403011Y-99766590D01*
X154410110Y-99889715D01*
X154411247Y-99894761D01*
X154411248Y-99894767D01*
X154431119Y-99982939D01*
X154459222Y-100107639D01*
X154543266Y-100314616D01*
X154659987Y-100505088D01*
X154806250Y-100673938D01*
X154978126Y-100816632D01*
X155048595Y-100857811D01*
X155051445Y-100859476D01*
X155100169Y-100911114D01*
X155113240Y-100980897D01*
X155086509Y-101046669D01*
X155046055Y-101080027D01*
X155033607Y-101086507D01*
X155029474Y-101089610D01*
X155029471Y-101089612D01*
X155005247Y-101107800D01*
X154854965Y-101220635D01*
X154700629Y-101382138D01*
X154574743Y-101566680D01*
X154480688Y-101769305D01*
X154420989Y-101984570D01*
X154397251Y-102206695D01*
X149500418Y-102206695D01*
X149484852Y-102017361D01*
X149430431Y-101800702D01*
X149341354Y-101595840D01*
X149220014Y-101408277D01*
X149069670Y-101243051D01*
X149065619Y-101239852D01*
X149065615Y-101239848D01*
X148898414Y-101107800D01*
X148898410Y-101107798D01*
X148894359Y-101104598D01*
X148853053Y-101081796D01*
X148803084Y-101031364D01*
X148788312Y-100961921D01*
X148813428Y-100895516D01*
X148840780Y-100868909D01*
X148884603Y-100837650D01*
X149019860Y-100741173D01*
X149178096Y-100583489D01*
X149237594Y-100500689D01*
X149305435Y-100406277D01*
X149308453Y-100402077D01*
X149407430Y-100201811D01*
X149472370Y-99988069D01*
X149501529Y-99766590D01*
X149503156Y-99700000D01*
X149484852Y-99477361D01*
X149430431Y-99260702D01*
X149341354Y-99055840D01*
X149220014Y-98868277D01*
X149069670Y-98703051D01*
X149065619Y-98699852D01*
X149065615Y-98699848D01*
X148898414Y-98567800D01*
X148898410Y-98567798D01*
X148894359Y-98564598D01*
X148853053Y-98541796D01*
X148803084Y-98491364D01*
X148788312Y-98421921D01*
X148813428Y-98355516D01*
X148840780Y-98328909D01*
X148884603Y-98297650D01*
X149019860Y-98201173D01*
X149178096Y-98043489D01*
X149237594Y-97960689D01*
X149305435Y-97866277D01*
X149308453Y-97862077D01*
X149407430Y-97661811D01*
X149472370Y-97448069D01*
X149501529Y-97226590D01*
X149503156Y-97160000D01*
X149484852Y-96937361D01*
X149430431Y-96720702D01*
X149341354Y-96515840D01*
X149220014Y-96328277D01*
X149069670Y-96163051D01*
X149065619Y-96159852D01*
X149065615Y-96159848D01*
X148898414Y-96027800D01*
X148898410Y-96027798D01*
X148894359Y-96024598D01*
X148853053Y-96001796D01*
X148803084Y-95951364D01*
X148788312Y-95881921D01*
X148813428Y-95815516D01*
X148840780Y-95788909D01*
X148904203Y-95743670D01*
X149019860Y-95661173D01*
X149178096Y-95503489D01*
X149237594Y-95420689D01*
X149305435Y-95326277D01*
X149308453Y-95322077D01*
X149380643Y-95176012D01*
X149405136Y-95126453D01*
X149405137Y-95126451D01*
X149407430Y-95121811D01*
X149472370Y-94908069D01*
X149501529Y-94686590D01*
X149503156Y-94620000D01*
X149484852Y-94397361D01*
X149430431Y-94180702D01*
X149341354Y-93975840D01*
X149220014Y-93788277D01*
X149069670Y-93623051D01*
X149065619Y-93619852D01*
X149065615Y-93619848D01*
X148898414Y-93487800D01*
X148898410Y-93487798D01*
X148894359Y-93484598D01*
X148853053Y-93461796D01*
X148803084Y-93411364D01*
X148788312Y-93341921D01*
X148813428Y-93275516D01*
X148840780Y-93248909D01*
X148884603Y-93217650D01*
X149019860Y-93121173D01*
X149178096Y-92963489D01*
X149237594Y-92880689D01*
X149305435Y-92786277D01*
X149308453Y-92782077D01*
X149341604Y-92715002D01*
X149405136Y-92586453D01*
X149405137Y-92586451D01*
X149407430Y-92581811D01*
X149472370Y-92368069D01*
X149501529Y-92146590D01*
X149503156Y-92080000D01*
X149484852Y-91857361D01*
X149430431Y-91640702D01*
X149341354Y-91435840D01*
X149220014Y-91248277D01*
X149069670Y-91083051D01*
X149065619Y-91079852D01*
X149065615Y-91079848D01*
X148898414Y-90947800D01*
X148898410Y-90947798D01*
X148894359Y-90944598D01*
X148698789Y-90836638D01*
X148693920Y-90834914D01*
X148693916Y-90834912D01*
X148493087Y-90763795D01*
X148493083Y-90763794D01*
X148488212Y-90762069D01*
X148483119Y-90761162D01*
X148483116Y-90761161D01*
X148273373Y-90723800D01*
X148273367Y-90723799D01*
X148268284Y-90722894D01*
X148194452Y-90721992D01*
X148050081Y-90720228D01*
X148050079Y-90720228D01*
X148044911Y-90720165D01*
X147824091Y-90753955D01*
X147611756Y-90823357D01*
X147413607Y-90926507D01*
X147409474Y-90929610D01*
X147409471Y-90929612D01*
X147239100Y-91057530D01*
X147234965Y-91060635D01*
X147215942Y-91080541D01*
X147143714Y-91156124D01*
X147080629Y-91222138D01*
X146954743Y-91406680D01*
X146939693Y-91439103D01*
X146867556Y-91594510D01*
X146860688Y-91609305D01*
X146800989Y-91824570D01*
X146777251Y-92046695D01*
X146777548Y-92051848D01*
X146777548Y-92051851D01*
X146783011Y-92146590D01*
X146790110Y-92269715D01*
X146791247Y-92274761D01*
X146791248Y-92274767D01*
X146811119Y-92362939D01*
X146839222Y-92487639D01*
X146923266Y-92694616D01*
X147039987Y-92885088D01*
X147186250Y-93053938D01*
X147358126Y-93196632D01*
X147428595Y-93237811D01*
X147431445Y-93239476D01*
X147480169Y-93291114D01*
X147493240Y-93360897D01*
X147466509Y-93426669D01*
X147426055Y-93460027D01*
X147413607Y-93466507D01*
X147409474Y-93469610D01*
X147409471Y-93469612D01*
X147239100Y-93597530D01*
X147234965Y-93600635D01*
X147080629Y-93762138D01*
X146954743Y-93946680D01*
X146860688Y-94149305D01*
X146800989Y-94364570D01*
X146777251Y-94586695D01*
X146777548Y-94591848D01*
X146777548Y-94591851D01*
X146783011Y-94686590D01*
X146790110Y-94809715D01*
X146791247Y-94814761D01*
X146791248Y-94814767D01*
X146811119Y-94902939D01*
X146839222Y-95027639D01*
X146923266Y-95234616D01*
X146925965Y-95239020D01*
X147027246Y-95404296D01*
X147039987Y-95425088D01*
X147186250Y-95593938D01*
X147358126Y-95736632D01*
X147372034Y-95744759D01*
X147431445Y-95779476D01*
X147480169Y-95831114D01*
X147493240Y-95900897D01*
X147466509Y-95966669D01*
X147426055Y-96000027D01*
X147413607Y-96006507D01*
X147409474Y-96009610D01*
X147409471Y-96009612D01*
X147385247Y-96027800D01*
X147234965Y-96140635D01*
X147080629Y-96302138D01*
X146954743Y-96486680D01*
X146860688Y-96689305D01*
X146800989Y-96904570D01*
X146777251Y-97126695D01*
X146777548Y-97131848D01*
X146777548Y-97131851D01*
X146783011Y-97226590D01*
X146790110Y-97349715D01*
X146791247Y-97354761D01*
X146791248Y-97354767D01*
X146811119Y-97442939D01*
X146839222Y-97567639D01*
X146923266Y-97774616D01*
X147039987Y-97965088D01*
X147186250Y-98133938D01*
X147358126Y-98276632D01*
X147428595Y-98317811D01*
X147431445Y-98319476D01*
X147480169Y-98371114D01*
X147493240Y-98440897D01*
X147466509Y-98506669D01*
X147426055Y-98540027D01*
X147413607Y-98546507D01*
X147409474Y-98549610D01*
X147409471Y-98549612D01*
X147385247Y-98567800D01*
X147234965Y-98680635D01*
X147080629Y-98842138D01*
X146954743Y-99026680D01*
X146860688Y-99229305D01*
X146800989Y-99444570D01*
X146777251Y-99666695D01*
X146777548Y-99671848D01*
X146777548Y-99671851D01*
X146783011Y-99766590D01*
X146790110Y-99889715D01*
X146791247Y-99894761D01*
X146791248Y-99894767D01*
X146811119Y-99982939D01*
X146839222Y-100107639D01*
X146923266Y-100314616D01*
X147039987Y-100505088D01*
X147186250Y-100673938D01*
X147358126Y-100816632D01*
X147428595Y-100857811D01*
X147431445Y-100859476D01*
X147480169Y-100911114D01*
X147493240Y-100980897D01*
X147466509Y-101046669D01*
X147426055Y-101080027D01*
X147413607Y-101086507D01*
X147409474Y-101089610D01*
X147409471Y-101089612D01*
X147385247Y-101107800D01*
X147234965Y-101220635D01*
X147080629Y-101382138D01*
X146954743Y-101566680D01*
X146860688Y-101769305D01*
X146800989Y-101984570D01*
X146777251Y-102206695D01*
X127642319Y-102206695D01*
X127642319Y-93567029D01*
X131236506Y-93567029D01*
X131253683Y-93864933D01*
X131254508Y-93869140D01*
X131254509Y-93869145D01*
X131267068Y-93933157D01*
X131311132Y-94157749D01*
X131312519Y-94161800D01*
X131391451Y-94392342D01*
X131407788Y-94440060D01*
X131409714Y-94443889D01*
X131533449Y-94689908D01*
X131541864Y-94706640D01*
X131544290Y-94710169D01*
X131544293Y-94710175D01*
X131616178Y-94814767D01*
X131710879Y-94952558D01*
X131713760Y-94955724D01*
X131860380Y-95116857D01*
X131911705Y-95173263D01*
X131914993Y-95176012D01*
X132137334Y-95361919D01*
X132137339Y-95361923D01*
X132140626Y-95364671D01*
X132229926Y-95420689D01*
X132389766Y-95520957D01*
X132389770Y-95520959D01*
X132393406Y-95523240D01*
X132397316Y-95525005D01*
X132397317Y-95525006D01*
X132661455Y-95644269D01*
X132661459Y-95644271D01*
X132665367Y-95646035D01*
X132669486Y-95647255D01*
X132947365Y-95729567D01*
X132947369Y-95729568D01*
X132951478Y-95730785D01*
X132955712Y-95731433D01*
X132955717Y-95731434D01*
X133215150Y-95771132D01*
X133246443Y-95775921D01*
X133398363Y-95778308D01*
X133540514Y-95780541D01*
X133540520Y-95780541D01*
X133544805Y-95780608D01*
X133841042Y-95744759D01*
X134129674Y-95669038D01*
X134133634Y-95667398D01*
X134133639Y-95667396D01*
X134303010Y-95597240D01*
X134405358Y-95554846D01*
X134456424Y-95525006D01*
X134659296Y-95406457D01*
X134659297Y-95406457D01*
X134662994Y-95404296D01*
X134713530Y-95364671D01*
X134894442Y-95222817D01*
X134897814Y-95220173D01*
X135105474Y-95005885D01*
X135108007Y-95002437D01*
X135108011Y-95002432D01*
X135279592Y-94768852D01*
X135282130Y-94765397D01*
X135314032Y-94706640D01*
X135422463Y-94506935D01*
X135422464Y-94506933D01*
X135424513Y-94503159D01*
X135529989Y-94224024D01*
X135563298Y-94078591D01*
X135595650Y-93937337D01*
X135595651Y-93937332D01*
X135596607Y-93933157D01*
X135623133Y-93635940D01*
X135623302Y-93619848D01*
X135623588Y-93592485D01*
X135623614Y-93590000D01*
X135622048Y-93567029D01*
X140736506Y-93567029D01*
X140753683Y-93864933D01*
X140754508Y-93869140D01*
X140754509Y-93869145D01*
X140767068Y-93933157D01*
X140811132Y-94157749D01*
X140812519Y-94161800D01*
X140891451Y-94392342D01*
X140907788Y-94440060D01*
X140909714Y-94443889D01*
X141033449Y-94689908D01*
X141041864Y-94706640D01*
X141044290Y-94710169D01*
X141044293Y-94710175D01*
X141116178Y-94814767D01*
X141210879Y-94952558D01*
X141213760Y-94955724D01*
X141360380Y-95116857D01*
X141411705Y-95173263D01*
X141414993Y-95176012D01*
X141637334Y-95361919D01*
X141637339Y-95361923D01*
X141640626Y-95364671D01*
X141729926Y-95420689D01*
X141889766Y-95520957D01*
X141889770Y-95520959D01*
X141893406Y-95523240D01*
X141897316Y-95525005D01*
X141897317Y-95525006D01*
X142161455Y-95644269D01*
X142161459Y-95644271D01*
X142165367Y-95646035D01*
X142169486Y-95647255D01*
X142447365Y-95729567D01*
X142447369Y-95729568D01*
X142451478Y-95730785D01*
X142455712Y-95731433D01*
X142455717Y-95731434D01*
X142715150Y-95771132D01*
X142746443Y-95775921D01*
X142898363Y-95778308D01*
X143040514Y-95780541D01*
X143040520Y-95780541D01*
X143044805Y-95780608D01*
X143341042Y-95744759D01*
X143629674Y-95669038D01*
X143633634Y-95667398D01*
X143633639Y-95667396D01*
X143803010Y-95597240D01*
X143905358Y-95554846D01*
X143956424Y-95525006D01*
X144159296Y-95406457D01*
X144159297Y-95406457D01*
X144162994Y-95404296D01*
X144213530Y-95364671D01*
X144394442Y-95222817D01*
X144397814Y-95220173D01*
X144605474Y-95005885D01*
X144608007Y-95002437D01*
X144608011Y-95002432D01*
X144779592Y-94768852D01*
X144782130Y-94765397D01*
X144814032Y-94706640D01*
X144922463Y-94506935D01*
X144922464Y-94506933D01*
X144924513Y-94503159D01*
X145029989Y-94224024D01*
X145063298Y-94078591D01*
X145095650Y-93937337D01*
X145095651Y-93937332D01*
X145096607Y-93933157D01*
X145123133Y-93635940D01*
X145123302Y-93619848D01*
X145123588Y-93592485D01*
X145123614Y-93590000D01*
X145116647Y-93487800D01*
X145103610Y-93296569D01*
X145103609Y-93296563D01*
X145103318Y-93292292D01*
X145098609Y-93269550D01*
X145067881Y-93121173D01*
X145042807Y-93000094D01*
X144943199Y-92718811D01*
X144806339Y-92453649D01*
X144790123Y-92430575D01*
X144720549Y-92331582D01*
X144634758Y-92209514D01*
X144517533Y-92083365D01*
X144434553Y-91994067D01*
X144434550Y-91994064D01*
X144431632Y-91990924D01*
X144200719Y-91801924D01*
X144147803Y-91769497D01*
X143949943Y-91648247D01*
X143949935Y-91648243D01*
X143946293Y-91646011D01*
X143942376Y-91644292D01*
X143942373Y-91644290D01*
X143699105Y-91537504D01*
X143673060Y-91526071D01*
X143668932Y-91524895D01*
X143668929Y-91524894D01*
X143579725Y-91499484D01*
X143386078Y-91444322D01*
X143381836Y-91443718D01*
X143381830Y-91443717D01*
X143094907Y-91402882D01*
X143090656Y-91402277D01*
X142934109Y-91401458D01*
X142796549Y-91400737D01*
X142796543Y-91400737D01*
X142792262Y-91400715D01*
X142788018Y-91401274D01*
X142788014Y-91401274D01*
X142711289Y-91411375D01*
X142496416Y-91439663D01*
X142492276Y-91440796D01*
X142492274Y-91440796D01*
X142475628Y-91445350D01*
X142208594Y-91518403D01*
X142166926Y-91536176D01*
X141938062Y-91633794D01*
X141938055Y-91633798D01*
X141934120Y-91635476D01*
X141678075Y-91788716D01*
X141674724Y-91791400D01*
X141674722Y-91791402D01*
X141562949Y-91880949D01*
X141445195Y-91975287D01*
X141239791Y-92191738D01*
X141065663Y-92434062D01*
X140926034Y-92697777D01*
X140924562Y-92701800D01*
X140924560Y-92701804D01*
X140828797Y-92963489D01*
X140823486Y-92978001D01*
X140759918Y-93269550D01*
X140758221Y-93291114D01*
X140747553Y-93426669D01*
X140736506Y-93567029D01*
X135622048Y-93567029D01*
X135616647Y-93487800D01*
X135603610Y-93296569D01*
X135603609Y-93296563D01*
X135603318Y-93292292D01*
X135598609Y-93269550D01*
X135567881Y-93121173D01*
X135542807Y-93000094D01*
X135443199Y-92718811D01*
X135306339Y-92453649D01*
X135290123Y-92430575D01*
X135220549Y-92331582D01*
X135134758Y-92209514D01*
X135017533Y-92083365D01*
X134934553Y-91994067D01*
X134934550Y-91994064D01*
X134931632Y-91990924D01*
X134700719Y-91801924D01*
X134647803Y-91769497D01*
X134449943Y-91648247D01*
X134449935Y-91648243D01*
X134446293Y-91646011D01*
X134442376Y-91644292D01*
X134442373Y-91644290D01*
X134199105Y-91537504D01*
X134173060Y-91526071D01*
X134168932Y-91524895D01*
X134168929Y-91524894D01*
X134079725Y-91499484D01*
X133886078Y-91444322D01*
X133881836Y-91443718D01*
X133881830Y-91443717D01*
X133594907Y-91402882D01*
X133590656Y-91402277D01*
X133434109Y-91401458D01*
X133296549Y-91400737D01*
X133296543Y-91400737D01*
X133292262Y-91400715D01*
X133288018Y-91401274D01*
X133288014Y-91401274D01*
X133211289Y-91411375D01*
X132996416Y-91439663D01*
X132992276Y-91440796D01*
X132992274Y-91440796D01*
X132975628Y-91445350D01*
X132708594Y-91518403D01*
X132666926Y-91536176D01*
X132438062Y-91633794D01*
X132438055Y-91633798D01*
X132434120Y-91635476D01*
X132178075Y-91788716D01*
X132174724Y-91791400D01*
X132174722Y-91791402D01*
X132062949Y-91880949D01*
X131945195Y-91975287D01*
X131739791Y-92191738D01*
X131565663Y-92434062D01*
X131426034Y-92697777D01*
X131424562Y-92701800D01*
X131424560Y-92701804D01*
X131328797Y-92963489D01*
X131323486Y-92978001D01*
X131259918Y-93269550D01*
X131258221Y-93291114D01*
X131247553Y-93426669D01*
X131236506Y-93567029D01*
X127642319Y-93567029D01*
X127642319Y-88867029D01*
X131236506Y-88867029D01*
X131253683Y-89164933D01*
X131254508Y-89169140D01*
X131254509Y-89169145D01*
X131267068Y-89233157D01*
X131311132Y-89457749D01*
X131312519Y-89461800D01*
X131385884Y-89676082D01*
X131407788Y-89740060D01*
X131409714Y-89743889D01*
X131523102Y-89969335D01*
X131541864Y-90006640D01*
X131544290Y-90010169D01*
X131544293Y-90010175D01*
X131584621Y-90068852D01*
X131710879Y-90252558D01*
X131911705Y-90473263D01*
X131949737Y-90505063D01*
X132137334Y-90661919D01*
X132137339Y-90661923D01*
X132140626Y-90664671D01*
X132260717Y-90740004D01*
X132389766Y-90820957D01*
X132389770Y-90820959D01*
X132393406Y-90823240D01*
X132397316Y-90825005D01*
X132397317Y-90825006D01*
X132661455Y-90944269D01*
X132661459Y-90944271D01*
X132665367Y-90946035D01*
X132719541Y-90962082D01*
X132947365Y-91029567D01*
X132947369Y-91029568D01*
X132951478Y-91030785D01*
X132955712Y-91031433D01*
X132955717Y-91031434D01*
X133215150Y-91071132D01*
X133246443Y-91075921D01*
X133398363Y-91078308D01*
X133540514Y-91080541D01*
X133540520Y-91080541D01*
X133544805Y-91080608D01*
X133841042Y-91044759D01*
X134129674Y-90969038D01*
X134133634Y-90967398D01*
X134133639Y-90967396D01*
X134282362Y-90905793D01*
X134405358Y-90854846D01*
X134436518Y-90836638D01*
X134659296Y-90706457D01*
X134659297Y-90706457D01*
X134662994Y-90704296D01*
X134713530Y-90664671D01*
X134894442Y-90522817D01*
X134897814Y-90520173D01*
X134915784Y-90501630D01*
X135102491Y-90308963D01*
X135105474Y-90305885D01*
X135108007Y-90302437D01*
X135108011Y-90302432D01*
X135279592Y-90068852D01*
X135282130Y-90065397D01*
X135314032Y-90006640D01*
X135422463Y-89806935D01*
X135422464Y-89806933D01*
X135424513Y-89803159D01*
X135529989Y-89524024D01*
X135596607Y-89233157D01*
X135623133Y-88935940D01*
X135623614Y-88890000D01*
X135618472Y-88814578D01*
X135603610Y-88596569D01*
X135603609Y-88596563D01*
X135603318Y-88592292D01*
X135598609Y-88569550D01*
X135572195Y-88442003D01*
X135542807Y-88300094D01*
X135443199Y-88018811D01*
X135306339Y-87753649D01*
X135290123Y-87730575D01*
X135137221Y-87513019D01*
X135134758Y-87509514D01*
X134967771Y-87329814D01*
X134934553Y-87294067D01*
X134934550Y-87294064D01*
X134931632Y-87290924D01*
X134700719Y-87101924D01*
X134647803Y-87069497D01*
X134449943Y-86948247D01*
X134449935Y-86948243D01*
X134446293Y-86946011D01*
X134442376Y-86944292D01*
X134442373Y-86944290D01*
X134321453Y-86891210D01*
X134173060Y-86826071D01*
X134168932Y-86824895D01*
X134168929Y-86824894D01*
X134052617Y-86791762D01*
X133886078Y-86744322D01*
X133881836Y-86743718D01*
X133881830Y-86743717D01*
X133594907Y-86702882D01*
X133590656Y-86702277D01*
X133434109Y-86701458D01*
X133296549Y-86700737D01*
X133296543Y-86700737D01*
X133292262Y-86700715D01*
X133288018Y-86701274D01*
X133288014Y-86701274D01*
X133158290Y-86718352D01*
X132996416Y-86739663D01*
X132992276Y-86740796D01*
X132992274Y-86740796D01*
X132975083Y-86745499D01*
X132708594Y-86818403D01*
X132641889Y-86846855D01*
X132438062Y-86933794D01*
X132438055Y-86933798D01*
X132434120Y-86935476D01*
X132178075Y-87088716D01*
X132174724Y-87091400D01*
X132174722Y-87091402D01*
X132158198Y-87104640D01*
X131945195Y-87275287D01*
X131739791Y-87491738D01*
X131565663Y-87734062D01*
X131426034Y-87997777D01*
X131424562Y-88001800D01*
X131424560Y-88001804D01*
X131332438Y-88253538D01*
X131323486Y-88278001D01*
X131259918Y-88569550D01*
X131236506Y-88867029D01*
X127642319Y-88867029D01*
X127642319Y-88762610D01*
X127662321Y-88694489D01*
X127679224Y-88673515D01*
X131307834Y-85044905D01*
X131370146Y-85010879D01*
X131396929Y-85008000D01*
X137157312Y-85008000D01*
X137225433Y-85028002D01*
G37*
%TD.AperFunction*%
%TD*%
M02*
